%TF.GenerationSoftware,KiCad,Pcbnew,5.1.10-88a1d61d58~90~ubuntu20.04.1*%
%TF.CreationDate,2021-12-12T00:04:41-03:00*%
%TF.ProjectId,kicadproj,6b696361-6470-4726-9f6a-2e6b69636164,rev?*%
%TF.SameCoordinates,Original*%
%TF.FileFunction,Copper,L3,Inr*%
%TF.FilePolarity,Positive*%
%FSLAX46Y46*%
G04 Gerber Fmt 4.6, Leading zero omitted, Abs format (unit mm)*
G04 Created by KiCad (PCBNEW 5.1.10-88a1d61d58~90~ubuntu20.04.1) date 2021-12-12 00:04:41*
%MOMM*%
%LPD*%
G01*
G04 APERTURE LIST*
%TA.AperFunction,ComponentPad*%
%ADD10C,8.600000*%
%TD*%
%TA.AperFunction,ComponentPad*%
%ADD11C,0.900000*%
%TD*%
%TA.AperFunction,ComponentPad*%
%ADD12R,2.400000X2.400000*%
%TD*%
%TA.AperFunction,ComponentPad*%
%ADD13C,2.400000*%
%TD*%
%TA.AperFunction,ComponentPad*%
%ADD14O,0.800000X1.300000*%
%TD*%
%TA.AperFunction,ComponentPad*%
%ADD15O,1.900000X1.050000*%
%TD*%
%TA.AperFunction,ViaPad*%
%ADD16C,0.800000*%
%TD*%
%TA.AperFunction,Conductor*%
%ADD17C,0.254000*%
%TD*%
%TA.AperFunction,Conductor*%
%ADD18C,0.100000*%
%TD*%
G04 APERTURE END LIST*
D10*
%TO.N,GND*%
%TO.C,H1*%
X140500000Y-96000000D03*
D11*
X143725000Y-96000000D03*
X142780419Y-98280419D03*
X140500000Y-99225000D03*
X138219581Y-98280419D03*
X137275000Y-96000000D03*
X138219581Y-93719581D03*
X140500000Y-92775000D03*
X142780419Y-93719581D03*
%TD*%
%TO.N,GND*%
%TO.C,H2*%
X187780419Y-93719581D03*
X185500000Y-92775000D03*
X183219581Y-93719581D03*
X182275000Y-96000000D03*
X183219581Y-98280419D03*
X185500000Y-99225000D03*
X187780419Y-98280419D03*
X188725000Y-96000000D03*
D10*
X185500000Y-96000000D03*
%TD*%
%TO.N,GND*%
%TO.C,H3*%
X185500000Y-136000000D03*
D11*
X188725000Y-136000000D03*
X187780419Y-138280419D03*
X185500000Y-139225000D03*
X183219581Y-138280419D03*
X182275000Y-136000000D03*
X183219581Y-133719581D03*
X185500000Y-132775000D03*
X187780419Y-133719581D03*
%TD*%
%TO.N,GND*%
%TO.C,H4*%
X142780419Y-133719581D03*
X140500000Y-132775000D03*
X138219581Y-133719581D03*
X137275000Y-136000000D03*
X138219581Y-138280419D03*
X140500000Y-139225000D03*
X142780419Y-138280419D03*
X143725000Y-136000000D03*
D10*
X140500000Y-136000000D03*
%TD*%
D12*
%TO.N,+12V*%
%TO.C,J1*%
X185000000Y-126500000D03*
D13*
%TO.N,GND*%
X185000000Y-123000000D03*
%TD*%
D14*
%TO.N,GND*%
%TO.C,J2*%
X151250000Y-96500000D03*
%TO.N,I2C1_SDA*%
X152500000Y-96500000D03*
%TO.N,I2C1_SCL*%
X153750000Y-96500000D03*
%TO.N,+3V3*%
%TA.AperFunction,ComponentPad*%
G36*
G01*
X155400000Y-96050000D02*
X155400000Y-96950000D01*
G75*
G02*
X155200000Y-97150000I-200000J0D01*
G01*
X154800000Y-97150000D01*
G75*
G02*
X154600000Y-96950000I0J200000D01*
G01*
X154600000Y-96050000D01*
G75*
G02*
X154800000Y-95850000I200000J0D01*
G01*
X155200000Y-95850000D01*
G75*
G02*
X155400000Y-96050000I0J-200000D01*
G01*
G37*
%TD.AperFunction*%
%TD*%
%TO.N,+3V3*%
%TO.C,J4*%
%TA.AperFunction,ComponentPad*%
G36*
G01*
X151100000Y-135950000D02*
X151100000Y-135050000D01*
G75*
G02*
X151300000Y-134850000I200000J0D01*
G01*
X151700000Y-134850000D01*
G75*
G02*
X151900000Y-135050000I0J-200000D01*
G01*
X151900000Y-135950000D01*
G75*
G02*
X151700000Y-136150000I-200000J0D01*
G01*
X151300000Y-136150000D01*
G75*
G02*
X151100000Y-135950000I0J200000D01*
G01*
G37*
%TD.AperFunction*%
%TO.N,USART3_TX*%
X152750000Y-135500000D03*
%TO.N,USART3_RX*%
X154000000Y-135500000D03*
%TO.N,GND*%
X155250000Y-135500000D03*
%TD*%
D15*
%TO.N,Net-(J5-Pad6)*%
%TO.C,J5*%
X188700000Y-102925000D03*
X188700000Y-110075000D03*
%TD*%
D16*
%TO.N,+3V3*%
X167450000Y-92000000D03*
X165650000Y-131525000D03*
X177300000Y-138250000D03*
X175500000Y-139175000D03*
X155000000Y-97625000D03*
X151925000Y-123325000D03*
X144775000Y-120500000D03*
X140600000Y-104750000D03*
X147675000Y-108975000D03*
X154575000Y-106325000D03*
X151000000Y-106350000D03*
X145700000Y-112250000D03*
X159550000Y-121825000D03*
X160400000Y-111250000D03*
X165675000Y-129975000D03*
X166100000Y-135025000D03*
X166075000Y-137550000D03*
X145495000Y-121250000D03*
X168425000Y-130000000D03*
X168450000Y-131575000D03*
X168075000Y-135000000D03*
X168075000Y-137550000D03*
X178225000Y-137450000D03*
%TO.N,GND*%
X166200000Y-92000000D03*
X164900000Y-92000000D03*
X162375000Y-91975000D03*
X162525000Y-110425000D03*
X161625000Y-109525000D03*
X176550000Y-124200000D03*
X174425000Y-124250000D03*
X179100000Y-134750000D03*
X173875000Y-139125000D03*
X171025000Y-137575000D03*
X151250000Y-97600000D03*
X159675000Y-109575000D03*
X158825000Y-123475000D03*
X158400000Y-125100000D03*
X145325000Y-122400000D03*
X144825000Y-119375000D03*
X146450000Y-117150000D03*
X142225000Y-119150000D03*
X145700000Y-113300000D03*
X147200000Y-111250000D03*
X145250000Y-109900000D03*
X140625000Y-109250000D03*
X145515240Y-117500000D03*
X150250000Y-124050000D03*
X149000000Y-108450000D03*
X184925000Y-105200000D03*
X170050000Y-133725000D03*
X166850000Y-125425000D03*
X165975000Y-126400000D03*
X180075000Y-128600000D03*
X170025000Y-138900000D03*
X172950000Y-138450000D03*
X180050000Y-133975000D03*
X174425000Y-126275000D03*
X167775000Y-126450000D03*
X174550000Y-133050000D03*
X183950000Y-105200000D03*
X183950000Y-104200000D03*
X184925000Y-104200000D03*
X141225000Y-118025000D03*
X180025000Y-105375000D03*
%TO.N,NRST*%
X149708934Y-115234875D03*
X155650000Y-106250000D03*
%TD*%
D17*
%TO.N,+3V3*%
X161379774Y-91673102D02*
X161340000Y-91873061D01*
X161340000Y-92076939D01*
X161379774Y-92276898D01*
X161457795Y-92465256D01*
X161571063Y-92634774D01*
X161715226Y-92778937D01*
X161884744Y-92892205D01*
X162073102Y-92970226D01*
X162273061Y-93010000D01*
X162476939Y-93010000D01*
X162676898Y-92970226D01*
X162865256Y-92892205D01*
X163034774Y-92778937D01*
X163178937Y-92634774D01*
X163292205Y-92465256D01*
X163370226Y-92276898D01*
X163410000Y-92076939D01*
X163410000Y-91873061D01*
X163370226Y-91673102D01*
X163364799Y-91660000D01*
X163920556Y-91660000D01*
X163904774Y-91698102D01*
X163865000Y-91898061D01*
X163865000Y-92101939D01*
X163904774Y-92301898D01*
X163982795Y-92490256D01*
X164096063Y-92659774D01*
X164240226Y-92803937D01*
X164409744Y-92917205D01*
X164598102Y-92995226D01*
X164798061Y-93035000D01*
X165001939Y-93035000D01*
X165201898Y-92995226D01*
X165390256Y-92917205D01*
X165550000Y-92810468D01*
X165709744Y-92917205D01*
X165898102Y-92995226D01*
X166098061Y-93035000D01*
X166301939Y-93035000D01*
X166501898Y-92995226D01*
X166690256Y-92917205D01*
X166859774Y-92803937D01*
X167003937Y-92659774D01*
X167117205Y-92490256D01*
X167195226Y-92301898D01*
X167235000Y-92101939D01*
X167235000Y-91898061D01*
X167195226Y-91698102D01*
X167179444Y-91660000D01*
X183112504Y-91660000D01*
X182354121Y-92166735D01*
X181666735Y-92854121D01*
X181126660Y-93662401D01*
X180754650Y-94560514D01*
X180677322Y-94949268D01*
X180592074Y-94892307D01*
X180364598Y-94798083D01*
X180123110Y-94750048D01*
X179876890Y-94750048D01*
X179635402Y-94798083D01*
X179407926Y-94892307D01*
X179203202Y-95029099D01*
X179029099Y-95203202D01*
X178892307Y-95407926D01*
X178798083Y-95635402D01*
X178750048Y-95876890D01*
X178750048Y-96123110D01*
X178798083Y-96364598D01*
X178892307Y-96592074D01*
X179029099Y-96796798D01*
X179203202Y-96970901D01*
X179407926Y-97107693D01*
X179635402Y-97201917D01*
X179876890Y-97249952D01*
X180123110Y-97249952D01*
X180364598Y-97201917D01*
X180592074Y-97107693D01*
X180677322Y-97050732D01*
X180754650Y-97439486D01*
X181126660Y-98337599D01*
X181666735Y-99145879D01*
X182354121Y-99833265D01*
X183162401Y-100373340D01*
X184060514Y-100745350D01*
X185013945Y-100935000D01*
X185986055Y-100935000D01*
X186939486Y-100745350D01*
X187837599Y-100373340D01*
X188645879Y-99833265D01*
X189333265Y-99145879D01*
X189840000Y-98387496D01*
X189840000Y-102011160D01*
X189772579Y-101955829D01*
X189571060Y-101848115D01*
X189352400Y-101781785D01*
X189181979Y-101765000D01*
X188218021Y-101765000D01*
X188047600Y-101781785D01*
X187828940Y-101848115D01*
X187627421Y-101955829D01*
X187450788Y-102100788D01*
X187305829Y-102277421D01*
X187198115Y-102478940D01*
X187131785Y-102697600D01*
X187109388Y-102925000D01*
X187131785Y-103152400D01*
X187198115Y-103371060D01*
X187305829Y-103572579D01*
X187450788Y-103749212D01*
X187627421Y-103894171D01*
X187828940Y-104001885D01*
X188047600Y-104068215D01*
X188218021Y-104085000D01*
X189181979Y-104085000D01*
X189352400Y-104068215D01*
X189571060Y-104001885D01*
X189772579Y-103894171D01*
X189840000Y-103838840D01*
X189840000Y-109161160D01*
X189772579Y-109105829D01*
X189571060Y-108998115D01*
X189352400Y-108931785D01*
X189181979Y-108915000D01*
X188218021Y-108915000D01*
X188047600Y-108931785D01*
X187828940Y-108998115D01*
X187627421Y-109105829D01*
X187450788Y-109250788D01*
X187305829Y-109427421D01*
X187198115Y-109628940D01*
X187131785Y-109847600D01*
X187109388Y-110075000D01*
X187131785Y-110302400D01*
X187198115Y-110521060D01*
X187305829Y-110722579D01*
X187450788Y-110899212D01*
X187627421Y-111044171D01*
X187828940Y-111151885D01*
X188047600Y-111218215D01*
X188218021Y-111235000D01*
X189181979Y-111235000D01*
X189352400Y-111218215D01*
X189571060Y-111151885D01*
X189772579Y-111044171D01*
X189840000Y-110988840D01*
X189840001Y-133612506D01*
X189333265Y-132854121D01*
X188645879Y-132166735D01*
X187837599Y-131626660D01*
X186939486Y-131254650D01*
X185986055Y-131065000D01*
X185013945Y-131065000D01*
X184060514Y-131254650D01*
X183162401Y-131626660D01*
X182354121Y-132166735D01*
X181666735Y-132854121D01*
X181126660Y-133662401D01*
X181070207Y-133798691D01*
X181045226Y-133673102D01*
X180967205Y-133484744D01*
X180853937Y-133315226D01*
X180709774Y-133171063D01*
X180540256Y-133057795D01*
X180351898Y-132979774D01*
X180151939Y-132940000D01*
X179948061Y-132940000D01*
X179748102Y-132979774D01*
X179559744Y-133057795D01*
X179390226Y-133171063D01*
X179246063Y-133315226D01*
X179132795Y-133484744D01*
X179054774Y-133673102D01*
X179046440Y-133715000D01*
X178998061Y-133715000D01*
X178798102Y-133754774D01*
X178609744Y-133832795D01*
X178440226Y-133946063D01*
X178296063Y-134090226D01*
X178182795Y-134259744D01*
X178104774Y-134448102D01*
X178065000Y-134648061D01*
X178065000Y-134851939D01*
X178104774Y-135051898D01*
X178182795Y-135240256D01*
X178296063Y-135409774D01*
X178440226Y-135553937D01*
X178609744Y-135667205D01*
X178798102Y-135745226D01*
X178998061Y-135785000D01*
X179201939Y-135785000D01*
X179401898Y-135745226D01*
X179590256Y-135667205D01*
X179759774Y-135553937D01*
X179903937Y-135409774D01*
X180017205Y-135240256D01*
X180095226Y-135051898D01*
X180103560Y-135010000D01*
X180151939Y-135010000D01*
X180351898Y-134970226D01*
X180540256Y-134892205D01*
X180709774Y-134778937D01*
X180711558Y-134777153D01*
X180565000Y-135513945D01*
X180565000Y-136486055D01*
X180754650Y-137439486D01*
X181126660Y-138337599D01*
X181666735Y-139145879D01*
X182354121Y-139833265D01*
X183112504Y-140340000D01*
X142887496Y-140340000D01*
X143645879Y-139833265D01*
X144333265Y-139145879D01*
X144565669Y-138798061D01*
X168990000Y-138798061D01*
X168990000Y-139001939D01*
X169029774Y-139201898D01*
X169107795Y-139390256D01*
X169221063Y-139559774D01*
X169365226Y-139703937D01*
X169534744Y-139817205D01*
X169723102Y-139895226D01*
X169923061Y-139935000D01*
X170126939Y-139935000D01*
X170326898Y-139895226D01*
X170515256Y-139817205D01*
X170684774Y-139703937D01*
X170828937Y-139559774D01*
X170942205Y-139390256D01*
X171020226Y-139201898D01*
X171060000Y-139001939D01*
X171060000Y-138798061D01*
X171022593Y-138610000D01*
X171126939Y-138610000D01*
X171326898Y-138570226D01*
X171515256Y-138492205D01*
X171684774Y-138378937D01*
X171715650Y-138348061D01*
X171915000Y-138348061D01*
X171915000Y-138551939D01*
X171954774Y-138751898D01*
X172032795Y-138940256D01*
X172146063Y-139109774D01*
X172290226Y-139253937D01*
X172459744Y-139367205D01*
X172648102Y-139445226D01*
X172848061Y-139485000D01*
X172903841Y-139485000D01*
X172957795Y-139615256D01*
X173071063Y-139784774D01*
X173215226Y-139928937D01*
X173384744Y-140042205D01*
X173573102Y-140120226D01*
X173773061Y-140160000D01*
X173976939Y-140160000D01*
X174176898Y-140120226D01*
X174365256Y-140042205D01*
X174534774Y-139928937D01*
X174678937Y-139784774D01*
X174792205Y-139615256D01*
X174870226Y-139426898D01*
X174910000Y-139226939D01*
X174910000Y-139023061D01*
X174870226Y-138823102D01*
X174792205Y-138634744D01*
X174678937Y-138465226D01*
X174534774Y-138321063D01*
X174365256Y-138207795D01*
X174176898Y-138129774D01*
X173976939Y-138090000D01*
X173921159Y-138090000D01*
X173867205Y-137959744D01*
X173753937Y-137790226D01*
X173609774Y-137646063D01*
X173440256Y-137532795D01*
X173251898Y-137454774D01*
X173051939Y-137415000D01*
X172848061Y-137415000D01*
X172648102Y-137454774D01*
X172459744Y-137532795D01*
X172290226Y-137646063D01*
X172146063Y-137790226D01*
X172032795Y-137959744D01*
X171954774Y-138148102D01*
X171915000Y-138348061D01*
X171715650Y-138348061D01*
X171828937Y-138234774D01*
X171942205Y-138065256D01*
X172020226Y-137876898D01*
X172060000Y-137676939D01*
X172060000Y-137473061D01*
X172020226Y-137273102D01*
X171942205Y-137084744D01*
X171828937Y-136915226D01*
X171684774Y-136771063D01*
X171515256Y-136657795D01*
X171326898Y-136579774D01*
X171126939Y-136540000D01*
X170923061Y-136540000D01*
X170723102Y-136579774D01*
X170534744Y-136657795D01*
X170365226Y-136771063D01*
X170221063Y-136915226D01*
X170107795Y-137084744D01*
X170029774Y-137273102D01*
X169990000Y-137473061D01*
X169990000Y-137676939D01*
X170027407Y-137865000D01*
X169923061Y-137865000D01*
X169723102Y-137904774D01*
X169534744Y-137982795D01*
X169365226Y-138096063D01*
X169221063Y-138240226D01*
X169107795Y-138409744D01*
X169029774Y-138598102D01*
X168990000Y-138798061D01*
X144565669Y-138798061D01*
X144873340Y-138337599D01*
X145245350Y-137439486D01*
X145322678Y-137050732D01*
X145407926Y-137107693D01*
X145635402Y-137201917D01*
X145876890Y-137249952D01*
X146123110Y-137249952D01*
X146364598Y-137201917D01*
X146592074Y-137107693D01*
X146796798Y-136970901D01*
X146970901Y-136796798D01*
X147107693Y-136592074D01*
X147201917Y-136364598D01*
X147244603Y-136150000D01*
X150461928Y-136150000D01*
X150474188Y-136274482D01*
X150510498Y-136394180D01*
X150569463Y-136504494D01*
X150648815Y-136601185D01*
X150745506Y-136680537D01*
X150855820Y-136739502D01*
X150975518Y-136775812D01*
X151100000Y-136788072D01*
X151214250Y-136785000D01*
X151373000Y-136626250D01*
X151373000Y-135627000D01*
X150623750Y-135627000D01*
X150465000Y-135785750D01*
X150461928Y-136150000D01*
X147244603Y-136150000D01*
X147249952Y-136123110D01*
X147249952Y-135876890D01*
X147201917Y-135635402D01*
X147107693Y-135407926D01*
X146970901Y-135203202D01*
X146796798Y-135029099D01*
X146592074Y-134892307D01*
X146489937Y-134850000D01*
X150461928Y-134850000D01*
X150465000Y-135214250D01*
X150623750Y-135373000D01*
X151373000Y-135373000D01*
X151373000Y-134373750D01*
X151627000Y-134373750D01*
X151627000Y-135373000D01*
X151647000Y-135373000D01*
X151647000Y-135627000D01*
X151627000Y-135627000D01*
X151627000Y-136626250D01*
X151785750Y-136785000D01*
X151900000Y-136788072D01*
X152024482Y-136775812D01*
X152144180Y-136739502D01*
X152254494Y-136680537D01*
X152270594Y-136667324D01*
X152352008Y-136710841D01*
X152547106Y-136770024D01*
X152750000Y-136790007D01*
X152952895Y-136770024D01*
X153147993Y-136710841D01*
X153327797Y-136614734D01*
X153375001Y-136575995D01*
X153422204Y-136614734D01*
X153602008Y-136710841D01*
X153797106Y-136770024D01*
X154000000Y-136790007D01*
X154202895Y-136770024D01*
X154397993Y-136710841D01*
X154577797Y-136614734D01*
X154625001Y-136575995D01*
X154672204Y-136614734D01*
X154852008Y-136710841D01*
X155047106Y-136770024D01*
X155250000Y-136790007D01*
X155452895Y-136770024D01*
X155647993Y-136710841D01*
X155827797Y-136614734D01*
X155985396Y-136485396D01*
X156114734Y-136327797D01*
X156210841Y-136147992D01*
X156270024Y-135952894D01*
X156285000Y-135800837D01*
X156285000Y-135199162D01*
X156270024Y-135047105D01*
X156210841Y-134852007D01*
X156114734Y-134672203D01*
X155985396Y-134514604D01*
X155827797Y-134385266D01*
X155647992Y-134289159D01*
X155452894Y-134229976D01*
X155250000Y-134209993D01*
X155047105Y-134229976D01*
X154852007Y-134289159D01*
X154672203Y-134385266D01*
X154625000Y-134424004D01*
X154577797Y-134385266D01*
X154397992Y-134289159D01*
X154202894Y-134229976D01*
X154000000Y-134209993D01*
X153797105Y-134229976D01*
X153602007Y-134289159D01*
X153422203Y-134385266D01*
X153375000Y-134424004D01*
X153327797Y-134385266D01*
X153147992Y-134289159D01*
X152952894Y-134229976D01*
X152750000Y-134209993D01*
X152547105Y-134229976D01*
X152352007Y-134289159D01*
X152270593Y-134332675D01*
X152254494Y-134319463D01*
X152144180Y-134260498D01*
X152024482Y-134224188D01*
X151900000Y-134211928D01*
X151785750Y-134215000D01*
X151627000Y-134373750D01*
X151373000Y-134373750D01*
X151214250Y-134215000D01*
X151100000Y-134211928D01*
X150975518Y-134224188D01*
X150855820Y-134260498D01*
X150745506Y-134319463D01*
X150648815Y-134398815D01*
X150569463Y-134495506D01*
X150510498Y-134605820D01*
X150474188Y-134725518D01*
X150461928Y-134850000D01*
X146489937Y-134850000D01*
X146364598Y-134798083D01*
X146123110Y-134750048D01*
X145876890Y-134750048D01*
X145635402Y-134798083D01*
X145407926Y-134892307D01*
X145322678Y-134949268D01*
X145245350Y-134560514D01*
X144873340Y-133662401D01*
X144847054Y-133623061D01*
X169015000Y-133623061D01*
X169015000Y-133826939D01*
X169054774Y-134026898D01*
X169132795Y-134215256D01*
X169246063Y-134384774D01*
X169390226Y-134528937D01*
X169559744Y-134642205D01*
X169748102Y-134720226D01*
X169948061Y-134760000D01*
X170151939Y-134760000D01*
X170351898Y-134720226D01*
X170540256Y-134642205D01*
X170709774Y-134528937D01*
X170853937Y-134384774D01*
X170967205Y-134215256D01*
X171045226Y-134026898D01*
X171085000Y-133826939D01*
X171085000Y-133623061D01*
X171045226Y-133423102D01*
X170967205Y-133234744D01*
X170853937Y-133065226D01*
X170736772Y-132948061D01*
X173515000Y-132948061D01*
X173515000Y-133151939D01*
X173554774Y-133351898D01*
X173632795Y-133540256D01*
X173746063Y-133709774D01*
X173890226Y-133853937D01*
X174059744Y-133967205D01*
X174248102Y-134045226D01*
X174448061Y-134085000D01*
X174651939Y-134085000D01*
X174851898Y-134045226D01*
X175040256Y-133967205D01*
X175209774Y-133853937D01*
X175353937Y-133709774D01*
X175467205Y-133540256D01*
X175545226Y-133351898D01*
X175585000Y-133151939D01*
X175585000Y-132948061D01*
X175545226Y-132748102D01*
X175467205Y-132559744D01*
X175353937Y-132390226D01*
X175209774Y-132246063D01*
X175040256Y-132132795D01*
X174851898Y-132054774D01*
X174651939Y-132015000D01*
X174448061Y-132015000D01*
X174248102Y-132054774D01*
X174059744Y-132132795D01*
X173890226Y-132246063D01*
X173746063Y-132390226D01*
X173632795Y-132559744D01*
X173554774Y-132748102D01*
X173515000Y-132948061D01*
X170736772Y-132948061D01*
X170709774Y-132921063D01*
X170540256Y-132807795D01*
X170351898Y-132729774D01*
X170151939Y-132690000D01*
X169948061Y-132690000D01*
X169748102Y-132729774D01*
X169559744Y-132807795D01*
X169390226Y-132921063D01*
X169246063Y-133065226D01*
X169132795Y-133234744D01*
X169054774Y-133423102D01*
X169015000Y-133623061D01*
X144847054Y-133623061D01*
X144333265Y-132854121D01*
X143645879Y-132166735D01*
X142837599Y-131626660D01*
X141939486Y-131254650D01*
X140986055Y-131065000D01*
X140013945Y-131065000D01*
X139060514Y-131254650D01*
X138162401Y-131626660D01*
X137354121Y-132166735D01*
X136666735Y-132854121D01*
X136160000Y-133612504D01*
X136160000Y-128498061D01*
X179040000Y-128498061D01*
X179040000Y-128701939D01*
X179079774Y-128901898D01*
X179157795Y-129090256D01*
X179271063Y-129259774D01*
X179415226Y-129403937D01*
X179584744Y-129517205D01*
X179773102Y-129595226D01*
X179973061Y-129635000D01*
X180176939Y-129635000D01*
X180376898Y-129595226D01*
X180565256Y-129517205D01*
X180734774Y-129403937D01*
X180878937Y-129259774D01*
X180992205Y-129090256D01*
X181070226Y-128901898D01*
X181110000Y-128701939D01*
X181110000Y-128498061D01*
X181070226Y-128298102D01*
X180992205Y-128109744D01*
X180878937Y-127940226D01*
X180734774Y-127796063D01*
X180565256Y-127682795D01*
X180376898Y-127604774D01*
X180176939Y-127565000D01*
X179973061Y-127565000D01*
X179773102Y-127604774D01*
X179584744Y-127682795D01*
X179415226Y-127796063D01*
X179271063Y-127940226D01*
X179157795Y-128109744D01*
X179079774Y-128298102D01*
X179040000Y-128498061D01*
X136160000Y-128498061D01*
X136160000Y-126298061D01*
X164940000Y-126298061D01*
X164940000Y-126501939D01*
X164979774Y-126701898D01*
X165057795Y-126890256D01*
X165171063Y-127059774D01*
X165315226Y-127203937D01*
X165484744Y-127317205D01*
X165673102Y-127395226D01*
X165873061Y-127435000D01*
X166076939Y-127435000D01*
X166276898Y-127395226D01*
X166465256Y-127317205D01*
X166634774Y-127203937D01*
X166778937Y-127059774D01*
X166858296Y-126941005D01*
X166971063Y-127109774D01*
X167115226Y-127253937D01*
X167284744Y-127367205D01*
X167473102Y-127445226D01*
X167673061Y-127485000D01*
X167876939Y-127485000D01*
X168076898Y-127445226D01*
X168265256Y-127367205D01*
X168434774Y-127253937D01*
X168578937Y-127109774D01*
X168692205Y-126940256D01*
X168770226Y-126751898D01*
X168810000Y-126551939D01*
X168810000Y-126348061D01*
X168770226Y-126148102D01*
X168692205Y-125959744D01*
X168578937Y-125790226D01*
X168434774Y-125646063D01*
X168265256Y-125532795D01*
X168076898Y-125454774D01*
X167885000Y-125416603D01*
X167885000Y-125323061D01*
X167845226Y-125123102D01*
X167767205Y-124934744D01*
X167653937Y-124765226D01*
X167509774Y-124621063D01*
X167340256Y-124507795D01*
X167151898Y-124429774D01*
X166951939Y-124390000D01*
X166748061Y-124390000D01*
X166548102Y-124429774D01*
X166359744Y-124507795D01*
X166190226Y-124621063D01*
X166046063Y-124765226D01*
X165932795Y-124934744D01*
X165854774Y-125123102D01*
X165815000Y-125323061D01*
X165815000Y-125376549D01*
X165673102Y-125404774D01*
X165484744Y-125482795D01*
X165315226Y-125596063D01*
X165171063Y-125740226D01*
X165057795Y-125909744D01*
X164979774Y-126098102D01*
X164940000Y-126298061D01*
X136160000Y-126298061D01*
X136160000Y-123948061D01*
X149215000Y-123948061D01*
X149215000Y-124151939D01*
X149254774Y-124351898D01*
X149332795Y-124540256D01*
X149446063Y-124709774D01*
X149590226Y-124853937D01*
X149759744Y-124967205D01*
X149948102Y-125045226D01*
X150148061Y-125085000D01*
X150351939Y-125085000D01*
X150551898Y-125045226D01*
X150665763Y-124998061D01*
X157365000Y-124998061D01*
X157365000Y-125201939D01*
X157404774Y-125401898D01*
X157482795Y-125590256D01*
X157596063Y-125759774D01*
X157740226Y-125903937D01*
X157909744Y-126017205D01*
X158098102Y-126095226D01*
X158298061Y-126135000D01*
X158501939Y-126135000D01*
X158701898Y-126095226D01*
X158890256Y-126017205D01*
X159059774Y-125903937D01*
X159203937Y-125759774D01*
X159317205Y-125590256D01*
X159395226Y-125401898D01*
X159435000Y-125201939D01*
X159435000Y-124998061D01*
X159395226Y-124798102D01*
X159317205Y-124609744D01*
X159203937Y-124440226D01*
X159202586Y-124438875D01*
X159315256Y-124392205D01*
X159484774Y-124278937D01*
X159615650Y-124148061D01*
X173390000Y-124148061D01*
X173390000Y-124351939D01*
X173429774Y-124551898D01*
X173507795Y-124740256D01*
X173621063Y-124909774D01*
X173765226Y-125053937D01*
X173934744Y-125167205D01*
X174123102Y-125245226D01*
X174209945Y-125262500D01*
X174123102Y-125279774D01*
X173934744Y-125357795D01*
X173765226Y-125471063D01*
X173621063Y-125615226D01*
X173507795Y-125784744D01*
X173429774Y-125973102D01*
X173390000Y-126173061D01*
X173390000Y-126376939D01*
X173429774Y-126576898D01*
X173507795Y-126765256D01*
X173621063Y-126934774D01*
X173765226Y-127078937D01*
X173934744Y-127192205D01*
X174123102Y-127270226D01*
X174323061Y-127310000D01*
X174526939Y-127310000D01*
X174726898Y-127270226D01*
X174915256Y-127192205D01*
X175084774Y-127078937D01*
X175228937Y-126934774D01*
X175342205Y-126765256D01*
X175420226Y-126576898D01*
X175460000Y-126376939D01*
X175460000Y-126173061D01*
X175420226Y-125973102D01*
X175342205Y-125784744D01*
X175228937Y-125615226D01*
X175084774Y-125471063D01*
X174915256Y-125357795D01*
X174775728Y-125300000D01*
X183161928Y-125300000D01*
X183161928Y-127700000D01*
X183174188Y-127824482D01*
X183210498Y-127944180D01*
X183269463Y-128054494D01*
X183348815Y-128151185D01*
X183445506Y-128230537D01*
X183555820Y-128289502D01*
X183675518Y-128325812D01*
X183800000Y-128338072D01*
X186200000Y-128338072D01*
X186324482Y-128325812D01*
X186444180Y-128289502D01*
X186554494Y-128230537D01*
X186651185Y-128151185D01*
X186730537Y-128054494D01*
X186789502Y-127944180D01*
X186825812Y-127824482D01*
X186838072Y-127700000D01*
X186838072Y-125300000D01*
X186825812Y-125175518D01*
X186789502Y-125055820D01*
X186730537Y-124945506D01*
X186651185Y-124848815D01*
X186554494Y-124769463D01*
X186444180Y-124710498D01*
X186324482Y-124674188D01*
X186200000Y-124661928D01*
X185782838Y-124661928D01*
X185869199Y-124626156D01*
X186169744Y-124425338D01*
X186425338Y-124169744D01*
X186626156Y-123869199D01*
X186764482Y-123535250D01*
X186835000Y-123180732D01*
X186835000Y-122819268D01*
X186764482Y-122464750D01*
X186626156Y-122130801D01*
X186425338Y-121830256D01*
X186169744Y-121574662D01*
X185869199Y-121373844D01*
X185535250Y-121235518D01*
X185180732Y-121165000D01*
X184819268Y-121165000D01*
X184464750Y-121235518D01*
X184130801Y-121373844D01*
X183830256Y-121574662D01*
X183574662Y-121830256D01*
X183373844Y-122130801D01*
X183235518Y-122464750D01*
X183165000Y-122819268D01*
X183165000Y-123180732D01*
X183235518Y-123535250D01*
X183373844Y-123869199D01*
X183574662Y-124169744D01*
X183830256Y-124425338D01*
X184130801Y-124626156D01*
X184217162Y-124661928D01*
X183800000Y-124661928D01*
X183675518Y-124674188D01*
X183555820Y-124710498D01*
X183445506Y-124769463D01*
X183348815Y-124848815D01*
X183269463Y-124945506D01*
X183210498Y-125055820D01*
X183174188Y-125175518D01*
X183161928Y-125300000D01*
X174775728Y-125300000D01*
X174726898Y-125279774D01*
X174640055Y-125262500D01*
X174726898Y-125245226D01*
X174915256Y-125167205D01*
X175084774Y-125053937D01*
X175228937Y-124909774D01*
X175342205Y-124740256D01*
X175420226Y-124551898D01*
X175460000Y-124351939D01*
X175460000Y-124148061D01*
X175450055Y-124098061D01*
X175515000Y-124098061D01*
X175515000Y-124301939D01*
X175554774Y-124501898D01*
X175632795Y-124690256D01*
X175746063Y-124859774D01*
X175890226Y-125003937D01*
X176059744Y-125117205D01*
X176248102Y-125195226D01*
X176448061Y-125235000D01*
X176651939Y-125235000D01*
X176851898Y-125195226D01*
X177040256Y-125117205D01*
X177209774Y-125003937D01*
X177353937Y-124859774D01*
X177467205Y-124690256D01*
X177545226Y-124501898D01*
X177585000Y-124301939D01*
X177585000Y-124098061D01*
X177545226Y-123898102D01*
X177467205Y-123709744D01*
X177353937Y-123540226D01*
X177209774Y-123396063D01*
X177040256Y-123282795D01*
X176851898Y-123204774D01*
X176651939Y-123165000D01*
X176448061Y-123165000D01*
X176248102Y-123204774D01*
X176059744Y-123282795D01*
X175890226Y-123396063D01*
X175746063Y-123540226D01*
X175632795Y-123709744D01*
X175554774Y-123898102D01*
X175515000Y-124098061D01*
X175450055Y-124098061D01*
X175420226Y-123948102D01*
X175342205Y-123759744D01*
X175228937Y-123590226D01*
X175084774Y-123446063D01*
X174915256Y-123332795D01*
X174726898Y-123254774D01*
X174526939Y-123215000D01*
X174323061Y-123215000D01*
X174123102Y-123254774D01*
X173934744Y-123332795D01*
X173765226Y-123446063D01*
X173621063Y-123590226D01*
X173507795Y-123759744D01*
X173429774Y-123948102D01*
X173390000Y-124148061D01*
X159615650Y-124148061D01*
X159628937Y-124134774D01*
X159742205Y-123965256D01*
X159820226Y-123776898D01*
X159860000Y-123576939D01*
X159860000Y-123373061D01*
X159820226Y-123173102D01*
X159742205Y-122984744D01*
X159628937Y-122815226D01*
X159484774Y-122671063D01*
X159315256Y-122557795D01*
X159126898Y-122479774D01*
X158926939Y-122440000D01*
X158723061Y-122440000D01*
X158523102Y-122479774D01*
X158334744Y-122557795D01*
X158165226Y-122671063D01*
X158021063Y-122815226D01*
X157907795Y-122984744D01*
X157829774Y-123173102D01*
X157790000Y-123373061D01*
X157790000Y-123576939D01*
X157829774Y-123776898D01*
X157907795Y-123965256D01*
X158021063Y-124134774D01*
X158022414Y-124136125D01*
X157909744Y-124182795D01*
X157740226Y-124296063D01*
X157596063Y-124440226D01*
X157482795Y-124609744D01*
X157404774Y-124798102D01*
X157365000Y-124998061D01*
X150665763Y-124998061D01*
X150740256Y-124967205D01*
X150909774Y-124853937D01*
X151053937Y-124709774D01*
X151167205Y-124540256D01*
X151245226Y-124351898D01*
X151285000Y-124151939D01*
X151285000Y-123948061D01*
X151245226Y-123748102D01*
X151167205Y-123559744D01*
X151053937Y-123390226D01*
X150909774Y-123246063D01*
X150740256Y-123132795D01*
X150551898Y-123054774D01*
X150351939Y-123015000D01*
X150148061Y-123015000D01*
X149948102Y-123054774D01*
X149759744Y-123132795D01*
X149590226Y-123246063D01*
X149446063Y-123390226D01*
X149332795Y-123559744D01*
X149254774Y-123748102D01*
X149215000Y-123948061D01*
X136160000Y-123948061D01*
X136160000Y-122298061D01*
X144290000Y-122298061D01*
X144290000Y-122501939D01*
X144329774Y-122701898D01*
X144407795Y-122890256D01*
X144521063Y-123059774D01*
X144665226Y-123203937D01*
X144834744Y-123317205D01*
X145023102Y-123395226D01*
X145223061Y-123435000D01*
X145426939Y-123435000D01*
X145626898Y-123395226D01*
X145815256Y-123317205D01*
X145984774Y-123203937D01*
X146128937Y-123059774D01*
X146242205Y-122890256D01*
X146320226Y-122701898D01*
X146360000Y-122501939D01*
X146360000Y-122298061D01*
X146320226Y-122098102D01*
X146242205Y-121909744D01*
X146128937Y-121740226D01*
X145984774Y-121596063D01*
X145815256Y-121482795D01*
X145626898Y-121404774D01*
X145426939Y-121365000D01*
X145223061Y-121365000D01*
X145023102Y-121404774D01*
X144834744Y-121482795D01*
X144665226Y-121596063D01*
X144521063Y-121740226D01*
X144407795Y-121909744D01*
X144329774Y-122098102D01*
X144290000Y-122298061D01*
X136160000Y-122298061D01*
X136160000Y-117923061D01*
X140190000Y-117923061D01*
X140190000Y-118126939D01*
X140229774Y-118326898D01*
X140307795Y-118515256D01*
X140421063Y-118684774D01*
X140565226Y-118828937D01*
X140734744Y-118942205D01*
X140923102Y-119020226D01*
X141123061Y-119060000D01*
X141190000Y-119060000D01*
X141190000Y-119251939D01*
X141229774Y-119451898D01*
X141307795Y-119640256D01*
X141421063Y-119809774D01*
X141565226Y-119953937D01*
X141734744Y-120067205D01*
X141923102Y-120145226D01*
X142123061Y-120185000D01*
X142326939Y-120185000D01*
X142526898Y-120145226D01*
X142715256Y-120067205D01*
X142884774Y-119953937D01*
X143028937Y-119809774D01*
X143142205Y-119640256D01*
X143220226Y-119451898D01*
X143255798Y-119273061D01*
X143790000Y-119273061D01*
X143790000Y-119476939D01*
X143829774Y-119676898D01*
X143907795Y-119865256D01*
X144021063Y-120034774D01*
X144165226Y-120178937D01*
X144334744Y-120292205D01*
X144523102Y-120370226D01*
X144723061Y-120410000D01*
X144926939Y-120410000D01*
X145126898Y-120370226D01*
X145315256Y-120292205D01*
X145484774Y-120178937D01*
X145628937Y-120034774D01*
X145742205Y-119865256D01*
X145820226Y-119676898D01*
X145860000Y-119476939D01*
X145860000Y-119273061D01*
X145820226Y-119073102D01*
X145742205Y-118884744D01*
X145628937Y-118715226D01*
X145484774Y-118571063D01*
X145430802Y-118535000D01*
X145617179Y-118535000D01*
X145817138Y-118495226D01*
X146005496Y-118417205D01*
X146175014Y-118303937D01*
X146302928Y-118176023D01*
X146348061Y-118185000D01*
X146551939Y-118185000D01*
X146751898Y-118145226D01*
X146940256Y-118067205D01*
X147109774Y-117953937D01*
X147253937Y-117809774D01*
X147367205Y-117640256D01*
X147445226Y-117451898D01*
X147485000Y-117251939D01*
X147485000Y-117048061D01*
X147445226Y-116848102D01*
X147367205Y-116659744D01*
X147253937Y-116490226D01*
X147109774Y-116346063D01*
X146940256Y-116232795D01*
X146751898Y-116154774D01*
X146551939Y-116115000D01*
X146348061Y-116115000D01*
X146148102Y-116154774D01*
X145959744Y-116232795D01*
X145790226Y-116346063D01*
X145662312Y-116473977D01*
X145617179Y-116465000D01*
X145413301Y-116465000D01*
X145213342Y-116504774D01*
X145024984Y-116582795D01*
X144855466Y-116696063D01*
X144711303Y-116840226D01*
X144598035Y-117009744D01*
X144520014Y-117198102D01*
X144480240Y-117398061D01*
X144480240Y-117601939D01*
X144520014Y-117801898D01*
X144598035Y-117990256D01*
X144711303Y-118159774D01*
X144855466Y-118303937D01*
X144909438Y-118340000D01*
X144723061Y-118340000D01*
X144523102Y-118379774D01*
X144334744Y-118457795D01*
X144165226Y-118571063D01*
X144021063Y-118715226D01*
X143907795Y-118884744D01*
X143829774Y-119073102D01*
X143790000Y-119273061D01*
X143255798Y-119273061D01*
X143260000Y-119251939D01*
X143260000Y-119048061D01*
X143220226Y-118848102D01*
X143142205Y-118659744D01*
X143028937Y-118490226D01*
X142884774Y-118346063D01*
X142715256Y-118232795D01*
X142526898Y-118154774D01*
X142326939Y-118115000D01*
X142260000Y-118115000D01*
X142260000Y-117923061D01*
X142220226Y-117723102D01*
X142142205Y-117534744D01*
X142028937Y-117365226D01*
X141884774Y-117221063D01*
X141715256Y-117107795D01*
X141526898Y-117029774D01*
X141326939Y-116990000D01*
X141123061Y-116990000D01*
X140923102Y-117029774D01*
X140734744Y-117107795D01*
X140565226Y-117221063D01*
X140421063Y-117365226D01*
X140307795Y-117534744D01*
X140229774Y-117723102D01*
X140190000Y-117923061D01*
X136160000Y-117923061D01*
X136160000Y-115132936D01*
X148673934Y-115132936D01*
X148673934Y-115336814D01*
X148713708Y-115536773D01*
X148791729Y-115725131D01*
X148904997Y-115894649D01*
X149049160Y-116038812D01*
X149218678Y-116152080D01*
X149407036Y-116230101D01*
X149606995Y-116269875D01*
X149810873Y-116269875D01*
X150010832Y-116230101D01*
X150199190Y-116152080D01*
X150368708Y-116038812D01*
X150512871Y-115894649D01*
X150626139Y-115725131D01*
X150704160Y-115536773D01*
X150743934Y-115336814D01*
X150743934Y-115132936D01*
X150704160Y-114932977D01*
X150626139Y-114744619D01*
X150512871Y-114575101D01*
X150368708Y-114430938D01*
X150199190Y-114317670D01*
X150010832Y-114239649D01*
X149810873Y-114199875D01*
X149606995Y-114199875D01*
X149407036Y-114239649D01*
X149218678Y-114317670D01*
X149049160Y-114430938D01*
X148904997Y-114575101D01*
X148791729Y-114744619D01*
X148713708Y-114932977D01*
X148673934Y-115132936D01*
X136160000Y-115132936D01*
X136160000Y-113198061D01*
X144665000Y-113198061D01*
X144665000Y-113401939D01*
X144704774Y-113601898D01*
X144782795Y-113790256D01*
X144896063Y-113959774D01*
X145040226Y-114103937D01*
X145209744Y-114217205D01*
X145398102Y-114295226D01*
X145598061Y-114335000D01*
X145801939Y-114335000D01*
X146001898Y-114295226D01*
X146190256Y-114217205D01*
X146359774Y-114103937D01*
X146503937Y-113959774D01*
X146617205Y-113790256D01*
X146695226Y-113601898D01*
X146735000Y-113401939D01*
X146735000Y-113198061D01*
X146695226Y-112998102D01*
X146617205Y-112809744D01*
X146503937Y-112640226D01*
X146359774Y-112496063D01*
X146190256Y-112382795D01*
X146001898Y-112304774D01*
X145801939Y-112265000D01*
X145598061Y-112265000D01*
X145398102Y-112304774D01*
X145209744Y-112382795D01*
X145040226Y-112496063D01*
X144896063Y-112640226D01*
X144782795Y-112809744D01*
X144704774Y-112998102D01*
X144665000Y-113198061D01*
X136160000Y-113198061D01*
X136160000Y-111148061D01*
X146165000Y-111148061D01*
X146165000Y-111351939D01*
X146204774Y-111551898D01*
X146282795Y-111740256D01*
X146396063Y-111909774D01*
X146540226Y-112053937D01*
X146709744Y-112167205D01*
X146898102Y-112245226D01*
X147098061Y-112285000D01*
X147301939Y-112285000D01*
X147501898Y-112245226D01*
X147690256Y-112167205D01*
X147859774Y-112053937D01*
X148003937Y-111909774D01*
X148117205Y-111740256D01*
X148195226Y-111551898D01*
X148235000Y-111351939D01*
X148235000Y-111148061D01*
X148195226Y-110948102D01*
X148117205Y-110759744D01*
X148003937Y-110590226D01*
X147859774Y-110446063D01*
X147690256Y-110332795D01*
X147501898Y-110254774D01*
X147301939Y-110215000D01*
X147098061Y-110215000D01*
X146898102Y-110254774D01*
X146709744Y-110332795D01*
X146540226Y-110446063D01*
X146396063Y-110590226D01*
X146282795Y-110759744D01*
X146204774Y-110948102D01*
X146165000Y-111148061D01*
X136160000Y-111148061D01*
X136160000Y-108393137D01*
X136585000Y-108393137D01*
X136585000Y-108606863D01*
X136626696Y-108816483D01*
X136708485Y-109013940D01*
X136827225Y-109191647D01*
X136978353Y-109342775D01*
X137156060Y-109461515D01*
X137353517Y-109543304D01*
X137563137Y-109585000D01*
X137776863Y-109585000D01*
X137986483Y-109543304D01*
X138183940Y-109461515D01*
X138361647Y-109342775D01*
X138512775Y-109191647D01*
X138541898Y-109148061D01*
X139590000Y-109148061D01*
X139590000Y-109351939D01*
X139629774Y-109551898D01*
X139707795Y-109740256D01*
X139821063Y-109909774D01*
X139965226Y-110053937D01*
X140134744Y-110167205D01*
X140323102Y-110245226D01*
X140523061Y-110285000D01*
X140726939Y-110285000D01*
X140926898Y-110245226D01*
X141115256Y-110167205D01*
X141284774Y-110053937D01*
X141428937Y-109909774D01*
X141503581Y-109798061D01*
X144215000Y-109798061D01*
X144215000Y-110001939D01*
X144254774Y-110201898D01*
X144332795Y-110390256D01*
X144446063Y-110559774D01*
X144590226Y-110703937D01*
X144759744Y-110817205D01*
X144948102Y-110895226D01*
X145148061Y-110935000D01*
X145351939Y-110935000D01*
X145551898Y-110895226D01*
X145740256Y-110817205D01*
X145909774Y-110703937D01*
X146053937Y-110559774D01*
X146167205Y-110390256D01*
X146245226Y-110201898D01*
X146285000Y-110001939D01*
X146285000Y-109798061D01*
X146245226Y-109598102D01*
X146167205Y-109409744D01*
X146053937Y-109240226D01*
X145909774Y-109096063D01*
X145740256Y-108982795D01*
X145551898Y-108904774D01*
X145351939Y-108865000D01*
X145148061Y-108865000D01*
X144948102Y-108904774D01*
X144759744Y-108982795D01*
X144590226Y-109096063D01*
X144446063Y-109240226D01*
X144332795Y-109409744D01*
X144254774Y-109598102D01*
X144215000Y-109798061D01*
X141503581Y-109798061D01*
X141542205Y-109740256D01*
X141620226Y-109551898D01*
X141660000Y-109351939D01*
X141660000Y-109148061D01*
X141620226Y-108948102D01*
X141542205Y-108759744D01*
X141428937Y-108590226D01*
X141284774Y-108446063D01*
X141138104Y-108348061D01*
X147965000Y-108348061D01*
X147965000Y-108551939D01*
X148004774Y-108751898D01*
X148082795Y-108940256D01*
X148196063Y-109109774D01*
X148340226Y-109253937D01*
X148509744Y-109367205D01*
X148698102Y-109445226D01*
X148898061Y-109485000D01*
X149101939Y-109485000D01*
X149161960Y-109473061D01*
X158640000Y-109473061D01*
X158640000Y-109676939D01*
X158679774Y-109876898D01*
X158757795Y-110065256D01*
X158871063Y-110234774D01*
X159015226Y-110378937D01*
X159184744Y-110492205D01*
X159373102Y-110570226D01*
X159573061Y-110610000D01*
X159776939Y-110610000D01*
X159976898Y-110570226D01*
X160165256Y-110492205D01*
X160334774Y-110378937D01*
X160478937Y-110234774D01*
X160592205Y-110065256D01*
X160660355Y-109900728D01*
X160707795Y-110015256D01*
X160821063Y-110184774D01*
X160965226Y-110328937D01*
X161134744Y-110442205D01*
X161323102Y-110520226D01*
X161495485Y-110554515D01*
X161529774Y-110726898D01*
X161607795Y-110915256D01*
X161721063Y-111084774D01*
X161865226Y-111228937D01*
X162034744Y-111342205D01*
X162223102Y-111420226D01*
X162423061Y-111460000D01*
X162626939Y-111460000D01*
X162826898Y-111420226D01*
X163015256Y-111342205D01*
X163184774Y-111228937D01*
X163328937Y-111084774D01*
X163442205Y-110915256D01*
X163520226Y-110726898D01*
X163560000Y-110526939D01*
X163560000Y-110323061D01*
X163520226Y-110123102D01*
X163442205Y-109934744D01*
X163328937Y-109765226D01*
X163184774Y-109621063D01*
X163015256Y-109507795D01*
X162826898Y-109429774D01*
X162654515Y-109395485D01*
X162620226Y-109223102D01*
X162542205Y-109034744D01*
X162428937Y-108865226D01*
X162284774Y-108721063D01*
X162115256Y-108607795D01*
X161926898Y-108529774D01*
X161726939Y-108490000D01*
X161523061Y-108490000D01*
X161323102Y-108529774D01*
X161134744Y-108607795D01*
X160965226Y-108721063D01*
X160821063Y-108865226D01*
X160707795Y-109034744D01*
X160639645Y-109199272D01*
X160592205Y-109084744D01*
X160478937Y-108915226D01*
X160334774Y-108771063D01*
X160165256Y-108657795D01*
X159976898Y-108579774D01*
X159776939Y-108540000D01*
X159573061Y-108540000D01*
X159373102Y-108579774D01*
X159184744Y-108657795D01*
X159015226Y-108771063D01*
X158871063Y-108915226D01*
X158757795Y-109084744D01*
X158679774Y-109273102D01*
X158640000Y-109473061D01*
X149161960Y-109473061D01*
X149301898Y-109445226D01*
X149490256Y-109367205D01*
X149659774Y-109253937D01*
X149803937Y-109109774D01*
X149917205Y-108940256D01*
X149995226Y-108751898D01*
X150035000Y-108551939D01*
X150035000Y-108348061D01*
X149995226Y-108148102D01*
X149917205Y-107959744D01*
X149803937Y-107790226D01*
X149659774Y-107646063D01*
X149490256Y-107532795D01*
X149301898Y-107454774D01*
X149101939Y-107415000D01*
X148898061Y-107415000D01*
X148698102Y-107454774D01*
X148509744Y-107532795D01*
X148340226Y-107646063D01*
X148196063Y-107790226D01*
X148082795Y-107959744D01*
X148004774Y-108148102D01*
X147965000Y-108348061D01*
X141138104Y-108348061D01*
X141115256Y-108332795D01*
X140926898Y-108254774D01*
X140726939Y-108215000D01*
X140523061Y-108215000D01*
X140323102Y-108254774D01*
X140134744Y-108332795D01*
X139965226Y-108446063D01*
X139821063Y-108590226D01*
X139707795Y-108759744D01*
X139629774Y-108948102D01*
X139590000Y-109148061D01*
X138541898Y-109148061D01*
X138631515Y-109013940D01*
X138713304Y-108816483D01*
X138755000Y-108606863D01*
X138755000Y-108393137D01*
X138713304Y-108183517D01*
X138631515Y-107986060D01*
X138512775Y-107808353D01*
X138361647Y-107657225D01*
X138183940Y-107538485D01*
X137986483Y-107456696D01*
X137776863Y-107415000D01*
X137563137Y-107415000D01*
X137353517Y-107456696D01*
X137156060Y-107538485D01*
X136978353Y-107657225D01*
X136827225Y-107808353D01*
X136708485Y-107986060D01*
X136626696Y-108183517D01*
X136585000Y-108393137D01*
X136160000Y-108393137D01*
X136160000Y-105393137D01*
X136585000Y-105393137D01*
X136585000Y-105606863D01*
X136626696Y-105816483D01*
X136708485Y-106013940D01*
X136827225Y-106191647D01*
X136978353Y-106342775D01*
X137156060Y-106461515D01*
X137353517Y-106543304D01*
X137563137Y-106585000D01*
X137776863Y-106585000D01*
X137986483Y-106543304D01*
X138183940Y-106461515D01*
X138361647Y-106342775D01*
X138512775Y-106191647D01*
X138541898Y-106148061D01*
X154615000Y-106148061D01*
X154615000Y-106351939D01*
X154654774Y-106551898D01*
X154732795Y-106740256D01*
X154846063Y-106909774D01*
X154990226Y-107053937D01*
X155159744Y-107167205D01*
X155348102Y-107245226D01*
X155548061Y-107285000D01*
X155751939Y-107285000D01*
X155951898Y-107245226D01*
X156140256Y-107167205D01*
X156309774Y-107053937D01*
X156453937Y-106909774D01*
X156567205Y-106740256D01*
X156645226Y-106551898D01*
X156685000Y-106351939D01*
X156685000Y-106148061D01*
X156645226Y-105948102D01*
X156567205Y-105759744D01*
X156453937Y-105590226D01*
X156309774Y-105446063D01*
X156140256Y-105332795D01*
X155996047Y-105273061D01*
X178990000Y-105273061D01*
X178990000Y-105476939D01*
X179029774Y-105676898D01*
X179107795Y-105865256D01*
X179221063Y-106034774D01*
X179365226Y-106178937D01*
X179534744Y-106292205D01*
X179723102Y-106370226D01*
X179923061Y-106410000D01*
X180126939Y-106410000D01*
X180326898Y-106370226D01*
X180515256Y-106292205D01*
X180684774Y-106178937D01*
X180828937Y-106034774D01*
X180942205Y-105865256D01*
X181020226Y-105676898D01*
X181060000Y-105476939D01*
X181060000Y-105273061D01*
X181020226Y-105073102D01*
X180942205Y-104884744D01*
X180828937Y-104715226D01*
X180684774Y-104571063D01*
X180515256Y-104457795D01*
X180326898Y-104379774D01*
X180126939Y-104340000D01*
X179923061Y-104340000D01*
X179723102Y-104379774D01*
X179534744Y-104457795D01*
X179365226Y-104571063D01*
X179221063Y-104715226D01*
X179107795Y-104884744D01*
X179029774Y-105073102D01*
X178990000Y-105273061D01*
X155996047Y-105273061D01*
X155951898Y-105254774D01*
X155751939Y-105215000D01*
X155548061Y-105215000D01*
X155348102Y-105254774D01*
X155159744Y-105332795D01*
X154990226Y-105446063D01*
X154846063Y-105590226D01*
X154732795Y-105759744D01*
X154654774Y-105948102D01*
X154615000Y-106148061D01*
X138541898Y-106148061D01*
X138631515Y-106013940D01*
X138713304Y-105816483D01*
X138755000Y-105606863D01*
X138755000Y-105393137D01*
X138713304Y-105183517D01*
X138631515Y-104986060D01*
X138512775Y-104808353D01*
X138361647Y-104657225D01*
X138183940Y-104538485D01*
X137986483Y-104456696D01*
X137776863Y-104415000D01*
X137563137Y-104415000D01*
X137353517Y-104456696D01*
X137156060Y-104538485D01*
X136978353Y-104657225D01*
X136827225Y-104808353D01*
X136708485Y-104986060D01*
X136626696Y-105183517D01*
X136585000Y-105393137D01*
X136160000Y-105393137D01*
X136160000Y-104098061D01*
X182915000Y-104098061D01*
X182915000Y-104301939D01*
X182954774Y-104501898D01*
X183032795Y-104690256D01*
X183039306Y-104700000D01*
X183032795Y-104709744D01*
X182954774Y-104898102D01*
X182915000Y-105098061D01*
X182915000Y-105301939D01*
X182954774Y-105501898D01*
X183032795Y-105690256D01*
X183146063Y-105859774D01*
X183290226Y-106003937D01*
X183459744Y-106117205D01*
X183648102Y-106195226D01*
X183848061Y-106235000D01*
X184051939Y-106235000D01*
X184251898Y-106195226D01*
X184437500Y-106118347D01*
X184623102Y-106195226D01*
X184823061Y-106235000D01*
X185026939Y-106235000D01*
X185226898Y-106195226D01*
X185415256Y-106117205D01*
X185584774Y-106003937D01*
X185728937Y-105859774D01*
X185842205Y-105690256D01*
X185920226Y-105501898D01*
X185960000Y-105301939D01*
X185960000Y-105098061D01*
X185920226Y-104898102D01*
X185842205Y-104709744D01*
X185835694Y-104700000D01*
X185842205Y-104690256D01*
X185920226Y-104501898D01*
X185960000Y-104301939D01*
X185960000Y-104098061D01*
X185920226Y-103898102D01*
X185842205Y-103709744D01*
X185728937Y-103540226D01*
X185584774Y-103396063D01*
X185415256Y-103282795D01*
X185226898Y-103204774D01*
X185026939Y-103165000D01*
X184823061Y-103165000D01*
X184623102Y-103204774D01*
X184437500Y-103281653D01*
X184251898Y-103204774D01*
X184051939Y-103165000D01*
X183848061Y-103165000D01*
X183648102Y-103204774D01*
X183459744Y-103282795D01*
X183290226Y-103396063D01*
X183146063Y-103540226D01*
X183032795Y-103709744D01*
X182954774Y-103898102D01*
X182915000Y-104098061D01*
X136160000Y-104098061D01*
X136160000Y-98387496D01*
X136666735Y-99145879D01*
X137354121Y-99833265D01*
X138162401Y-100373340D01*
X139060514Y-100745350D01*
X140013945Y-100935000D01*
X140986055Y-100935000D01*
X141939486Y-100745350D01*
X142837599Y-100373340D01*
X143645879Y-99833265D01*
X144333265Y-99145879D01*
X144873340Y-98337599D01*
X145245350Y-97439486D01*
X145322678Y-97050732D01*
X145407926Y-97107693D01*
X145635402Y-97201917D01*
X145876890Y-97249952D01*
X146123110Y-97249952D01*
X146364598Y-97201917D01*
X146592074Y-97107693D01*
X146796798Y-96970901D01*
X146970901Y-96796798D01*
X147107693Y-96592074D01*
X147201917Y-96364598D01*
X147234824Y-96199162D01*
X150215000Y-96199162D01*
X150215000Y-96800837D01*
X150229976Y-96952894D01*
X150289159Y-97147992D01*
X150304817Y-97177287D01*
X150254774Y-97298102D01*
X150215000Y-97498061D01*
X150215000Y-97701939D01*
X150254774Y-97901898D01*
X150332795Y-98090256D01*
X150446063Y-98259774D01*
X150590226Y-98403937D01*
X150759744Y-98517205D01*
X150948102Y-98595226D01*
X151148061Y-98635000D01*
X151351939Y-98635000D01*
X151551898Y-98595226D01*
X151740256Y-98517205D01*
X151909774Y-98403937D01*
X152053937Y-98259774D01*
X152167205Y-98090256D01*
X152245226Y-97901898D01*
X152272917Y-97762686D01*
X152297105Y-97770024D01*
X152500000Y-97790007D01*
X152702894Y-97770024D01*
X152897992Y-97710841D01*
X153077797Y-97614734D01*
X153125000Y-97575996D01*
X153172203Y-97614734D01*
X153352007Y-97710841D01*
X153547105Y-97770024D01*
X153750000Y-97790007D01*
X153952894Y-97770024D01*
X154147992Y-97710841D01*
X154229406Y-97667324D01*
X154245506Y-97680537D01*
X154355820Y-97739502D01*
X154475518Y-97775812D01*
X154600000Y-97788072D01*
X154714250Y-97785000D01*
X154873000Y-97626250D01*
X154873000Y-96627000D01*
X155127000Y-96627000D01*
X155127000Y-97626250D01*
X155285750Y-97785000D01*
X155400000Y-97788072D01*
X155524482Y-97775812D01*
X155644180Y-97739502D01*
X155754494Y-97680537D01*
X155851185Y-97601185D01*
X155930537Y-97504494D01*
X155989502Y-97394180D01*
X156025812Y-97274482D01*
X156038072Y-97150000D01*
X156035000Y-96785750D01*
X155876250Y-96627000D01*
X155127000Y-96627000D01*
X154873000Y-96627000D01*
X154853000Y-96627000D01*
X154853000Y-96373000D01*
X154873000Y-96373000D01*
X154873000Y-95373750D01*
X155127000Y-95373750D01*
X155127000Y-96373000D01*
X155876250Y-96373000D01*
X156035000Y-96214250D01*
X156038072Y-95850000D01*
X156025812Y-95725518D01*
X155989502Y-95605820D01*
X155930537Y-95495506D01*
X155851185Y-95398815D01*
X155754494Y-95319463D01*
X155644180Y-95260498D01*
X155524482Y-95224188D01*
X155400000Y-95211928D01*
X155285750Y-95215000D01*
X155127000Y-95373750D01*
X154873000Y-95373750D01*
X154714250Y-95215000D01*
X154600000Y-95211928D01*
X154475518Y-95224188D01*
X154355820Y-95260498D01*
X154245506Y-95319463D01*
X154229407Y-95332675D01*
X154147993Y-95289159D01*
X153952895Y-95229976D01*
X153750000Y-95209993D01*
X153547106Y-95229976D01*
X153352008Y-95289159D01*
X153172204Y-95385266D01*
X153125001Y-95424005D01*
X153077797Y-95385266D01*
X152897993Y-95289159D01*
X152702895Y-95229976D01*
X152500000Y-95209993D01*
X152297106Y-95229976D01*
X152102008Y-95289159D01*
X151922204Y-95385266D01*
X151875001Y-95424005D01*
X151827797Y-95385266D01*
X151647993Y-95289159D01*
X151452895Y-95229976D01*
X151250000Y-95209993D01*
X151047106Y-95229976D01*
X150852008Y-95289159D01*
X150672204Y-95385266D01*
X150514605Y-95514604D01*
X150385267Y-95672203D01*
X150289159Y-95852007D01*
X150229976Y-96047105D01*
X150215000Y-96199162D01*
X147234824Y-96199162D01*
X147249952Y-96123110D01*
X147249952Y-95876890D01*
X147201917Y-95635402D01*
X147107693Y-95407926D01*
X146970901Y-95203202D01*
X146796798Y-95029099D01*
X146592074Y-94892307D01*
X146364598Y-94798083D01*
X146123110Y-94750048D01*
X145876890Y-94750048D01*
X145635402Y-94798083D01*
X145407926Y-94892307D01*
X145322678Y-94949268D01*
X145245350Y-94560514D01*
X144873340Y-93662401D01*
X144333265Y-92854121D01*
X143645879Y-92166735D01*
X142887496Y-91660000D01*
X161385201Y-91660000D01*
X161379774Y-91673102D01*
%TA.AperFunction,Conductor*%
D18*
G36*
X161379774Y-91673102D02*
G01*
X161340000Y-91873061D01*
X161340000Y-92076939D01*
X161379774Y-92276898D01*
X161457795Y-92465256D01*
X161571063Y-92634774D01*
X161715226Y-92778937D01*
X161884744Y-92892205D01*
X162073102Y-92970226D01*
X162273061Y-93010000D01*
X162476939Y-93010000D01*
X162676898Y-92970226D01*
X162865256Y-92892205D01*
X163034774Y-92778937D01*
X163178937Y-92634774D01*
X163292205Y-92465256D01*
X163370226Y-92276898D01*
X163410000Y-92076939D01*
X163410000Y-91873061D01*
X163370226Y-91673102D01*
X163364799Y-91660000D01*
X163920556Y-91660000D01*
X163904774Y-91698102D01*
X163865000Y-91898061D01*
X163865000Y-92101939D01*
X163904774Y-92301898D01*
X163982795Y-92490256D01*
X164096063Y-92659774D01*
X164240226Y-92803937D01*
X164409744Y-92917205D01*
X164598102Y-92995226D01*
X164798061Y-93035000D01*
X165001939Y-93035000D01*
X165201898Y-92995226D01*
X165390256Y-92917205D01*
X165550000Y-92810468D01*
X165709744Y-92917205D01*
X165898102Y-92995226D01*
X166098061Y-93035000D01*
X166301939Y-93035000D01*
X166501898Y-92995226D01*
X166690256Y-92917205D01*
X166859774Y-92803937D01*
X167003937Y-92659774D01*
X167117205Y-92490256D01*
X167195226Y-92301898D01*
X167235000Y-92101939D01*
X167235000Y-91898061D01*
X167195226Y-91698102D01*
X167179444Y-91660000D01*
X183112504Y-91660000D01*
X182354121Y-92166735D01*
X181666735Y-92854121D01*
X181126660Y-93662401D01*
X180754650Y-94560514D01*
X180677322Y-94949268D01*
X180592074Y-94892307D01*
X180364598Y-94798083D01*
X180123110Y-94750048D01*
X179876890Y-94750048D01*
X179635402Y-94798083D01*
X179407926Y-94892307D01*
X179203202Y-95029099D01*
X179029099Y-95203202D01*
X178892307Y-95407926D01*
X178798083Y-95635402D01*
X178750048Y-95876890D01*
X178750048Y-96123110D01*
X178798083Y-96364598D01*
X178892307Y-96592074D01*
X179029099Y-96796798D01*
X179203202Y-96970901D01*
X179407926Y-97107693D01*
X179635402Y-97201917D01*
X179876890Y-97249952D01*
X180123110Y-97249952D01*
X180364598Y-97201917D01*
X180592074Y-97107693D01*
X180677322Y-97050732D01*
X180754650Y-97439486D01*
X181126660Y-98337599D01*
X181666735Y-99145879D01*
X182354121Y-99833265D01*
X183162401Y-100373340D01*
X184060514Y-100745350D01*
X185013945Y-100935000D01*
X185986055Y-100935000D01*
X186939486Y-100745350D01*
X187837599Y-100373340D01*
X188645879Y-99833265D01*
X189333265Y-99145879D01*
X189840000Y-98387496D01*
X189840000Y-102011160D01*
X189772579Y-101955829D01*
X189571060Y-101848115D01*
X189352400Y-101781785D01*
X189181979Y-101765000D01*
X188218021Y-101765000D01*
X188047600Y-101781785D01*
X187828940Y-101848115D01*
X187627421Y-101955829D01*
X187450788Y-102100788D01*
X187305829Y-102277421D01*
X187198115Y-102478940D01*
X187131785Y-102697600D01*
X187109388Y-102925000D01*
X187131785Y-103152400D01*
X187198115Y-103371060D01*
X187305829Y-103572579D01*
X187450788Y-103749212D01*
X187627421Y-103894171D01*
X187828940Y-104001885D01*
X188047600Y-104068215D01*
X188218021Y-104085000D01*
X189181979Y-104085000D01*
X189352400Y-104068215D01*
X189571060Y-104001885D01*
X189772579Y-103894171D01*
X189840000Y-103838840D01*
X189840000Y-109161160D01*
X189772579Y-109105829D01*
X189571060Y-108998115D01*
X189352400Y-108931785D01*
X189181979Y-108915000D01*
X188218021Y-108915000D01*
X188047600Y-108931785D01*
X187828940Y-108998115D01*
X187627421Y-109105829D01*
X187450788Y-109250788D01*
X187305829Y-109427421D01*
X187198115Y-109628940D01*
X187131785Y-109847600D01*
X187109388Y-110075000D01*
X187131785Y-110302400D01*
X187198115Y-110521060D01*
X187305829Y-110722579D01*
X187450788Y-110899212D01*
X187627421Y-111044171D01*
X187828940Y-111151885D01*
X188047600Y-111218215D01*
X188218021Y-111235000D01*
X189181979Y-111235000D01*
X189352400Y-111218215D01*
X189571060Y-111151885D01*
X189772579Y-111044171D01*
X189840000Y-110988840D01*
X189840001Y-133612506D01*
X189333265Y-132854121D01*
X188645879Y-132166735D01*
X187837599Y-131626660D01*
X186939486Y-131254650D01*
X185986055Y-131065000D01*
X185013945Y-131065000D01*
X184060514Y-131254650D01*
X183162401Y-131626660D01*
X182354121Y-132166735D01*
X181666735Y-132854121D01*
X181126660Y-133662401D01*
X181070207Y-133798691D01*
X181045226Y-133673102D01*
X180967205Y-133484744D01*
X180853937Y-133315226D01*
X180709774Y-133171063D01*
X180540256Y-133057795D01*
X180351898Y-132979774D01*
X180151939Y-132940000D01*
X179948061Y-132940000D01*
X179748102Y-132979774D01*
X179559744Y-133057795D01*
X179390226Y-133171063D01*
X179246063Y-133315226D01*
X179132795Y-133484744D01*
X179054774Y-133673102D01*
X179046440Y-133715000D01*
X178998061Y-133715000D01*
X178798102Y-133754774D01*
X178609744Y-133832795D01*
X178440226Y-133946063D01*
X178296063Y-134090226D01*
X178182795Y-134259744D01*
X178104774Y-134448102D01*
X178065000Y-134648061D01*
X178065000Y-134851939D01*
X178104774Y-135051898D01*
X178182795Y-135240256D01*
X178296063Y-135409774D01*
X178440226Y-135553937D01*
X178609744Y-135667205D01*
X178798102Y-135745226D01*
X178998061Y-135785000D01*
X179201939Y-135785000D01*
X179401898Y-135745226D01*
X179590256Y-135667205D01*
X179759774Y-135553937D01*
X179903937Y-135409774D01*
X180017205Y-135240256D01*
X180095226Y-135051898D01*
X180103560Y-135010000D01*
X180151939Y-135010000D01*
X180351898Y-134970226D01*
X180540256Y-134892205D01*
X180709774Y-134778937D01*
X180711558Y-134777153D01*
X180565000Y-135513945D01*
X180565000Y-136486055D01*
X180754650Y-137439486D01*
X181126660Y-138337599D01*
X181666735Y-139145879D01*
X182354121Y-139833265D01*
X183112504Y-140340000D01*
X142887496Y-140340000D01*
X143645879Y-139833265D01*
X144333265Y-139145879D01*
X144565669Y-138798061D01*
X168990000Y-138798061D01*
X168990000Y-139001939D01*
X169029774Y-139201898D01*
X169107795Y-139390256D01*
X169221063Y-139559774D01*
X169365226Y-139703937D01*
X169534744Y-139817205D01*
X169723102Y-139895226D01*
X169923061Y-139935000D01*
X170126939Y-139935000D01*
X170326898Y-139895226D01*
X170515256Y-139817205D01*
X170684774Y-139703937D01*
X170828937Y-139559774D01*
X170942205Y-139390256D01*
X171020226Y-139201898D01*
X171060000Y-139001939D01*
X171060000Y-138798061D01*
X171022593Y-138610000D01*
X171126939Y-138610000D01*
X171326898Y-138570226D01*
X171515256Y-138492205D01*
X171684774Y-138378937D01*
X171715650Y-138348061D01*
X171915000Y-138348061D01*
X171915000Y-138551939D01*
X171954774Y-138751898D01*
X172032795Y-138940256D01*
X172146063Y-139109774D01*
X172290226Y-139253937D01*
X172459744Y-139367205D01*
X172648102Y-139445226D01*
X172848061Y-139485000D01*
X172903841Y-139485000D01*
X172957795Y-139615256D01*
X173071063Y-139784774D01*
X173215226Y-139928937D01*
X173384744Y-140042205D01*
X173573102Y-140120226D01*
X173773061Y-140160000D01*
X173976939Y-140160000D01*
X174176898Y-140120226D01*
X174365256Y-140042205D01*
X174534774Y-139928937D01*
X174678937Y-139784774D01*
X174792205Y-139615256D01*
X174870226Y-139426898D01*
X174910000Y-139226939D01*
X174910000Y-139023061D01*
X174870226Y-138823102D01*
X174792205Y-138634744D01*
X174678937Y-138465226D01*
X174534774Y-138321063D01*
X174365256Y-138207795D01*
X174176898Y-138129774D01*
X173976939Y-138090000D01*
X173921159Y-138090000D01*
X173867205Y-137959744D01*
X173753937Y-137790226D01*
X173609774Y-137646063D01*
X173440256Y-137532795D01*
X173251898Y-137454774D01*
X173051939Y-137415000D01*
X172848061Y-137415000D01*
X172648102Y-137454774D01*
X172459744Y-137532795D01*
X172290226Y-137646063D01*
X172146063Y-137790226D01*
X172032795Y-137959744D01*
X171954774Y-138148102D01*
X171915000Y-138348061D01*
X171715650Y-138348061D01*
X171828937Y-138234774D01*
X171942205Y-138065256D01*
X172020226Y-137876898D01*
X172060000Y-137676939D01*
X172060000Y-137473061D01*
X172020226Y-137273102D01*
X171942205Y-137084744D01*
X171828937Y-136915226D01*
X171684774Y-136771063D01*
X171515256Y-136657795D01*
X171326898Y-136579774D01*
X171126939Y-136540000D01*
X170923061Y-136540000D01*
X170723102Y-136579774D01*
X170534744Y-136657795D01*
X170365226Y-136771063D01*
X170221063Y-136915226D01*
X170107795Y-137084744D01*
X170029774Y-137273102D01*
X169990000Y-137473061D01*
X169990000Y-137676939D01*
X170027407Y-137865000D01*
X169923061Y-137865000D01*
X169723102Y-137904774D01*
X169534744Y-137982795D01*
X169365226Y-138096063D01*
X169221063Y-138240226D01*
X169107795Y-138409744D01*
X169029774Y-138598102D01*
X168990000Y-138798061D01*
X144565669Y-138798061D01*
X144873340Y-138337599D01*
X145245350Y-137439486D01*
X145322678Y-137050732D01*
X145407926Y-137107693D01*
X145635402Y-137201917D01*
X145876890Y-137249952D01*
X146123110Y-137249952D01*
X146364598Y-137201917D01*
X146592074Y-137107693D01*
X146796798Y-136970901D01*
X146970901Y-136796798D01*
X147107693Y-136592074D01*
X147201917Y-136364598D01*
X147244603Y-136150000D01*
X150461928Y-136150000D01*
X150474188Y-136274482D01*
X150510498Y-136394180D01*
X150569463Y-136504494D01*
X150648815Y-136601185D01*
X150745506Y-136680537D01*
X150855820Y-136739502D01*
X150975518Y-136775812D01*
X151100000Y-136788072D01*
X151214250Y-136785000D01*
X151373000Y-136626250D01*
X151373000Y-135627000D01*
X150623750Y-135627000D01*
X150465000Y-135785750D01*
X150461928Y-136150000D01*
X147244603Y-136150000D01*
X147249952Y-136123110D01*
X147249952Y-135876890D01*
X147201917Y-135635402D01*
X147107693Y-135407926D01*
X146970901Y-135203202D01*
X146796798Y-135029099D01*
X146592074Y-134892307D01*
X146489937Y-134850000D01*
X150461928Y-134850000D01*
X150465000Y-135214250D01*
X150623750Y-135373000D01*
X151373000Y-135373000D01*
X151373000Y-134373750D01*
X151627000Y-134373750D01*
X151627000Y-135373000D01*
X151647000Y-135373000D01*
X151647000Y-135627000D01*
X151627000Y-135627000D01*
X151627000Y-136626250D01*
X151785750Y-136785000D01*
X151900000Y-136788072D01*
X152024482Y-136775812D01*
X152144180Y-136739502D01*
X152254494Y-136680537D01*
X152270594Y-136667324D01*
X152352008Y-136710841D01*
X152547106Y-136770024D01*
X152750000Y-136790007D01*
X152952895Y-136770024D01*
X153147993Y-136710841D01*
X153327797Y-136614734D01*
X153375001Y-136575995D01*
X153422204Y-136614734D01*
X153602008Y-136710841D01*
X153797106Y-136770024D01*
X154000000Y-136790007D01*
X154202895Y-136770024D01*
X154397993Y-136710841D01*
X154577797Y-136614734D01*
X154625001Y-136575995D01*
X154672204Y-136614734D01*
X154852008Y-136710841D01*
X155047106Y-136770024D01*
X155250000Y-136790007D01*
X155452895Y-136770024D01*
X155647993Y-136710841D01*
X155827797Y-136614734D01*
X155985396Y-136485396D01*
X156114734Y-136327797D01*
X156210841Y-136147992D01*
X156270024Y-135952894D01*
X156285000Y-135800837D01*
X156285000Y-135199162D01*
X156270024Y-135047105D01*
X156210841Y-134852007D01*
X156114734Y-134672203D01*
X155985396Y-134514604D01*
X155827797Y-134385266D01*
X155647992Y-134289159D01*
X155452894Y-134229976D01*
X155250000Y-134209993D01*
X155047105Y-134229976D01*
X154852007Y-134289159D01*
X154672203Y-134385266D01*
X154625000Y-134424004D01*
X154577797Y-134385266D01*
X154397992Y-134289159D01*
X154202894Y-134229976D01*
X154000000Y-134209993D01*
X153797105Y-134229976D01*
X153602007Y-134289159D01*
X153422203Y-134385266D01*
X153375000Y-134424004D01*
X153327797Y-134385266D01*
X153147992Y-134289159D01*
X152952894Y-134229976D01*
X152750000Y-134209993D01*
X152547105Y-134229976D01*
X152352007Y-134289159D01*
X152270593Y-134332675D01*
X152254494Y-134319463D01*
X152144180Y-134260498D01*
X152024482Y-134224188D01*
X151900000Y-134211928D01*
X151785750Y-134215000D01*
X151627000Y-134373750D01*
X151373000Y-134373750D01*
X151214250Y-134215000D01*
X151100000Y-134211928D01*
X150975518Y-134224188D01*
X150855820Y-134260498D01*
X150745506Y-134319463D01*
X150648815Y-134398815D01*
X150569463Y-134495506D01*
X150510498Y-134605820D01*
X150474188Y-134725518D01*
X150461928Y-134850000D01*
X146489937Y-134850000D01*
X146364598Y-134798083D01*
X146123110Y-134750048D01*
X145876890Y-134750048D01*
X145635402Y-134798083D01*
X145407926Y-134892307D01*
X145322678Y-134949268D01*
X145245350Y-134560514D01*
X144873340Y-133662401D01*
X144847054Y-133623061D01*
X169015000Y-133623061D01*
X169015000Y-133826939D01*
X169054774Y-134026898D01*
X169132795Y-134215256D01*
X169246063Y-134384774D01*
X169390226Y-134528937D01*
X169559744Y-134642205D01*
X169748102Y-134720226D01*
X169948061Y-134760000D01*
X170151939Y-134760000D01*
X170351898Y-134720226D01*
X170540256Y-134642205D01*
X170709774Y-134528937D01*
X170853937Y-134384774D01*
X170967205Y-134215256D01*
X171045226Y-134026898D01*
X171085000Y-133826939D01*
X171085000Y-133623061D01*
X171045226Y-133423102D01*
X170967205Y-133234744D01*
X170853937Y-133065226D01*
X170736772Y-132948061D01*
X173515000Y-132948061D01*
X173515000Y-133151939D01*
X173554774Y-133351898D01*
X173632795Y-133540256D01*
X173746063Y-133709774D01*
X173890226Y-133853937D01*
X174059744Y-133967205D01*
X174248102Y-134045226D01*
X174448061Y-134085000D01*
X174651939Y-134085000D01*
X174851898Y-134045226D01*
X175040256Y-133967205D01*
X175209774Y-133853937D01*
X175353937Y-133709774D01*
X175467205Y-133540256D01*
X175545226Y-133351898D01*
X175585000Y-133151939D01*
X175585000Y-132948061D01*
X175545226Y-132748102D01*
X175467205Y-132559744D01*
X175353937Y-132390226D01*
X175209774Y-132246063D01*
X175040256Y-132132795D01*
X174851898Y-132054774D01*
X174651939Y-132015000D01*
X174448061Y-132015000D01*
X174248102Y-132054774D01*
X174059744Y-132132795D01*
X173890226Y-132246063D01*
X173746063Y-132390226D01*
X173632795Y-132559744D01*
X173554774Y-132748102D01*
X173515000Y-132948061D01*
X170736772Y-132948061D01*
X170709774Y-132921063D01*
X170540256Y-132807795D01*
X170351898Y-132729774D01*
X170151939Y-132690000D01*
X169948061Y-132690000D01*
X169748102Y-132729774D01*
X169559744Y-132807795D01*
X169390226Y-132921063D01*
X169246063Y-133065226D01*
X169132795Y-133234744D01*
X169054774Y-133423102D01*
X169015000Y-133623061D01*
X144847054Y-133623061D01*
X144333265Y-132854121D01*
X143645879Y-132166735D01*
X142837599Y-131626660D01*
X141939486Y-131254650D01*
X140986055Y-131065000D01*
X140013945Y-131065000D01*
X139060514Y-131254650D01*
X138162401Y-131626660D01*
X137354121Y-132166735D01*
X136666735Y-132854121D01*
X136160000Y-133612504D01*
X136160000Y-128498061D01*
X179040000Y-128498061D01*
X179040000Y-128701939D01*
X179079774Y-128901898D01*
X179157795Y-129090256D01*
X179271063Y-129259774D01*
X179415226Y-129403937D01*
X179584744Y-129517205D01*
X179773102Y-129595226D01*
X179973061Y-129635000D01*
X180176939Y-129635000D01*
X180376898Y-129595226D01*
X180565256Y-129517205D01*
X180734774Y-129403937D01*
X180878937Y-129259774D01*
X180992205Y-129090256D01*
X181070226Y-128901898D01*
X181110000Y-128701939D01*
X181110000Y-128498061D01*
X181070226Y-128298102D01*
X180992205Y-128109744D01*
X180878937Y-127940226D01*
X180734774Y-127796063D01*
X180565256Y-127682795D01*
X180376898Y-127604774D01*
X180176939Y-127565000D01*
X179973061Y-127565000D01*
X179773102Y-127604774D01*
X179584744Y-127682795D01*
X179415226Y-127796063D01*
X179271063Y-127940226D01*
X179157795Y-128109744D01*
X179079774Y-128298102D01*
X179040000Y-128498061D01*
X136160000Y-128498061D01*
X136160000Y-126298061D01*
X164940000Y-126298061D01*
X164940000Y-126501939D01*
X164979774Y-126701898D01*
X165057795Y-126890256D01*
X165171063Y-127059774D01*
X165315226Y-127203937D01*
X165484744Y-127317205D01*
X165673102Y-127395226D01*
X165873061Y-127435000D01*
X166076939Y-127435000D01*
X166276898Y-127395226D01*
X166465256Y-127317205D01*
X166634774Y-127203937D01*
X166778937Y-127059774D01*
X166858296Y-126941005D01*
X166971063Y-127109774D01*
X167115226Y-127253937D01*
X167284744Y-127367205D01*
X167473102Y-127445226D01*
X167673061Y-127485000D01*
X167876939Y-127485000D01*
X168076898Y-127445226D01*
X168265256Y-127367205D01*
X168434774Y-127253937D01*
X168578937Y-127109774D01*
X168692205Y-126940256D01*
X168770226Y-126751898D01*
X168810000Y-126551939D01*
X168810000Y-126348061D01*
X168770226Y-126148102D01*
X168692205Y-125959744D01*
X168578937Y-125790226D01*
X168434774Y-125646063D01*
X168265256Y-125532795D01*
X168076898Y-125454774D01*
X167885000Y-125416603D01*
X167885000Y-125323061D01*
X167845226Y-125123102D01*
X167767205Y-124934744D01*
X167653937Y-124765226D01*
X167509774Y-124621063D01*
X167340256Y-124507795D01*
X167151898Y-124429774D01*
X166951939Y-124390000D01*
X166748061Y-124390000D01*
X166548102Y-124429774D01*
X166359744Y-124507795D01*
X166190226Y-124621063D01*
X166046063Y-124765226D01*
X165932795Y-124934744D01*
X165854774Y-125123102D01*
X165815000Y-125323061D01*
X165815000Y-125376549D01*
X165673102Y-125404774D01*
X165484744Y-125482795D01*
X165315226Y-125596063D01*
X165171063Y-125740226D01*
X165057795Y-125909744D01*
X164979774Y-126098102D01*
X164940000Y-126298061D01*
X136160000Y-126298061D01*
X136160000Y-123948061D01*
X149215000Y-123948061D01*
X149215000Y-124151939D01*
X149254774Y-124351898D01*
X149332795Y-124540256D01*
X149446063Y-124709774D01*
X149590226Y-124853937D01*
X149759744Y-124967205D01*
X149948102Y-125045226D01*
X150148061Y-125085000D01*
X150351939Y-125085000D01*
X150551898Y-125045226D01*
X150665763Y-124998061D01*
X157365000Y-124998061D01*
X157365000Y-125201939D01*
X157404774Y-125401898D01*
X157482795Y-125590256D01*
X157596063Y-125759774D01*
X157740226Y-125903937D01*
X157909744Y-126017205D01*
X158098102Y-126095226D01*
X158298061Y-126135000D01*
X158501939Y-126135000D01*
X158701898Y-126095226D01*
X158890256Y-126017205D01*
X159059774Y-125903937D01*
X159203937Y-125759774D01*
X159317205Y-125590256D01*
X159395226Y-125401898D01*
X159435000Y-125201939D01*
X159435000Y-124998061D01*
X159395226Y-124798102D01*
X159317205Y-124609744D01*
X159203937Y-124440226D01*
X159202586Y-124438875D01*
X159315256Y-124392205D01*
X159484774Y-124278937D01*
X159615650Y-124148061D01*
X173390000Y-124148061D01*
X173390000Y-124351939D01*
X173429774Y-124551898D01*
X173507795Y-124740256D01*
X173621063Y-124909774D01*
X173765226Y-125053937D01*
X173934744Y-125167205D01*
X174123102Y-125245226D01*
X174209945Y-125262500D01*
X174123102Y-125279774D01*
X173934744Y-125357795D01*
X173765226Y-125471063D01*
X173621063Y-125615226D01*
X173507795Y-125784744D01*
X173429774Y-125973102D01*
X173390000Y-126173061D01*
X173390000Y-126376939D01*
X173429774Y-126576898D01*
X173507795Y-126765256D01*
X173621063Y-126934774D01*
X173765226Y-127078937D01*
X173934744Y-127192205D01*
X174123102Y-127270226D01*
X174323061Y-127310000D01*
X174526939Y-127310000D01*
X174726898Y-127270226D01*
X174915256Y-127192205D01*
X175084774Y-127078937D01*
X175228937Y-126934774D01*
X175342205Y-126765256D01*
X175420226Y-126576898D01*
X175460000Y-126376939D01*
X175460000Y-126173061D01*
X175420226Y-125973102D01*
X175342205Y-125784744D01*
X175228937Y-125615226D01*
X175084774Y-125471063D01*
X174915256Y-125357795D01*
X174775728Y-125300000D01*
X183161928Y-125300000D01*
X183161928Y-127700000D01*
X183174188Y-127824482D01*
X183210498Y-127944180D01*
X183269463Y-128054494D01*
X183348815Y-128151185D01*
X183445506Y-128230537D01*
X183555820Y-128289502D01*
X183675518Y-128325812D01*
X183800000Y-128338072D01*
X186200000Y-128338072D01*
X186324482Y-128325812D01*
X186444180Y-128289502D01*
X186554494Y-128230537D01*
X186651185Y-128151185D01*
X186730537Y-128054494D01*
X186789502Y-127944180D01*
X186825812Y-127824482D01*
X186838072Y-127700000D01*
X186838072Y-125300000D01*
X186825812Y-125175518D01*
X186789502Y-125055820D01*
X186730537Y-124945506D01*
X186651185Y-124848815D01*
X186554494Y-124769463D01*
X186444180Y-124710498D01*
X186324482Y-124674188D01*
X186200000Y-124661928D01*
X185782838Y-124661928D01*
X185869199Y-124626156D01*
X186169744Y-124425338D01*
X186425338Y-124169744D01*
X186626156Y-123869199D01*
X186764482Y-123535250D01*
X186835000Y-123180732D01*
X186835000Y-122819268D01*
X186764482Y-122464750D01*
X186626156Y-122130801D01*
X186425338Y-121830256D01*
X186169744Y-121574662D01*
X185869199Y-121373844D01*
X185535250Y-121235518D01*
X185180732Y-121165000D01*
X184819268Y-121165000D01*
X184464750Y-121235518D01*
X184130801Y-121373844D01*
X183830256Y-121574662D01*
X183574662Y-121830256D01*
X183373844Y-122130801D01*
X183235518Y-122464750D01*
X183165000Y-122819268D01*
X183165000Y-123180732D01*
X183235518Y-123535250D01*
X183373844Y-123869199D01*
X183574662Y-124169744D01*
X183830256Y-124425338D01*
X184130801Y-124626156D01*
X184217162Y-124661928D01*
X183800000Y-124661928D01*
X183675518Y-124674188D01*
X183555820Y-124710498D01*
X183445506Y-124769463D01*
X183348815Y-124848815D01*
X183269463Y-124945506D01*
X183210498Y-125055820D01*
X183174188Y-125175518D01*
X183161928Y-125300000D01*
X174775728Y-125300000D01*
X174726898Y-125279774D01*
X174640055Y-125262500D01*
X174726898Y-125245226D01*
X174915256Y-125167205D01*
X175084774Y-125053937D01*
X175228937Y-124909774D01*
X175342205Y-124740256D01*
X175420226Y-124551898D01*
X175460000Y-124351939D01*
X175460000Y-124148061D01*
X175450055Y-124098061D01*
X175515000Y-124098061D01*
X175515000Y-124301939D01*
X175554774Y-124501898D01*
X175632795Y-124690256D01*
X175746063Y-124859774D01*
X175890226Y-125003937D01*
X176059744Y-125117205D01*
X176248102Y-125195226D01*
X176448061Y-125235000D01*
X176651939Y-125235000D01*
X176851898Y-125195226D01*
X177040256Y-125117205D01*
X177209774Y-125003937D01*
X177353937Y-124859774D01*
X177467205Y-124690256D01*
X177545226Y-124501898D01*
X177585000Y-124301939D01*
X177585000Y-124098061D01*
X177545226Y-123898102D01*
X177467205Y-123709744D01*
X177353937Y-123540226D01*
X177209774Y-123396063D01*
X177040256Y-123282795D01*
X176851898Y-123204774D01*
X176651939Y-123165000D01*
X176448061Y-123165000D01*
X176248102Y-123204774D01*
X176059744Y-123282795D01*
X175890226Y-123396063D01*
X175746063Y-123540226D01*
X175632795Y-123709744D01*
X175554774Y-123898102D01*
X175515000Y-124098061D01*
X175450055Y-124098061D01*
X175420226Y-123948102D01*
X175342205Y-123759744D01*
X175228937Y-123590226D01*
X175084774Y-123446063D01*
X174915256Y-123332795D01*
X174726898Y-123254774D01*
X174526939Y-123215000D01*
X174323061Y-123215000D01*
X174123102Y-123254774D01*
X173934744Y-123332795D01*
X173765226Y-123446063D01*
X173621063Y-123590226D01*
X173507795Y-123759744D01*
X173429774Y-123948102D01*
X173390000Y-124148061D01*
X159615650Y-124148061D01*
X159628937Y-124134774D01*
X159742205Y-123965256D01*
X159820226Y-123776898D01*
X159860000Y-123576939D01*
X159860000Y-123373061D01*
X159820226Y-123173102D01*
X159742205Y-122984744D01*
X159628937Y-122815226D01*
X159484774Y-122671063D01*
X159315256Y-122557795D01*
X159126898Y-122479774D01*
X158926939Y-122440000D01*
X158723061Y-122440000D01*
X158523102Y-122479774D01*
X158334744Y-122557795D01*
X158165226Y-122671063D01*
X158021063Y-122815226D01*
X157907795Y-122984744D01*
X157829774Y-123173102D01*
X157790000Y-123373061D01*
X157790000Y-123576939D01*
X157829774Y-123776898D01*
X157907795Y-123965256D01*
X158021063Y-124134774D01*
X158022414Y-124136125D01*
X157909744Y-124182795D01*
X157740226Y-124296063D01*
X157596063Y-124440226D01*
X157482795Y-124609744D01*
X157404774Y-124798102D01*
X157365000Y-124998061D01*
X150665763Y-124998061D01*
X150740256Y-124967205D01*
X150909774Y-124853937D01*
X151053937Y-124709774D01*
X151167205Y-124540256D01*
X151245226Y-124351898D01*
X151285000Y-124151939D01*
X151285000Y-123948061D01*
X151245226Y-123748102D01*
X151167205Y-123559744D01*
X151053937Y-123390226D01*
X150909774Y-123246063D01*
X150740256Y-123132795D01*
X150551898Y-123054774D01*
X150351939Y-123015000D01*
X150148061Y-123015000D01*
X149948102Y-123054774D01*
X149759744Y-123132795D01*
X149590226Y-123246063D01*
X149446063Y-123390226D01*
X149332795Y-123559744D01*
X149254774Y-123748102D01*
X149215000Y-123948061D01*
X136160000Y-123948061D01*
X136160000Y-122298061D01*
X144290000Y-122298061D01*
X144290000Y-122501939D01*
X144329774Y-122701898D01*
X144407795Y-122890256D01*
X144521063Y-123059774D01*
X144665226Y-123203937D01*
X144834744Y-123317205D01*
X145023102Y-123395226D01*
X145223061Y-123435000D01*
X145426939Y-123435000D01*
X145626898Y-123395226D01*
X145815256Y-123317205D01*
X145984774Y-123203937D01*
X146128937Y-123059774D01*
X146242205Y-122890256D01*
X146320226Y-122701898D01*
X146360000Y-122501939D01*
X146360000Y-122298061D01*
X146320226Y-122098102D01*
X146242205Y-121909744D01*
X146128937Y-121740226D01*
X145984774Y-121596063D01*
X145815256Y-121482795D01*
X145626898Y-121404774D01*
X145426939Y-121365000D01*
X145223061Y-121365000D01*
X145023102Y-121404774D01*
X144834744Y-121482795D01*
X144665226Y-121596063D01*
X144521063Y-121740226D01*
X144407795Y-121909744D01*
X144329774Y-122098102D01*
X144290000Y-122298061D01*
X136160000Y-122298061D01*
X136160000Y-117923061D01*
X140190000Y-117923061D01*
X140190000Y-118126939D01*
X140229774Y-118326898D01*
X140307795Y-118515256D01*
X140421063Y-118684774D01*
X140565226Y-118828937D01*
X140734744Y-118942205D01*
X140923102Y-119020226D01*
X141123061Y-119060000D01*
X141190000Y-119060000D01*
X141190000Y-119251939D01*
X141229774Y-119451898D01*
X141307795Y-119640256D01*
X141421063Y-119809774D01*
X141565226Y-119953937D01*
X141734744Y-120067205D01*
X141923102Y-120145226D01*
X142123061Y-120185000D01*
X142326939Y-120185000D01*
X142526898Y-120145226D01*
X142715256Y-120067205D01*
X142884774Y-119953937D01*
X143028937Y-119809774D01*
X143142205Y-119640256D01*
X143220226Y-119451898D01*
X143255798Y-119273061D01*
X143790000Y-119273061D01*
X143790000Y-119476939D01*
X143829774Y-119676898D01*
X143907795Y-119865256D01*
X144021063Y-120034774D01*
X144165226Y-120178937D01*
X144334744Y-120292205D01*
X144523102Y-120370226D01*
X144723061Y-120410000D01*
X144926939Y-120410000D01*
X145126898Y-120370226D01*
X145315256Y-120292205D01*
X145484774Y-120178937D01*
X145628937Y-120034774D01*
X145742205Y-119865256D01*
X145820226Y-119676898D01*
X145860000Y-119476939D01*
X145860000Y-119273061D01*
X145820226Y-119073102D01*
X145742205Y-118884744D01*
X145628937Y-118715226D01*
X145484774Y-118571063D01*
X145430802Y-118535000D01*
X145617179Y-118535000D01*
X145817138Y-118495226D01*
X146005496Y-118417205D01*
X146175014Y-118303937D01*
X146302928Y-118176023D01*
X146348061Y-118185000D01*
X146551939Y-118185000D01*
X146751898Y-118145226D01*
X146940256Y-118067205D01*
X147109774Y-117953937D01*
X147253937Y-117809774D01*
X147367205Y-117640256D01*
X147445226Y-117451898D01*
X147485000Y-117251939D01*
X147485000Y-117048061D01*
X147445226Y-116848102D01*
X147367205Y-116659744D01*
X147253937Y-116490226D01*
X147109774Y-116346063D01*
X146940256Y-116232795D01*
X146751898Y-116154774D01*
X146551939Y-116115000D01*
X146348061Y-116115000D01*
X146148102Y-116154774D01*
X145959744Y-116232795D01*
X145790226Y-116346063D01*
X145662312Y-116473977D01*
X145617179Y-116465000D01*
X145413301Y-116465000D01*
X145213342Y-116504774D01*
X145024984Y-116582795D01*
X144855466Y-116696063D01*
X144711303Y-116840226D01*
X144598035Y-117009744D01*
X144520014Y-117198102D01*
X144480240Y-117398061D01*
X144480240Y-117601939D01*
X144520014Y-117801898D01*
X144598035Y-117990256D01*
X144711303Y-118159774D01*
X144855466Y-118303937D01*
X144909438Y-118340000D01*
X144723061Y-118340000D01*
X144523102Y-118379774D01*
X144334744Y-118457795D01*
X144165226Y-118571063D01*
X144021063Y-118715226D01*
X143907795Y-118884744D01*
X143829774Y-119073102D01*
X143790000Y-119273061D01*
X143255798Y-119273061D01*
X143260000Y-119251939D01*
X143260000Y-119048061D01*
X143220226Y-118848102D01*
X143142205Y-118659744D01*
X143028937Y-118490226D01*
X142884774Y-118346063D01*
X142715256Y-118232795D01*
X142526898Y-118154774D01*
X142326939Y-118115000D01*
X142260000Y-118115000D01*
X142260000Y-117923061D01*
X142220226Y-117723102D01*
X142142205Y-117534744D01*
X142028937Y-117365226D01*
X141884774Y-117221063D01*
X141715256Y-117107795D01*
X141526898Y-117029774D01*
X141326939Y-116990000D01*
X141123061Y-116990000D01*
X140923102Y-117029774D01*
X140734744Y-117107795D01*
X140565226Y-117221063D01*
X140421063Y-117365226D01*
X140307795Y-117534744D01*
X140229774Y-117723102D01*
X140190000Y-117923061D01*
X136160000Y-117923061D01*
X136160000Y-115132936D01*
X148673934Y-115132936D01*
X148673934Y-115336814D01*
X148713708Y-115536773D01*
X148791729Y-115725131D01*
X148904997Y-115894649D01*
X149049160Y-116038812D01*
X149218678Y-116152080D01*
X149407036Y-116230101D01*
X149606995Y-116269875D01*
X149810873Y-116269875D01*
X150010832Y-116230101D01*
X150199190Y-116152080D01*
X150368708Y-116038812D01*
X150512871Y-115894649D01*
X150626139Y-115725131D01*
X150704160Y-115536773D01*
X150743934Y-115336814D01*
X150743934Y-115132936D01*
X150704160Y-114932977D01*
X150626139Y-114744619D01*
X150512871Y-114575101D01*
X150368708Y-114430938D01*
X150199190Y-114317670D01*
X150010832Y-114239649D01*
X149810873Y-114199875D01*
X149606995Y-114199875D01*
X149407036Y-114239649D01*
X149218678Y-114317670D01*
X149049160Y-114430938D01*
X148904997Y-114575101D01*
X148791729Y-114744619D01*
X148713708Y-114932977D01*
X148673934Y-115132936D01*
X136160000Y-115132936D01*
X136160000Y-113198061D01*
X144665000Y-113198061D01*
X144665000Y-113401939D01*
X144704774Y-113601898D01*
X144782795Y-113790256D01*
X144896063Y-113959774D01*
X145040226Y-114103937D01*
X145209744Y-114217205D01*
X145398102Y-114295226D01*
X145598061Y-114335000D01*
X145801939Y-114335000D01*
X146001898Y-114295226D01*
X146190256Y-114217205D01*
X146359774Y-114103937D01*
X146503937Y-113959774D01*
X146617205Y-113790256D01*
X146695226Y-113601898D01*
X146735000Y-113401939D01*
X146735000Y-113198061D01*
X146695226Y-112998102D01*
X146617205Y-112809744D01*
X146503937Y-112640226D01*
X146359774Y-112496063D01*
X146190256Y-112382795D01*
X146001898Y-112304774D01*
X145801939Y-112265000D01*
X145598061Y-112265000D01*
X145398102Y-112304774D01*
X145209744Y-112382795D01*
X145040226Y-112496063D01*
X144896063Y-112640226D01*
X144782795Y-112809744D01*
X144704774Y-112998102D01*
X144665000Y-113198061D01*
X136160000Y-113198061D01*
X136160000Y-111148061D01*
X146165000Y-111148061D01*
X146165000Y-111351939D01*
X146204774Y-111551898D01*
X146282795Y-111740256D01*
X146396063Y-111909774D01*
X146540226Y-112053937D01*
X146709744Y-112167205D01*
X146898102Y-112245226D01*
X147098061Y-112285000D01*
X147301939Y-112285000D01*
X147501898Y-112245226D01*
X147690256Y-112167205D01*
X147859774Y-112053937D01*
X148003937Y-111909774D01*
X148117205Y-111740256D01*
X148195226Y-111551898D01*
X148235000Y-111351939D01*
X148235000Y-111148061D01*
X148195226Y-110948102D01*
X148117205Y-110759744D01*
X148003937Y-110590226D01*
X147859774Y-110446063D01*
X147690256Y-110332795D01*
X147501898Y-110254774D01*
X147301939Y-110215000D01*
X147098061Y-110215000D01*
X146898102Y-110254774D01*
X146709744Y-110332795D01*
X146540226Y-110446063D01*
X146396063Y-110590226D01*
X146282795Y-110759744D01*
X146204774Y-110948102D01*
X146165000Y-111148061D01*
X136160000Y-111148061D01*
X136160000Y-108393137D01*
X136585000Y-108393137D01*
X136585000Y-108606863D01*
X136626696Y-108816483D01*
X136708485Y-109013940D01*
X136827225Y-109191647D01*
X136978353Y-109342775D01*
X137156060Y-109461515D01*
X137353517Y-109543304D01*
X137563137Y-109585000D01*
X137776863Y-109585000D01*
X137986483Y-109543304D01*
X138183940Y-109461515D01*
X138361647Y-109342775D01*
X138512775Y-109191647D01*
X138541898Y-109148061D01*
X139590000Y-109148061D01*
X139590000Y-109351939D01*
X139629774Y-109551898D01*
X139707795Y-109740256D01*
X139821063Y-109909774D01*
X139965226Y-110053937D01*
X140134744Y-110167205D01*
X140323102Y-110245226D01*
X140523061Y-110285000D01*
X140726939Y-110285000D01*
X140926898Y-110245226D01*
X141115256Y-110167205D01*
X141284774Y-110053937D01*
X141428937Y-109909774D01*
X141503581Y-109798061D01*
X144215000Y-109798061D01*
X144215000Y-110001939D01*
X144254774Y-110201898D01*
X144332795Y-110390256D01*
X144446063Y-110559774D01*
X144590226Y-110703937D01*
X144759744Y-110817205D01*
X144948102Y-110895226D01*
X145148061Y-110935000D01*
X145351939Y-110935000D01*
X145551898Y-110895226D01*
X145740256Y-110817205D01*
X145909774Y-110703937D01*
X146053937Y-110559774D01*
X146167205Y-110390256D01*
X146245226Y-110201898D01*
X146285000Y-110001939D01*
X146285000Y-109798061D01*
X146245226Y-109598102D01*
X146167205Y-109409744D01*
X146053937Y-109240226D01*
X145909774Y-109096063D01*
X145740256Y-108982795D01*
X145551898Y-108904774D01*
X145351939Y-108865000D01*
X145148061Y-108865000D01*
X144948102Y-108904774D01*
X144759744Y-108982795D01*
X144590226Y-109096063D01*
X144446063Y-109240226D01*
X144332795Y-109409744D01*
X144254774Y-109598102D01*
X144215000Y-109798061D01*
X141503581Y-109798061D01*
X141542205Y-109740256D01*
X141620226Y-109551898D01*
X141660000Y-109351939D01*
X141660000Y-109148061D01*
X141620226Y-108948102D01*
X141542205Y-108759744D01*
X141428937Y-108590226D01*
X141284774Y-108446063D01*
X141138104Y-108348061D01*
X147965000Y-108348061D01*
X147965000Y-108551939D01*
X148004774Y-108751898D01*
X148082795Y-108940256D01*
X148196063Y-109109774D01*
X148340226Y-109253937D01*
X148509744Y-109367205D01*
X148698102Y-109445226D01*
X148898061Y-109485000D01*
X149101939Y-109485000D01*
X149161960Y-109473061D01*
X158640000Y-109473061D01*
X158640000Y-109676939D01*
X158679774Y-109876898D01*
X158757795Y-110065256D01*
X158871063Y-110234774D01*
X159015226Y-110378937D01*
X159184744Y-110492205D01*
X159373102Y-110570226D01*
X159573061Y-110610000D01*
X159776939Y-110610000D01*
X159976898Y-110570226D01*
X160165256Y-110492205D01*
X160334774Y-110378937D01*
X160478937Y-110234774D01*
X160592205Y-110065256D01*
X160660355Y-109900728D01*
X160707795Y-110015256D01*
X160821063Y-110184774D01*
X160965226Y-110328937D01*
X161134744Y-110442205D01*
X161323102Y-110520226D01*
X161495485Y-110554515D01*
X161529774Y-110726898D01*
X161607795Y-110915256D01*
X161721063Y-111084774D01*
X161865226Y-111228937D01*
X162034744Y-111342205D01*
X162223102Y-111420226D01*
X162423061Y-111460000D01*
X162626939Y-111460000D01*
X162826898Y-111420226D01*
X163015256Y-111342205D01*
X163184774Y-111228937D01*
X163328937Y-111084774D01*
X163442205Y-110915256D01*
X163520226Y-110726898D01*
X163560000Y-110526939D01*
X163560000Y-110323061D01*
X163520226Y-110123102D01*
X163442205Y-109934744D01*
X163328937Y-109765226D01*
X163184774Y-109621063D01*
X163015256Y-109507795D01*
X162826898Y-109429774D01*
X162654515Y-109395485D01*
X162620226Y-109223102D01*
X162542205Y-109034744D01*
X162428937Y-108865226D01*
X162284774Y-108721063D01*
X162115256Y-108607795D01*
X161926898Y-108529774D01*
X161726939Y-108490000D01*
X161523061Y-108490000D01*
X161323102Y-108529774D01*
X161134744Y-108607795D01*
X160965226Y-108721063D01*
X160821063Y-108865226D01*
X160707795Y-109034744D01*
X160639645Y-109199272D01*
X160592205Y-109084744D01*
X160478937Y-108915226D01*
X160334774Y-108771063D01*
X160165256Y-108657795D01*
X159976898Y-108579774D01*
X159776939Y-108540000D01*
X159573061Y-108540000D01*
X159373102Y-108579774D01*
X159184744Y-108657795D01*
X159015226Y-108771063D01*
X158871063Y-108915226D01*
X158757795Y-109084744D01*
X158679774Y-109273102D01*
X158640000Y-109473061D01*
X149161960Y-109473061D01*
X149301898Y-109445226D01*
X149490256Y-109367205D01*
X149659774Y-109253937D01*
X149803937Y-109109774D01*
X149917205Y-108940256D01*
X149995226Y-108751898D01*
X150035000Y-108551939D01*
X150035000Y-108348061D01*
X149995226Y-108148102D01*
X149917205Y-107959744D01*
X149803937Y-107790226D01*
X149659774Y-107646063D01*
X149490256Y-107532795D01*
X149301898Y-107454774D01*
X149101939Y-107415000D01*
X148898061Y-107415000D01*
X148698102Y-107454774D01*
X148509744Y-107532795D01*
X148340226Y-107646063D01*
X148196063Y-107790226D01*
X148082795Y-107959744D01*
X148004774Y-108148102D01*
X147965000Y-108348061D01*
X141138104Y-108348061D01*
X141115256Y-108332795D01*
X140926898Y-108254774D01*
X140726939Y-108215000D01*
X140523061Y-108215000D01*
X140323102Y-108254774D01*
X140134744Y-108332795D01*
X139965226Y-108446063D01*
X139821063Y-108590226D01*
X139707795Y-108759744D01*
X139629774Y-108948102D01*
X139590000Y-109148061D01*
X138541898Y-109148061D01*
X138631515Y-109013940D01*
X138713304Y-108816483D01*
X138755000Y-108606863D01*
X138755000Y-108393137D01*
X138713304Y-108183517D01*
X138631515Y-107986060D01*
X138512775Y-107808353D01*
X138361647Y-107657225D01*
X138183940Y-107538485D01*
X137986483Y-107456696D01*
X137776863Y-107415000D01*
X137563137Y-107415000D01*
X137353517Y-107456696D01*
X137156060Y-107538485D01*
X136978353Y-107657225D01*
X136827225Y-107808353D01*
X136708485Y-107986060D01*
X136626696Y-108183517D01*
X136585000Y-108393137D01*
X136160000Y-108393137D01*
X136160000Y-105393137D01*
X136585000Y-105393137D01*
X136585000Y-105606863D01*
X136626696Y-105816483D01*
X136708485Y-106013940D01*
X136827225Y-106191647D01*
X136978353Y-106342775D01*
X137156060Y-106461515D01*
X137353517Y-106543304D01*
X137563137Y-106585000D01*
X137776863Y-106585000D01*
X137986483Y-106543304D01*
X138183940Y-106461515D01*
X138361647Y-106342775D01*
X138512775Y-106191647D01*
X138541898Y-106148061D01*
X154615000Y-106148061D01*
X154615000Y-106351939D01*
X154654774Y-106551898D01*
X154732795Y-106740256D01*
X154846063Y-106909774D01*
X154990226Y-107053937D01*
X155159744Y-107167205D01*
X155348102Y-107245226D01*
X155548061Y-107285000D01*
X155751939Y-107285000D01*
X155951898Y-107245226D01*
X156140256Y-107167205D01*
X156309774Y-107053937D01*
X156453937Y-106909774D01*
X156567205Y-106740256D01*
X156645226Y-106551898D01*
X156685000Y-106351939D01*
X156685000Y-106148061D01*
X156645226Y-105948102D01*
X156567205Y-105759744D01*
X156453937Y-105590226D01*
X156309774Y-105446063D01*
X156140256Y-105332795D01*
X155996047Y-105273061D01*
X178990000Y-105273061D01*
X178990000Y-105476939D01*
X179029774Y-105676898D01*
X179107795Y-105865256D01*
X179221063Y-106034774D01*
X179365226Y-106178937D01*
X179534744Y-106292205D01*
X179723102Y-106370226D01*
X179923061Y-106410000D01*
X180126939Y-106410000D01*
X180326898Y-106370226D01*
X180515256Y-106292205D01*
X180684774Y-106178937D01*
X180828937Y-106034774D01*
X180942205Y-105865256D01*
X181020226Y-105676898D01*
X181060000Y-105476939D01*
X181060000Y-105273061D01*
X181020226Y-105073102D01*
X180942205Y-104884744D01*
X180828937Y-104715226D01*
X180684774Y-104571063D01*
X180515256Y-104457795D01*
X180326898Y-104379774D01*
X180126939Y-104340000D01*
X179923061Y-104340000D01*
X179723102Y-104379774D01*
X179534744Y-104457795D01*
X179365226Y-104571063D01*
X179221063Y-104715226D01*
X179107795Y-104884744D01*
X179029774Y-105073102D01*
X178990000Y-105273061D01*
X155996047Y-105273061D01*
X155951898Y-105254774D01*
X155751939Y-105215000D01*
X155548061Y-105215000D01*
X155348102Y-105254774D01*
X155159744Y-105332795D01*
X154990226Y-105446063D01*
X154846063Y-105590226D01*
X154732795Y-105759744D01*
X154654774Y-105948102D01*
X154615000Y-106148061D01*
X138541898Y-106148061D01*
X138631515Y-106013940D01*
X138713304Y-105816483D01*
X138755000Y-105606863D01*
X138755000Y-105393137D01*
X138713304Y-105183517D01*
X138631515Y-104986060D01*
X138512775Y-104808353D01*
X138361647Y-104657225D01*
X138183940Y-104538485D01*
X137986483Y-104456696D01*
X137776863Y-104415000D01*
X137563137Y-104415000D01*
X137353517Y-104456696D01*
X137156060Y-104538485D01*
X136978353Y-104657225D01*
X136827225Y-104808353D01*
X136708485Y-104986060D01*
X136626696Y-105183517D01*
X136585000Y-105393137D01*
X136160000Y-105393137D01*
X136160000Y-104098061D01*
X182915000Y-104098061D01*
X182915000Y-104301939D01*
X182954774Y-104501898D01*
X183032795Y-104690256D01*
X183039306Y-104700000D01*
X183032795Y-104709744D01*
X182954774Y-104898102D01*
X182915000Y-105098061D01*
X182915000Y-105301939D01*
X182954774Y-105501898D01*
X183032795Y-105690256D01*
X183146063Y-105859774D01*
X183290226Y-106003937D01*
X183459744Y-106117205D01*
X183648102Y-106195226D01*
X183848061Y-106235000D01*
X184051939Y-106235000D01*
X184251898Y-106195226D01*
X184437500Y-106118347D01*
X184623102Y-106195226D01*
X184823061Y-106235000D01*
X185026939Y-106235000D01*
X185226898Y-106195226D01*
X185415256Y-106117205D01*
X185584774Y-106003937D01*
X185728937Y-105859774D01*
X185842205Y-105690256D01*
X185920226Y-105501898D01*
X185960000Y-105301939D01*
X185960000Y-105098061D01*
X185920226Y-104898102D01*
X185842205Y-104709744D01*
X185835694Y-104700000D01*
X185842205Y-104690256D01*
X185920226Y-104501898D01*
X185960000Y-104301939D01*
X185960000Y-104098061D01*
X185920226Y-103898102D01*
X185842205Y-103709744D01*
X185728937Y-103540226D01*
X185584774Y-103396063D01*
X185415256Y-103282795D01*
X185226898Y-103204774D01*
X185026939Y-103165000D01*
X184823061Y-103165000D01*
X184623102Y-103204774D01*
X184437500Y-103281653D01*
X184251898Y-103204774D01*
X184051939Y-103165000D01*
X183848061Y-103165000D01*
X183648102Y-103204774D01*
X183459744Y-103282795D01*
X183290226Y-103396063D01*
X183146063Y-103540226D01*
X183032795Y-103709744D01*
X182954774Y-103898102D01*
X182915000Y-104098061D01*
X136160000Y-104098061D01*
X136160000Y-98387496D01*
X136666735Y-99145879D01*
X137354121Y-99833265D01*
X138162401Y-100373340D01*
X139060514Y-100745350D01*
X140013945Y-100935000D01*
X140986055Y-100935000D01*
X141939486Y-100745350D01*
X142837599Y-100373340D01*
X143645879Y-99833265D01*
X144333265Y-99145879D01*
X144873340Y-98337599D01*
X145245350Y-97439486D01*
X145322678Y-97050732D01*
X145407926Y-97107693D01*
X145635402Y-97201917D01*
X145876890Y-97249952D01*
X146123110Y-97249952D01*
X146364598Y-97201917D01*
X146592074Y-97107693D01*
X146796798Y-96970901D01*
X146970901Y-96796798D01*
X147107693Y-96592074D01*
X147201917Y-96364598D01*
X147234824Y-96199162D01*
X150215000Y-96199162D01*
X150215000Y-96800837D01*
X150229976Y-96952894D01*
X150289159Y-97147992D01*
X150304817Y-97177287D01*
X150254774Y-97298102D01*
X150215000Y-97498061D01*
X150215000Y-97701939D01*
X150254774Y-97901898D01*
X150332795Y-98090256D01*
X150446063Y-98259774D01*
X150590226Y-98403937D01*
X150759744Y-98517205D01*
X150948102Y-98595226D01*
X151148061Y-98635000D01*
X151351939Y-98635000D01*
X151551898Y-98595226D01*
X151740256Y-98517205D01*
X151909774Y-98403937D01*
X152053937Y-98259774D01*
X152167205Y-98090256D01*
X152245226Y-97901898D01*
X152272917Y-97762686D01*
X152297105Y-97770024D01*
X152500000Y-97790007D01*
X152702894Y-97770024D01*
X152897992Y-97710841D01*
X153077797Y-97614734D01*
X153125000Y-97575996D01*
X153172203Y-97614734D01*
X153352007Y-97710841D01*
X153547105Y-97770024D01*
X153750000Y-97790007D01*
X153952894Y-97770024D01*
X154147992Y-97710841D01*
X154229406Y-97667324D01*
X154245506Y-97680537D01*
X154355820Y-97739502D01*
X154475518Y-97775812D01*
X154600000Y-97788072D01*
X154714250Y-97785000D01*
X154873000Y-97626250D01*
X154873000Y-96627000D01*
X155127000Y-96627000D01*
X155127000Y-97626250D01*
X155285750Y-97785000D01*
X155400000Y-97788072D01*
X155524482Y-97775812D01*
X155644180Y-97739502D01*
X155754494Y-97680537D01*
X155851185Y-97601185D01*
X155930537Y-97504494D01*
X155989502Y-97394180D01*
X156025812Y-97274482D01*
X156038072Y-97150000D01*
X156035000Y-96785750D01*
X155876250Y-96627000D01*
X155127000Y-96627000D01*
X154873000Y-96627000D01*
X154853000Y-96627000D01*
X154853000Y-96373000D01*
X154873000Y-96373000D01*
X154873000Y-95373750D01*
X155127000Y-95373750D01*
X155127000Y-96373000D01*
X155876250Y-96373000D01*
X156035000Y-96214250D01*
X156038072Y-95850000D01*
X156025812Y-95725518D01*
X155989502Y-95605820D01*
X155930537Y-95495506D01*
X155851185Y-95398815D01*
X155754494Y-95319463D01*
X155644180Y-95260498D01*
X155524482Y-95224188D01*
X155400000Y-95211928D01*
X155285750Y-95215000D01*
X155127000Y-95373750D01*
X154873000Y-95373750D01*
X154714250Y-95215000D01*
X154600000Y-95211928D01*
X154475518Y-95224188D01*
X154355820Y-95260498D01*
X154245506Y-95319463D01*
X154229407Y-95332675D01*
X154147993Y-95289159D01*
X153952895Y-95229976D01*
X153750000Y-95209993D01*
X153547106Y-95229976D01*
X153352008Y-95289159D01*
X153172204Y-95385266D01*
X153125001Y-95424005D01*
X153077797Y-95385266D01*
X152897993Y-95289159D01*
X152702895Y-95229976D01*
X152500000Y-95209993D01*
X152297106Y-95229976D01*
X152102008Y-95289159D01*
X151922204Y-95385266D01*
X151875001Y-95424005D01*
X151827797Y-95385266D01*
X151647993Y-95289159D01*
X151452895Y-95229976D01*
X151250000Y-95209993D01*
X151047106Y-95229976D01*
X150852008Y-95289159D01*
X150672204Y-95385266D01*
X150514605Y-95514604D01*
X150385267Y-95672203D01*
X150289159Y-95852007D01*
X150229976Y-96047105D01*
X150215000Y-96199162D01*
X147234824Y-96199162D01*
X147249952Y-96123110D01*
X147249952Y-95876890D01*
X147201917Y-95635402D01*
X147107693Y-95407926D01*
X146970901Y-95203202D01*
X146796798Y-95029099D01*
X146592074Y-94892307D01*
X146364598Y-94798083D01*
X146123110Y-94750048D01*
X145876890Y-94750048D01*
X145635402Y-94798083D01*
X145407926Y-94892307D01*
X145322678Y-94949268D01*
X145245350Y-94560514D01*
X144873340Y-93662401D01*
X144333265Y-92854121D01*
X143645879Y-92166735D01*
X142887496Y-91660000D01*
X161385201Y-91660000D01*
X161379774Y-91673102D01*
G37*
%TD.AperFunction*%
%TD*%
M02*
