M48
; DRILL file {KiCad 5.1.10-88a1d61d58~90~ubuntu20.04.1} date Sun Dec 12 00:04:28 2021
; FORMAT={3:3/ absolute / metric / suppress leading zeros}
; #@! TF.CreationDate,2021-12-12T00:04:28-03:00
; #@! TF.GenerationSoftware,Kicad,Pcbnew,5.1.10-88a1d61d58~90~ubuntu20.04.1
FMAT,2
METRIC,TZ
T1C0.400
T2C0.450
T3C0.500
T4C0.600
T5C1.200
T6C4.300
T7C0.900
%
G90
G05
T1
X140600Y-104750
X140625Y-109250
X141225Y-118025
X142225Y-119150
X144775Y-120500
X144825Y-119375
X145250Y-109900
X145325Y-122400
X145495Y-121250
X145515Y-117500
X145700Y-112250
X145700Y-113300
X146450Y-117150
X147200Y-111250
X147675Y-108975
X149000Y-108450
X149709Y-115235
X150250Y-124050
X151000Y-106350
X151250Y-97600
X151925Y-123325
X154575Y-106325
X155000Y-97625
X155650Y-106250
X158400Y-125100
X158825Y-123475
X159550Y-121825
X159675Y-109575
X160400Y-111250
X161625Y-109525
X162375Y-91975
X162525Y-110425
X164900Y-92000
X165650Y-131525
X165675Y-129975
X165975Y-126400
X166075Y-137550
X166100Y-135025
X166200Y-92000
X166850Y-125425
X167450Y-92000
X167775Y-126450
X168075Y-135000
X168075Y-137550
X168425Y-130000
X168450Y-131575
X170025Y-138900
X170050Y-133725
X171025Y-137575
X172950Y-138450
X173875Y-139125
X174425Y-124250
X174425Y-126275
X174550Y-133050
X175500Y-139175
X176550Y-124200
X177300Y-138250
X178225Y-137450
X179100Y-134750
X180025Y-105375
X180050Y-133975
X180075Y-128600
X183950Y-104200
X183950Y-105200
X184925Y-104200
X184925Y-105200
T3
X151250Y-96500
X151500Y-135500
X152500Y-96500
X152750Y-135500
X153750Y-96500
X154000Y-135500
X155000Y-96500
X155250Y-135500
T4
X137275Y-96000
X137275Y-136000
X138220Y-93720
X138220Y-98280
X138220Y-133720
X138220Y-138280
X140500Y-92775
X140500Y-99225
X140500Y-132775
X140500Y-139225
X142780Y-93720
X142780Y-98280
X142780Y-133720
X142780Y-138280
X143725Y-96000
X143725Y-136000
X182275Y-96000
X182275Y-136000
X183220Y-93720
X183220Y-98280
X183220Y-133720
X183220Y-138280
X185500Y-92775
X185500Y-99225
X185500Y-132775
X185500Y-139225
X187780Y-93720
X187780Y-98280
X187780Y-133720
X187780Y-138280
X188725Y-96000
X188725Y-136000
T5
X185000Y-123000
X185000Y-126500
T6
X140500Y-96000
X140500Y-136000
X185500Y-96000
X185500Y-136000
T7
X137670Y-105500
X137670Y-108500
T2
G00X188300Y-102925
M15
G01X189100Y-102925
M16
G05
G00X189100Y-110075
M15
G01X188300Y-110075
M16
G05
T0
M30
