%TF.GenerationSoftware,KiCad,Pcbnew,5.1.10-88a1d61d58~90~ubuntu20.04.1*%
%TF.CreationDate,2021-12-12T00:04:41-03:00*%
%TF.ProjectId,kicadproj,6b696361-6470-4726-9f6a-2e6b69636164,rev?*%
%TF.SameCoordinates,Original*%
%TF.FileFunction,Soldermask,Bot*%
%TF.FilePolarity,Negative*%
%FSLAX46Y46*%
G04 Gerber Fmt 4.6, Leading zero omitted, Abs format (unit mm)*
G04 Created by KiCad (PCBNEW 5.1.10-88a1d61d58~90~ubuntu20.04.1) date 2021-12-12 00:04:41*
%MOMM*%
%LPD*%
G01*
G04 APERTURE LIST*
%ADD10C,8.600000*%
%ADD11C,0.900000*%
%ADD12R,2.400000X2.400000*%
%ADD13C,2.400000*%
%ADD14O,0.800000X1.300000*%
%ADD15O,1.900000X1.050000*%
G04 APERTURE END LIST*
D10*
%TO.C,H1*%
X140500000Y-96000000D03*
D11*
X143725000Y-96000000D03*
X142780419Y-98280419D03*
X140500000Y-99225000D03*
X138219581Y-98280419D03*
X137275000Y-96000000D03*
X138219581Y-93719581D03*
X140500000Y-92775000D03*
X142780419Y-93719581D03*
%TD*%
%TO.C,H2*%
X187780419Y-93719581D03*
X185500000Y-92775000D03*
X183219581Y-93719581D03*
X182275000Y-96000000D03*
X183219581Y-98280419D03*
X185500000Y-99225000D03*
X187780419Y-98280419D03*
X188725000Y-96000000D03*
D10*
X185500000Y-96000000D03*
%TD*%
%TO.C,H3*%
X185500000Y-136000000D03*
D11*
X188725000Y-136000000D03*
X187780419Y-138280419D03*
X185500000Y-139225000D03*
X183219581Y-138280419D03*
X182275000Y-136000000D03*
X183219581Y-133719581D03*
X185500000Y-132775000D03*
X187780419Y-133719581D03*
%TD*%
%TO.C,H4*%
X142780419Y-133719581D03*
X140500000Y-132775000D03*
X138219581Y-133719581D03*
X137275000Y-136000000D03*
X138219581Y-138280419D03*
X140500000Y-139225000D03*
X142780419Y-138280419D03*
X143725000Y-136000000D03*
D10*
X140500000Y-136000000D03*
%TD*%
D12*
%TO.C,J1*%
X185000000Y-126500000D03*
D13*
X185000000Y-123000000D03*
%TD*%
D14*
%TO.C,J2*%
X151250000Y-96500000D03*
X152500000Y-96500000D03*
X153750000Y-96500000D03*
G36*
G01*
X155400000Y-96050000D02*
X155400000Y-96950000D01*
G75*
G02*
X155200000Y-97150000I-200000J0D01*
G01*
X154800000Y-97150000D01*
G75*
G02*
X154600000Y-96950000I0J200000D01*
G01*
X154600000Y-96050000D01*
G75*
G02*
X154800000Y-95850000I200000J0D01*
G01*
X155200000Y-95850000D01*
G75*
G02*
X155400000Y-96050000I0J-200000D01*
G01*
G37*
%TD*%
%TO.C,J4*%
G36*
G01*
X151100000Y-135950000D02*
X151100000Y-135050000D01*
G75*
G02*
X151300000Y-134850000I200000J0D01*
G01*
X151700000Y-134850000D01*
G75*
G02*
X151900000Y-135050000I0J-200000D01*
G01*
X151900000Y-135950000D01*
G75*
G02*
X151700000Y-136150000I-200000J0D01*
G01*
X151300000Y-136150000D01*
G75*
G02*
X151100000Y-135950000I0J200000D01*
G01*
G37*
X152750000Y-135500000D03*
X154000000Y-135500000D03*
X155250000Y-135500000D03*
%TD*%
D15*
%TO.C,J5*%
X188700000Y-102925000D03*
X188700000Y-110075000D03*
%TD*%
D11*
%TO.C,SW1*%
X137670000Y-105500000D03*
X137670000Y-108500000D03*
%TD*%
M02*
