%TF.GenerationSoftware,KiCad,Pcbnew,5.1.10-88a1d61d58~90~ubuntu20.04.1*%
%TF.CreationDate,2021-12-12T00:04:41-03:00*%
%TF.ProjectId,kicadproj,6b696361-6470-4726-9f6a-2e6b69636164,rev?*%
%TF.SameCoordinates,Original*%
%TF.FileFunction,Copper,L1,Top*%
%TF.FilePolarity,Positive*%
%FSLAX46Y46*%
G04 Gerber Fmt 4.6, Leading zero omitted, Abs format (unit mm)*
G04 Created by KiCad (PCBNEW 5.1.10-88a1d61d58~90~ubuntu20.04.1) date 2021-12-12 00:04:41*
%MOMM*%
%LPD*%
G01*
G04 APERTURE LIST*
%TA.AperFunction,SMDPad,CuDef*%
%ADD10R,0.740000X2.400000*%
%TD*%
%TA.AperFunction,SMDPad,CuDef*%
%ADD11R,1.200000X0.900000*%
%TD*%
%TA.AperFunction,SMDPad,CuDef*%
%ADD12R,0.900000X1.200000*%
%TD*%
%TA.AperFunction,ComponentPad*%
%ADD13C,8.600000*%
%TD*%
%TA.AperFunction,ComponentPad*%
%ADD14C,0.900000*%
%TD*%
%TA.AperFunction,ComponentPad*%
%ADD15R,2.400000X2.400000*%
%TD*%
%TA.AperFunction,ComponentPad*%
%ADD16C,2.400000*%
%TD*%
%TA.AperFunction,ComponentPad*%
%ADD17O,0.800000X1.300000*%
%TD*%
%TA.AperFunction,SMDPad,CuDef*%
%ADD18R,1.450000X1.150000*%
%TD*%
%TA.AperFunction,ComponentPad*%
%ADD19O,1.900000X1.050000*%
%TD*%
%TA.AperFunction,SMDPad,CuDef*%
%ADD20R,1.900000X1.750000*%
%TD*%
%TA.AperFunction,SMDPad,CuDef*%
%ADD21R,1.400000X0.400000*%
%TD*%
%TA.AperFunction,SMDPad,CuDef*%
%ADD22R,1.900000X2.500000*%
%TD*%
%TA.AperFunction,SMDPad,CuDef*%
%ADD23R,0.800000X0.900000*%
%TD*%
%TA.AperFunction,SMDPad,CuDef*%
%ADD24R,1.500000X0.700000*%
%TD*%
%TA.AperFunction,SMDPad,CuDef*%
%ADD25R,0.800000X1.000000*%
%TD*%
%TA.AperFunction,SMDPad,CuDef*%
%ADD26R,0.650000X1.060000*%
%TD*%
%TA.AperFunction,SMDPad,CuDef*%
%ADD27R,1.060000X0.650000*%
%TD*%
%TA.AperFunction,SMDPad,CuDef*%
%ADD28R,1.200000X1.400000*%
%TD*%
%TA.AperFunction,ViaPad*%
%ADD29C,0.800000*%
%TD*%
%TA.AperFunction,Conductor*%
%ADD30C,0.300000*%
%TD*%
%TA.AperFunction,Conductor*%
%ADD31C,0.500000*%
%TD*%
%TA.AperFunction,Conductor*%
%ADD32C,1.000000*%
%TD*%
%TA.AperFunction,Conductor*%
%ADD33C,0.750000*%
%TD*%
%TA.AperFunction,Conductor*%
%ADD34C,0.400000*%
%TD*%
%TA.AperFunction,Conductor*%
%ADD35C,0.250000*%
%TD*%
%TA.AperFunction,Conductor*%
%ADD36C,0.261112*%
%TD*%
G04 APERTURE END LIST*
D10*
%TO.P,J3,10*%
%TO.N,NRST*%
X162360000Y-97525000D03*
%TO.P,J3,9*%
%TO.N,GND*%
X162360000Y-93625000D03*
%TO.P,J3,8*%
%TO.N,Net-(J3-Pad8)*%
X163630000Y-97525000D03*
%TO.P,J3,7*%
%TO.N,Net-(J3-Pad7)*%
X163630000Y-93625000D03*
%TO.P,J3,6*%
%TO.N,SWO*%
X164900000Y-97525000D03*
%TO.P,J3,5*%
%TO.N,GND*%
X164900000Y-93625000D03*
%TO.P,J3,4*%
%TO.N,SWCLK*%
X166170000Y-97525000D03*
%TO.P,J3,3*%
%TO.N,GND*%
X166170000Y-93625000D03*
%TO.P,J3,2*%
%TO.N,SWDIO*%
X167440000Y-97525000D03*
%TO.P,J3,1*%
%TO.N,+3V3*%
X167440000Y-93625000D03*
%TD*%
%TO.P,C1,1*%
%TO.N,+3V3*%
%TA.AperFunction,SMDPad,CuDef*%
G36*
G01*
X148127020Y-109633460D02*
X148127020Y-110133460D01*
G75*
G02*
X147902020Y-110358460I-225000J0D01*
G01*
X147452020Y-110358460D01*
G75*
G02*
X147227020Y-110133460I0J225000D01*
G01*
X147227020Y-109633460D01*
G75*
G02*
X147452020Y-109408460I225000J0D01*
G01*
X147902020Y-109408460D01*
G75*
G02*
X148127020Y-109633460I0J-225000D01*
G01*
G37*
%TD.AperFunction*%
%TO.P,C1,2*%
%TO.N,GND*%
%TA.AperFunction,SMDPad,CuDef*%
G36*
G01*
X146577020Y-109633460D02*
X146577020Y-110133460D01*
G75*
G02*
X146352020Y-110358460I-225000J0D01*
G01*
X145902020Y-110358460D01*
G75*
G02*
X145677020Y-110133460I0J225000D01*
G01*
X145677020Y-109633460D01*
G75*
G02*
X145902020Y-109408460I225000J0D01*
G01*
X146352020Y-109408460D01*
G75*
G02*
X146577020Y-109633460I0J-225000D01*
G01*
G37*
%TD.AperFunction*%
%TD*%
%TO.P,C2,2*%
%TO.N,GND*%
%TA.AperFunction,SMDPad,CuDef*%
G36*
G01*
X157250000Y-124650000D02*
X157750000Y-124650000D01*
G75*
G02*
X157975000Y-124875000I0J-225000D01*
G01*
X157975000Y-125325000D01*
G75*
G02*
X157750000Y-125550000I-225000J0D01*
G01*
X157250000Y-125550000D01*
G75*
G02*
X157025000Y-125325000I0J225000D01*
G01*
X157025000Y-124875000D01*
G75*
G02*
X157250000Y-124650000I225000J0D01*
G01*
G37*
%TD.AperFunction*%
%TO.P,C2,1*%
%TO.N,Net-(C2-Pad1)*%
%TA.AperFunction,SMDPad,CuDef*%
G36*
G01*
X157250000Y-123100000D02*
X157750000Y-123100000D01*
G75*
G02*
X157975000Y-123325000I0J-225000D01*
G01*
X157975000Y-123775000D01*
G75*
G02*
X157750000Y-124000000I-225000J0D01*
G01*
X157250000Y-124000000D01*
G75*
G02*
X157025000Y-123775000I0J225000D01*
G01*
X157025000Y-123325000D01*
G75*
G02*
X157250000Y-123100000I225000J0D01*
G01*
G37*
%TD.AperFunction*%
%TD*%
%TO.P,C3,1*%
%TO.N,+3V3*%
%TA.AperFunction,SMDPad,CuDef*%
G36*
G01*
X149172600Y-110394540D02*
X148832600Y-110394540D01*
G75*
G02*
X148692600Y-110254540I0J140000D01*
G01*
X148692600Y-109974540D01*
G75*
G02*
X148832600Y-109834540I140000J0D01*
G01*
X149172600Y-109834540D01*
G75*
G02*
X149312600Y-109974540I0J-140000D01*
G01*
X149312600Y-110254540D01*
G75*
G02*
X149172600Y-110394540I-140000J0D01*
G01*
G37*
%TD.AperFunction*%
%TO.P,C3,2*%
%TO.N,GND*%
%TA.AperFunction,SMDPad,CuDef*%
G36*
G01*
X149172600Y-109434540D02*
X148832600Y-109434540D01*
G75*
G02*
X148692600Y-109294540I0J140000D01*
G01*
X148692600Y-109014540D01*
G75*
G02*
X148832600Y-108874540I140000J0D01*
G01*
X149172600Y-108874540D01*
G75*
G02*
X149312600Y-109014540I0J-140000D01*
G01*
X149312600Y-109294540D01*
G75*
G02*
X149172600Y-109434540I-140000J0D01*
G01*
G37*
%TD.AperFunction*%
%TD*%
%TO.P,C4,1*%
%TO.N,Net-(C4-Pad1)*%
%TA.AperFunction,SMDPad,CuDef*%
G36*
G01*
X161875000Y-112425000D02*
X161375000Y-112425000D01*
G75*
G02*
X161150000Y-112200000I0J225000D01*
G01*
X161150000Y-111750000D01*
G75*
G02*
X161375000Y-111525000I225000J0D01*
G01*
X161875000Y-111525000D01*
G75*
G02*
X162100000Y-111750000I0J-225000D01*
G01*
X162100000Y-112200000D01*
G75*
G02*
X161875000Y-112425000I-225000J0D01*
G01*
G37*
%TD.AperFunction*%
%TO.P,C4,2*%
%TO.N,GND*%
%TA.AperFunction,SMDPad,CuDef*%
G36*
G01*
X161875000Y-110875000D02*
X161375000Y-110875000D01*
G75*
G02*
X161150000Y-110650000I0J225000D01*
G01*
X161150000Y-110200000D01*
G75*
G02*
X161375000Y-109975000I225000J0D01*
G01*
X161875000Y-109975000D01*
G75*
G02*
X162100000Y-110200000I0J-225000D01*
G01*
X162100000Y-110650000D01*
G75*
G02*
X161875000Y-110875000I-225000J0D01*
G01*
G37*
%TD.AperFunction*%
%TD*%
%TO.P,C5,2*%
%TO.N,GND*%
%TA.AperFunction,SMDPad,CuDef*%
G36*
G01*
X150525000Y-123155000D02*
X150525000Y-123495000D01*
G75*
G02*
X150385000Y-123635000I-140000J0D01*
G01*
X150105000Y-123635000D01*
G75*
G02*
X149965000Y-123495000I0J140000D01*
G01*
X149965000Y-123155000D01*
G75*
G02*
X150105000Y-123015000I140000J0D01*
G01*
X150385000Y-123015000D01*
G75*
G02*
X150525000Y-123155000I0J-140000D01*
G01*
G37*
%TD.AperFunction*%
%TO.P,C5,1*%
%TO.N,+3V3*%
%TA.AperFunction,SMDPad,CuDef*%
G36*
G01*
X151485000Y-123155000D02*
X151485000Y-123495000D01*
G75*
G02*
X151345000Y-123635000I-140000J0D01*
G01*
X151065000Y-123635000D01*
G75*
G02*
X150925000Y-123495000I0J140000D01*
G01*
X150925000Y-123155000D01*
G75*
G02*
X151065000Y-123015000I140000J0D01*
G01*
X151345000Y-123015000D01*
G75*
G02*
X151485000Y-123155000I0J-140000D01*
G01*
G37*
%TD.AperFunction*%
%TD*%
%TO.P,C6,1*%
%TO.N,+3V3*%
%TA.AperFunction,SMDPad,CuDef*%
G36*
G01*
X146607200Y-112533220D02*
X146267200Y-112533220D01*
G75*
G02*
X146127200Y-112393220I0J140000D01*
G01*
X146127200Y-112113220D01*
G75*
G02*
X146267200Y-111973220I140000J0D01*
G01*
X146607200Y-111973220D01*
G75*
G02*
X146747200Y-112113220I0J-140000D01*
G01*
X146747200Y-112393220D01*
G75*
G02*
X146607200Y-112533220I-140000J0D01*
G01*
G37*
%TD.AperFunction*%
%TO.P,C6,2*%
%TO.N,GND*%
%TA.AperFunction,SMDPad,CuDef*%
G36*
G01*
X146607200Y-111573220D02*
X146267200Y-111573220D01*
G75*
G02*
X146127200Y-111433220I0J140000D01*
G01*
X146127200Y-111153220D01*
G75*
G02*
X146267200Y-111013220I140000J0D01*
G01*
X146607200Y-111013220D01*
G75*
G02*
X146747200Y-111153220I0J-140000D01*
G01*
X146747200Y-111433220D01*
G75*
G02*
X146607200Y-111573220I-140000J0D01*
G01*
G37*
%TD.AperFunction*%
%TD*%
%TO.P,C7,1*%
%TO.N,BUCK_IN*%
%TA.AperFunction,SMDPad,CuDef*%
G36*
G01*
X175050001Y-128800000D02*
X173749999Y-128800000D01*
G75*
G02*
X173500000Y-128550001I0J249999D01*
G01*
X173500000Y-127899999D01*
G75*
G02*
X173749999Y-127650000I249999J0D01*
G01*
X175050001Y-127650000D01*
G75*
G02*
X175300000Y-127899999I0J-249999D01*
G01*
X175300000Y-128550001D01*
G75*
G02*
X175050001Y-128800000I-249999J0D01*
G01*
G37*
%TD.AperFunction*%
%TO.P,C7,2*%
%TO.N,GND*%
%TA.AperFunction,SMDPad,CuDef*%
G36*
G01*
X175050001Y-125850000D02*
X173749999Y-125850000D01*
G75*
G02*
X173500000Y-125600001I0J249999D01*
G01*
X173500000Y-124949999D01*
G75*
G02*
X173749999Y-124700000I249999J0D01*
G01*
X175050001Y-124700000D01*
G75*
G02*
X175300000Y-124949999I0J-249999D01*
G01*
X175300000Y-125600001D01*
G75*
G02*
X175050001Y-125850000I-249999J0D01*
G01*
G37*
%TD.AperFunction*%
%TD*%
%TO.P,C8,2*%
%TO.N,GND*%
%TA.AperFunction,SMDPad,CuDef*%
G36*
G01*
X158630000Y-122500000D02*
X158970000Y-122500000D01*
G75*
G02*
X159110000Y-122640000I0J-140000D01*
G01*
X159110000Y-122920000D01*
G75*
G02*
X158970000Y-123060000I-140000J0D01*
G01*
X158630000Y-123060000D01*
G75*
G02*
X158490000Y-122920000I0J140000D01*
G01*
X158490000Y-122640000D01*
G75*
G02*
X158630000Y-122500000I140000J0D01*
G01*
G37*
%TD.AperFunction*%
%TO.P,C8,1*%
%TO.N,+3V3*%
%TA.AperFunction,SMDPad,CuDef*%
G36*
G01*
X158630000Y-121540000D02*
X158970000Y-121540000D01*
G75*
G02*
X159110000Y-121680000I0J-140000D01*
G01*
X159110000Y-121960000D01*
G75*
G02*
X158970000Y-122100000I-140000J0D01*
G01*
X158630000Y-122100000D01*
G75*
G02*
X158490000Y-121960000I0J140000D01*
G01*
X158490000Y-121680000D01*
G75*
G02*
X158630000Y-121540000I140000J0D01*
G01*
G37*
%TD.AperFunction*%
%TD*%
%TO.P,C9,1*%
%TO.N,+3V3*%
%TA.AperFunction,SMDPad,CuDef*%
G36*
G01*
X159830440Y-111509600D02*
X159490440Y-111509600D01*
G75*
G02*
X159350440Y-111369600I0J140000D01*
G01*
X159350440Y-111089600D01*
G75*
G02*
X159490440Y-110949600I140000J0D01*
G01*
X159830440Y-110949600D01*
G75*
G02*
X159970440Y-111089600I0J-140000D01*
G01*
X159970440Y-111369600D01*
G75*
G02*
X159830440Y-111509600I-140000J0D01*
G01*
G37*
%TD.AperFunction*%
%TO.P,C9,2*%
%TO.N,GND*%
%TA.AperFunction,SMDPad,CuDef*%
G36*
G01*
X159830440Y-110549600D02*
X159490440Y-110549600D01*
G75*
G02*
X159350440Y-110409600I0J140000D01*
G01*
X159350440Y-110129600D01*
G75*
G02*
X159490440Y-109989600I140000J0D01*
G01*
X159830440Y-109989600D01*
G75*
G02*
X159970440Y-110129600I0J-140000D01*
G01*
X159970440Y-110409600D01*
G75*
G02*
X159830440Y-110549600I-140000J0D01*
G01*
G37*
%TD.AperFunction*%
%TD*%
%TO.P,C10,1*%
%TO.N,+3.3VA*%
%TA.AperFunction,SMDPad,CuDef*%
G36*
G01*
X146755240Y-119207980D02*
X146755240Y-119547980D01*
G75*
G02*
X146615240Y-119687980I-140000J0D01*
G01*
X146335240Y-119687980D01*
G75*
G02*
X146195240Y-119547980I0J140000D01*
G01*
X146195240Y-119207980D01*
G75*
G02*
X146335240Y-119067980I140000J0D01*
G01*
X146615240Y-119067980D01*
G75*
G02*
X146755240Y-119207980I0J-140000D01*
G01*
G37*
%TD.AperFunction*%
%TO.P,C10,2*%
%TO.N,GND*%
%TA.AperFunction,SMDPad,CuDef*%
G36*
G01*
X145795240Y-119207980D02*
X145795240Y-119547980D01*
G75*
G02*
X145655240Y-119687980I-140000J0D01*
G01*
X145375240Y-119687980D01*
G75*
G02*
X145235240Y-119547980I0J140000D01*
G01*
X145235240Y-119207980D01*
G75*
G02*
X145375240Y-119067980I140000J0D01*
G01*
X145655240Y-119067980D01*
G75*
G02*
X145795240Y-119207980I0J-140000D01*
G01*
G37*
%TD.AperFunction*%
%TD*%
%TO.P,C11,2*%
%TO.N,GND*%
%TA.AperFunction,SMDPad,CuDef*%
G36*
G01*
X145795240Y-118072600D02*
X145795240Y-118412600D01*
G75*
G02*
X145655240Y-118552600I-140000J0D01*
G01*
X145375240Y-118552600D01*
G75*
G02*
X145235240Y-118412600I0J140000D01*
G01*
X145235240Y-118072600D01*
G75*
G02*
X145375240Y-117932600I140000J0D01*
G01*
X145655240Y-117932600D01*
G75*
G02*
X145795240Y-118072600I0J-140000D01*
G01*
G37*
%TD.AperFunction*%
%TO.P,C11,1*%
%TO.N,+3.3VA*%
%TA.AperFunction,SMDPad,CuDef*%
G36*
G01*
X146755240Y-118072600D02*
X146755240Y-118412600D01*
G75*
G02*
X146615240Y-118552600I-140000J0D01*
G01*
X146335240Y-118552600D01*
G75*
G02*
X146195240Y-118412600I0J140000D01*
G01*
X146195240Y-118072600D01*
G75*
G02*
X146335240Y-117932600I140000J0D01*
G01*
X146615240Y-117932600D01*
G75*
G02*
X146755240Y-118072600I0J-140000D01*
G01*
G37*
%TD.AperFunction*%
%TD*%
%TO.P,C12,2*%
%TO.N,BUCK_BST*%
%TA.AperFunction,SMDPad,CuDef*%
G36*
G01*
X171575000Y-135775000D02*
X172075000Y-135775000D01*
G75*
G02*
X172300000Y-136000000I0J-225000D01*
G01*
X172300000Y-136450000D01*
G75*
G02*
X172075000Y-136675000I-225000J0D01*
G01*
X171575000Y-136675000D01*
G75*
G02*
X171350000Y-136450000I0J225000D01*
G01*
X171350000Y-136000000D01*
G75*
G02*
X171575000Y-135775000I225000J0D01*
G01*
G37*
%TD.AperFunction*%
%TO.P,C12,1*%
%TO.N,BUCK_SW*%
%TA.AperFunction,SMDPad,CuDef*%
G36*
G01*
X171575000Y-134225000D02*
X172075000Y-134225000D01*
G75*
G02*
X172300000Y-134450000I0J-225000D01*
G01*
X172300000Y-134900000D01*
G75*
G02*
X172075000Y-135125000I-225000J0D01*
G01*
X171575000Y-135125000D01*
G75*
G02*
X171350000Y-134900000I0J225000D01*
G01*
X171350000Y-134450000D01*
G75*
G02*
X171575000Y-134225000I225000J0D01*
G01*
G37*
%TD.AperFunction*%
%TD*%
%TO.P,C13,1*%
%TO.N,HSE_IN*%
%TA.AperFunction,SMDPad,CuDef*%
G36*
G01*
X146604660Y-114524580D02*
X146264660Y-114524580D01*
G75*
G02*
X146124660Y-114384580I0J140000D01*
G01*
X146124660Y-114104580D01*
G75*
G02*
X146264660Y-113964580I140000J0D01*
G01*
X146604660Y-113964580D01*
G75*
G02*
X146744660Y-114104580I0J-140000D01*
G01*
X146744660Y-114384580D01*
G75*
G02*
X146604660Y-114524580I-140000J0D01*
G01*
G37*
%TD.AperFunction*%
%TO.P,C13,2*%
%TO.N,GND*%
%TA.AperFunction,SMDPad,CuDef*%
G36*
G01*
X146604660Y-113564580D02*
X146264660Y-113564580D01*
G75*
G02*
X146124660Y-113424580I0J140000D01*
G01*
X146124660Y-113144580D01*
G75*
G02*
X146264660Y-113004580I140000J0D01*
G01*
X146604660Y-113004580D01*
G75*
G02*
X146744660Y-113144580I0J-140000D01*
G01*
X146744660Y-113424580D01*
G75*
G02*
X146604660Y-113564580I-140000J0D01*
G01*
G37*
%TD.AperFunction*%
%TD*%
%TO.P,C14,1*%
%TO.N,+3V3*%
%TA.AperFunction,SMDPad,CuDef*%
G36*
G01*
X166500000Y-135700001D02*
X166500000Y-134399999D01*
G75*
G02*
X166749999Y-134150000I249999J0D01*
G01*
X167400001Y-134150000D01*
G75*
G02*
X167650000Y-134399999I0J-249999D01*
G01*
X167650000Y-135700001D01*
G75*
G02*
X167400001Y-135950000I-249999J0D01*
G01*
X166749999Y-135950000D01*
G75*
G02*
X166500000Y-135700001I0J249999D01*
G01*
G37*
%TD.AperFunction*%
%TO.P,C14,2*%
%TO.N,GND*%
%TA.AperFunction,SMDPad,CuDef*%
G36*
G01*
X169450000Y-135700001D02*
X169450000Y-134399999D01*
G75*
G02*
X169699999Y-134150000I249999J0D01*
G01*
X170350001Y-134150000D01*
G75*
G02*
X170600000Y-134399999I0J-249999D01*
G01*
X170600000Y-135700001D01*
G75*
G02*
X170350001Y-135950000I-249999J0D01*
G01*
X169699999Y-135950000D01*
G75*
G02*
X169450000Y-135700001I0J249999D01*
G01*
G37*
%TD.AperFunction*%
%TD*%
%TO.P,C15,2*%
%TO.N,GND*%
%TA.AperFunction,SMDPad,CuDef*%
G36*
G01*
X146167300Y-116576180D02*
X146167300Y-116236180D01*
G75*
G02*
X146307300Y-116096180I140000J0D01*
G01*
X146587300Y-116096180D01*
G75*
G02*
X146727300Y-116236180I0J-140000D01*
G01*
X146727300Y-116576180D01*
G75*
G02*
X146587300Y-116716180I-140000J0D01*
G01*
X146307300Y-116716180D01*
G75*
G02*
X146167300Y-116576180I0J140000D01*
G01*
G37*
%TD.AperFunction*%
%TO.P,C15,1*%
%TO.N,Net-(C15-Pad1)*%
%TA.AperFunction,SMDPad,CuDef*%
G36*
G01*
X145207300Y-116576180D02*
X145207300Y-116236180D01*
G75*
G02*
X145347300Y-116096180I140000J0D01*
G01*
X145627300Y-116096180D01*
G75*
G02*
X145767300Y-116236180I0J-140000D01*
G01*
X145767300Y-116576180D01*
G75*
G02*
X145627300Y-116716180I-140000J0D01*
G01*
X145347300Y-116716180D01*
G75*
G02*
X145207300Y-116576180I0J140000D01*
G01*
G37*
%TD.AperFunction*%
%TD*%
%TO.P,C16,2*%
%TO.N,GND*%
%TA.AperFunction,SMDPad,CuDef*%
G36*
G01*
X169450000Y-138200001D02*
X169450000Y-136899999D01*
G75*
G02*
X169699999Y-136650000I249999J0D01*
G01*
X170350001Y-136650000D01*
G75*
G02*
X170600000Y-136899999I0J-249999D01*
G01*
X170600000Y-138200001D01*
G75*
G02*
X170350001Y-138450000I-249999J0D01*
G01*
X169699999Y-138450000D01*
G75*
G02*
X169450000Y-138200001I0J249999D01*
G01*
G37*
%TD.AperFunction*%
%TO.P,C16,1*%
%TO.N,+3V3*%
%TA.AperFunction,SMDPad,CuDef*%
G36*
G01*
X166500000Y-138200001D02*
X166500000Y-136899999D01*
G75*
G02*
X166749999Y-136650000I249999J0D01*
G01*
X167400001Y-136650000D01*
G75*
G02*
X167650000Y-136899999I0J-249999D01*
G01*
X167650000Y-138200001D01*
G75*
G02*
X167400001Y-138450000I-249999J0D01*
G01*
X166749999Y-138450000D01*
G75*
G02*
X166500000Y-138200001I0J249999D01*
G01*
G37*
%TD.AperFunction*%
%TD*%
D11*
%TO.P,D1,1*%
%TO.N,Net-(D1-Pad1)*%
X178650000Y-124650000D03*
%TO.P,D1,2*%
%TO.N,+5V*%
X178650000Y-121350000D03*
%TD*%
D12*
%TO.P,D2,1*%
%TO.N,BUCK_SW*%
X170150000Y-126450000D03*
%TO.P,D2,2*%
%TO.N,GND*%
X166850000Y-126450000D03*
%TD*%
%TO.P,D3,1*%
%TO.N,Net-(D3-Pad1)*%
%TA.AperFunction,SMDPad,CuDef*%
G36*
G01*
X148349530Y-124473940D02*
X147837030Y-124473940D01*
G75*
G02*
X147618280Y-124255190I0J218750D01*
G01*
X147618280Y-123817690D01*
G75*
G02*
X147837030Y-123598940I218750J0D01*
G01*
X148349530Y-123598940D01*
G75*
G02*
X148568280Y-123817690I0J-218750D01*
G01*
X148568280Y-124255190D01*
G75*
G02*
X148349530Y-124473940I-218750J0D01*
G01*
G37*
%TD.AperFunction*%
%TO.P,D3,2*%
%TO.N,LED_STATUS*%
%TA.AperFunction,SMDPad,CuDef*%
G36*
G01*
X148349530Y-122898940D02*
X147837030Y-122898940D01*
G75*
G02*
X147618280Y-122680190I0J218750D01*
G01*
X147618280Y-122242690D01*
G75*
G02*
X147837030Y-122023940I218750J0D01*
G01*
X148349530Y-122023940D01*
G75*
G02*
X148568280Y-122242690I0J-218750D01*
G01*
X148568280Y-122680190D01*
G75*
G02*
X148349530Y-122898940I-218750J0D01*
G01*
G37*
%TD.AperFunction*%
%TD*%
%TO.P,D4,2*%
%TO.N,+3V3*%
%TA.AperFunction,SMDPad,CuDef*%
G36*
G01*
X175243750Y-137850000D02*
X175756250Y-137850000D01*
G75*
G02*
X175975000Y-138068750I0J-218750D01*
G01*
X175975000Y-138506250D01*
G75*
G02*
X175756250Y-138725000I-218750J0D01*
G01*
X175243750Y-138725000D01*
G75*
G02*
X175025000Y-138506250I0J218750D01*
G01*
X175025000Y-138068750D01*
G75*
G02*
X175243750Y-137850000I218750J0D01*
G01*
G37*
%TD.AperFunction*%
%TO.P,D4,1*%
%TO.N,Net-(D4-Pad1)*%
%TA.AperFunction,SMDPad,CuDef*%
G36*
G01*
X175243750Y-136275000D02*
X175756250Y-136275000D01*
G75*
G02*
X175975000Y-136493750I0J-218750D01*
G01*
X175975000Y-136931250D01*
G75*
G02*
X175756250Y-137150000I-218750J0D01*
G01*
X175243750Y-137150000D01*
G75*
G02*
X175025000Y-136931250I0J218750D01*
G01*
X175025000Y-136493750D01*
G75*
G02*
X175243750Y-136275000I218750J0D01*
G01*
G37*
%TD.AperFunction*%
%TD*%
%TO.P,F1,1*%
%TO.N,Net-(F1-Pad1)*%
%TA.AperFunction,SMDPad,CuDef*%
G36*
G01*
X172375000Y-123025000D02*
X172375000Y-121775000D01*
G75*
G02*
X172625000Y-121525000I250000J0D01*
G01*
X173375000Y-121525000D01*
G75*
G02*
X173625000Y-121775000I0J-250000D01*
G01*
X173625000Y-123025000D01*
G75*
G02*
X173375000Y-123275000I-250000J0D01*
G01*
X172625000Y-123275000D01*
G75*
G02*
X172375000Y-123025000I0J250000D01*
G01*
G37*
%TD.AperFunction*%
%TO.P,F1,2*%
%TO.N,Net-(D1-Pad1)*%
%TA.AperFunction,SMDPad,CuDef*%
G36*
G01*
X175175000Y-123025000D02*
X175175000Y-121775000D01*
G75*
G02*
X175425000Y-121525000I250000J0D01*
G01*
X176175000Y-121525000D01*
G75*
G02*
X176425000Y-121775000I0J-250000D01*
G01*
X176425000Y-123025000D01*
G75*
G02*
X176175000Y-123275000I-250000J0D01*
G01*
X175425000Y-123275000D01*
G75*
G02*
X175175000Y-123025000I0J250000D01*
G01*
G37*
%TD.AperFunction*%
%TD*%
%TO.P,FB1,2*%
%TO.N,Net-(F1-Pad1)*%
%TA.AperFunction,SMDPad,CuDef*%
G36*
G01*
X172481250Y-125325000D02*
X171718750Y-125325000D01*
G75*
G02*
X171500000Y-125106250I0J218750D01*
G01*
X171500000Y-124668750D01*
G75*
G02*
X171718750Y-124450000I218750J0D01*
G01*
X172481250Y-124450000D01*
G75*
G02*
X172700000Y-124668750I0J-218750D01*
G01*
X172700000Y-125106250D01*
G75*
G02*
X172481250Y-125325000I-218750J0D01*
G01*
G37*
%TD.AperFunction*%
%TO.P,FB1,1*%
%TO.N,BUCK_IN*%
%TA.AperFunction,SMDPad,CuDef*%
G36*
G01*
X172481250Y-127450000D02*
X171718750Y-127450000D01*
G75*
G02*
X171500000Y-127231250I0J218750D01*
G01*
X171500000Y-126793750D01*
G75*
G02*
X171718750Y-126575000I218750J0D01*
G01*
X172481250Y-126575000D01*
G75*
G02*
X172700000Y-126793750I0J-218750D01*
G01*
X172700000Y-127231250D01*
G75*
G02*
X172481250Y-127450000I-218750J0D01*
G01*
G37*
%TD.AperFunction*%
%TD*%
D13*
%TO.P,H1,1*%
%TO.N,GND*%
X140500000Y-96000000D03*
D14*
X143725000Y-96000000D03*
X142780419Y-98280419D03*
X140500000Y-99225000D03*
X138219581Y-98280419D03*
X137275000Y-96000000D03*
X138219581Y-93719581D03*
X140500000Y-92775000D03*
X142780419Y-93719581D03*
%TD*%
%TO.P,H2,1*%
%TO.N,GND*%
X187780419Y-93719581D03*
X185500000Y-92775000D03*
X183219581Y-93719581D03*
X182275000Y-96000000D03*
X183219581Y-98280419D03*
X185500000Y-99225000D03*
X187780419Y-98280419D03*
X188725000Y-96000000D03*
D13*
X185500000Y-96000000D03*
%TD*%
%TO.P,H3,1*%
%TO.N,GND*%
X185500000Y-136000000D03*
D14*
X188725000Y-136000000D03*
X187780419Y-138280419D03*
X185500000Y-139225000D03*
X183219581Y-138280419D03*
X182275000Y-136000000D03*
X183219581Y-133719581D03*
X185500000Y-132775000D03*
X187780419Y-133719581D03*
%TD*%
%TO.P,H4,1*%
%TO.N,GND*%
X142780419Y-133719581D03*
X140500000Y-132775000D03*
X138219581Y-133719581D03*
X137275000Y-136000000D03*
X138219581Y-138280419D03*
X140500000Y-139225000D03*
X142780419Y-138280419D03*
X143725000Y-136000000D03*
D13*
X140500000Y-136000000D03*
%TD*%
D15*
%TO.P,J1,1*%
%TO.N,+12V*%
X185000000Y-126500000D03*
D16*
%TO.P,J1,2*%
%TO.N,GND*%
X185000000Y-123000000D03*
%TD*%
D17*
%TO.P,J2,4*%
%TO.N,GND*%
X151250000Y-96500000D03*
%TO.P,J2,3*%
%TO.N,I2C1_SDA*%
X152500000Y-96500000D03*
%TO.P,J2,2*%
%TO.N,I2C1_SCL*%
X153750000Y-96500000D03*
%TO.P,J2,1*%
%TO.N,+3V3*%
%TA.AperFunction,ComponentPad*%
G36*
G01*
X155400000Y-96050000D02*
X155400000Y-96950000D01*
G75*
G02*
X155200000Y-97150000I-200000J0D01*
G01*
X154800000Y-97150000D01*
G75*
G02*
X154600000Y-96950000I0J200000D01*
G01*
X154600000Y-96050000D01*
G75*
G02*
X154800000Y-95850000I200000J0D01*
G01*
X155200000Y-95850000D01*
G75*
G02*
X155400000Y-96050000I0J-200000D01*
G01*
G37*
%TD.AperFunction*%
%TD*%
%TO.P,J4,1*%
%TO.N,+3V3*%
%TA.AperFunction,ComponentPad*%
G36*
G01*
X151100000Y-135950000D02*
X151100000Y-135050000D01*
G75*
G02*
X151300000Y-134850000I200000J0D01*
G01*
X151700000Y-134850000D01*
G75*
G02*
X151900000Y-135050000I0J-200000D01*
G01*
X151900000Y-135950000D01*
G75*
G02*
X151700000Y-136150000I-200000J0D01*
G01*
X151300000Y-136150000D01*
G75*
G02*
X151100000Y-135950000I0J200000D01*
G01*
G37*
%TD.AperFunction*%
%TO.P,J4,2*%
%TO.N,USART3_TX*%
X152750000Y-135500000D03*
%TO.P,J4,3*%
%TO.N,USART3_RX*%
X154000000Y-135500000D03*
%TO.P,J4,4*%
%TO.N,GND*%
X155250000Y-135500000D03*
%TD*%
D18*
%TO.P,J5,6*%
%TO.N,Net-(J5-Pad6)*%
X186470000Y-108820000D03*
X186470000Y-104180000D03*
D19*
X188700000Y-102925000D03*
X188700000Y-110075000D03*
D20*
X188700000Y-107625000D03*
D21*
%TO.P,J5,3*%
%TO.N,USB_CONN_D+*%
X186050000Y-106500000D03*
%TO.P,J5,4*%
%TO.N,Net-(J5-Pad4)*%
X186050000Y-105850000D03*
%TO.P,J5,5*%
%TO.N,GND*%
X186050000Y-105200000D03*
%TO.P,J5,1*%
%TO.N,+5V*%
X186050000Y-107800000D03*
%TO.P,J5,2*%
%TO.N,USB_CONN_D-*%
X186050000Y-107150000D03*
D20*
%TO.P,J5,6*%
%TO.N,Net-(J5-Pad6)*%
X188700000Y-105375000D03*
%TD*%
%TO.P,L1,1*%
%TO.N,+3.3VA*%
%TA.AperFunction,SMDPad,CuDef*%
G36*
G01*
X146760000Y-120328160D02*
X146760000Y-120673160D01*
G75*
G02*
X146612500Y-120820660I-147500J0D01*
G01*
X146317500Y-120820660D01*
G75*
G02*
X146170000Y-120673160I0J147500D01*
G01*
X146170000Y-120328160D01*
G75*
G02*
X146317500Y-120180660I147500J0D01*
G01*
X146612500Y-120180660D01*
G75*
G02*
X146760000Y-120328160I0J-147500D01*
G01*
G37*
%TD.AperFunction*%
%TO.P,L1,2*%
%TO.N,+3V3*%
%TA.AperFunction,SMDPad,CuDef*%
G36*
G01*
X145790000Y-120328160D02*
X145790000Y-120673160D01*
G75*
G02*
X145642500Y-120820660I-147500J0D01*
G01*
X145347500Y-120820660D01*
G75*
G02*
X145200000Y-120673160I0J147500D01*
G01*
X145200000Y-120328160D01*
G75*
G02*
X145347500Y-120180660I147500J0D01*
G01*
X145642500Y-120180660D01*
G75*
G02*
X145790000Y-120328160I0J-147500D01*
G01*
G37*
%TD.AperFunction*%
%TD*%
D22*
%TO.P,L2,1*%
%TO.N,BUCK_SW*%
X171141100Y-130800000D03*
%TO.P,L2,2*%
%TO.N,+3V3*%
X167041100Y-130800000D03*
%TD*%
D23*
%TO.P,Q1,1*%
%TO.N,GND*%
X179250000Y-128600000D03*
%TO.P,Q1,2*%
%TO.N,Net-(D1-Pad1)*%
X177350000Y-128600000D03*
%TO.P,Q1,3*%
%TO.N,+12V*%
X178300000Y-130600000D03*
%TD*%
%TO.P,R1,2*%
%TO.N,BUCK_IN*%
%TA.AperFunction,SMDPad,CuDef*%
G36*
G01*
X174525000Y-129775000D02*
X174525000Y-130325000D01*
G75*
G02*
X174325000Y-130525000I-200000J0D01*
G01*
X173925000Y-130525000D01*
G75*
G02*
X173725000Y-130325000I0J200000D01*
G01*
X173725000Y-129775000D01*
G75*
G02*
X173925000Y-129575000I200000J0D01*
G01*
X174325000Y-129575000D01*
G75*
G02*
X174525000Y-129775000I0J-200000D01*
G01*
G37*
%TD.AperFunction*%
%TO.P,R1,1*%
%TO.N,BUCK_EN*%
%TA.AperFunction,SMDPad,CuDef*%
G36*
G01*
X176175000Y-129775000D02*
X176175000Y-130325000D01*
G75*
G02*
X175975000Y-130525000I-200000J0D01*
G01*
X175575000Y-130525000D01*
G75*
G02*
X175375000Y-130325000I0J200000D01*
G01*
X175375000Y-129775000D01*
G75*
G02*
X175575000Y-129575000I200000J0D01*
G01*
X175975000Y-129575000D01*
G75*
G02*
X176175000Y-129775000I0J-200000D01*
G01*
G37*
%TD.AperFunction*%
%TD*%
%TO.P,R2,1*%
%TO.N,GND*%
%TA.AperFunction,SMDPad,CuDef*%
G36*
G01*
X176275000Y-124625000D02*
X176825000Y-124625000D01*
G75*
G02*
X177025000Y-124825000I0J-200000D01*
G01*
X177025000Y-125225000D01*
G75*
G02*
X176825000Y-125425000I-200000J0D01*
G01*
X176275000Y-125425000D01*
G75*
G02*
X176075000Y-125225000I0J200000D01*
G01*
X176075000Y-124825000D01*
G75*
G02*
X176275000Y-124625000I200000J0D01*
G01*
G37*
%TD.AperFunction*%
%TO.P,R2,2*%
%TO.N,BUCK_EN*%
%TA.AperFunction,SMDPad,CuDef*%
G36*
G01*
X176275000Y-126275000D02*
X176825000Y-126275000D01*
G75*
G02*
X177025000Y-126475000I0J-200000D01*
G01*
X177025000Y-126875000D01*
G75*
G02*
X176825000Y-127075000I-200000J0D01*
G01*
X176275000Y-127075000D01*
G75*
G02*
X176075000Y-126875000I0J200000D01*
G01*
X176075000Y-126475000D01*
G75*
G02*
X176275000Y-126275000I200000J0D01*
G01*
G37*
%TD.AperFunction*%
%TD*%
%TO.P,R3,2*%
%TO.N,+3V3*%
%TA.AperFunction,SMDPad,CuDef*%
G36*
G01*
X151260000Y-106915000D02*
X151260000Y-107285000D01*
G75*
G02*
X151125000Y-107420000I-135000J0D01*
G01*
X150855000Y-107420000D01*
G75*
G02*
X150720000Y-107285000I0J135000D01*
G01*
X150720000Y-106915000D01*
G75*
G02*
X150855000Y-106780000I135000J0D01*
G01*
X151125000Y-106780000D01*
G75*
G02*
X151260000Y-106915000I0J-135000D01*
G01*
G37*
%TD.AperFunction*%
%TO.P,R3,1*%
%TO.N,I2C1_SDA*%
%TA.AperFunction,SMDPad,CuDef*%
G36*
G01*
X152280000Y-106915000D02*
X152280000Y-107285000D01*
G75*
G02*
X152145000Y-107420000I-135000J0D01*
G01*
X151875000Y-107420000D01*
G75*
G02*
X151740000Y-107285000I0J135000D01*
G01*
X151740000Y-106915000D01*
G75*
G02*
X151875000Y-106780000I135000J0D01*
G01*
X152145000Y-106780000D01*
G75*
G02*
X152280000Y-106915000I0J-135000D01*
G01*
G37*
%TD.AperFunction*%
%TD*%
%TO.P,R4,2*%
%TO.N,+3V3*%
%TA.AperFunction,SMDPad,CuDef*%
G36*
G01*
X177025000Y-137000000D02*
X177575000Y-137000000D01*
G75*
G02*
X177775000Y-137200000I0J-200000D01*
G01*
X177775000Y-137600000D01*
G75*
G02*
X177575000Y-137800000I-200000J0D01*
G01*
X177025000Y-137800000D01*
G75*
G02*
X176825000Y-137600000I0J200000D01*
G01*
X176825000Y-137200000D01*
G75*
G02*
X177025000Y-137000000I200000J0D01*
G01*
G37*
%TD.AperFunction*%
%TO.P,R4,1*%
%TO.N,BUCK_FB*%
%TA.AperFunction,SMDPad,CuDef*%
G36*
G01*
X177025000Y-135350000D02*
X177575000Y-135350000D01*
G75*
G02*
X177775000Y-135550000I0J-200000D01*
G01*
X177775000Y-135950000D01*
G75*
G02*
X177575000Y-136150000I-200000J0D01*
G01*
X177025000Y-136150000D01*
G75*
G02*
X176825000Y-135950000I0J200000D01*
G01*
X176825000Y-135550000D01*
G75*
G02*
X177025000Y-135350000I200000J0D01*
G01*
G37*
%TD.AperFunction*%
%TD*%
%TO.P,R5,1*%
%TO.N,Net-(R5-Pad1)*%
%TA.AperFunction,SMDPad,CuDef*%
G36*
G01*
X177075000Y-131875000D02*
X177625000Y-131875000D01*
G75*
G02*
X177825000Y-132075000I0J-200000D01*
G01*
X177825000Y-132475000D01*
G75*
G02*
X177625000Y-132675000I-200000J0D01*
G01*
X177075000Y-132675000D01*
G75*
G02*
X176875000Y-132475000I0J200000D01*
G01*
X176875000Y-132075000D01*
G75*
G02*
X177075000Y-131875000I200000J0D01*
G01*
G37*
%TD.AperFunction*%
%TO.P,R5,2*%
%TO.N,BUCK_FB*%
%TA.AperFunction,SMDPad,CuDef*%
G36*
G01*
X177075000Y-133525000D02*
X177625000Y-133525000D01*
G75*
G02*
X177825000Y-133725000I0J-200000D01*
G01*
X177825000Y-134125000D01*
G75*
G02*
X177625000Y-134325000I-200000J0D01*
G01*
X177075000Y-134325000D01*
G75*
G02*
X176875000Y-134125000I0J200000D01*
G01*
X176875000Y-133725000D01*
G75*
G02*
X177075000Y-133525000I200000J0D01*
G01*
G37*
%TD.AperFunction*%
%TD*%
%TO.P,R6,2*%
%TO.N,Net-(R5-Pad1)*%
%TA.AperFunction,SMDPad,CuDef*%
G36*
G01*
X179375000Y-132675000D02*
X178825000Y-132675000D01*
G75*
G02*
X178625000Y-132475000I0J200000D01*
G01*
X178625000Y-132075000D01*
G75*
G02*
X178825000Y-131875000I200000J0D01*
G01*
X179375000Y-131875000D01*
G75*
G02*
X179575000Y-132075000I0J-200000D01*
G01*
X179575000Y-132475000D01*
G75*
G02*
X179375000Y-132675000I-200000J0D01*
G01*
G37*
%TD.AperFunction*%
%TO.P,R6,1*%
%TO.N,GND*%
%TA.AperFunction,SMDPad,CuDef*%
G36*
G01*
X179375000Y-134325000D02*
X178825000Y-134325000D01*
G75*
G02*
X178625000Y-134125000I0J200000D01*
G01*
X178625000Y-133725000D01*
G75*
G02*
X178825000Y-133525000I200000J0D01*
G01*
X179375000Y-133525000D01*
G75*
G02*
X179575000Y-133725000I0J-200000D01*
G01*
X179575000Y-134125000D01*
G75*
G02*
X179375000Y-134325000I-200000J0D01*
G01*
G37*
%TD.AperFunction*%
%TD*%
%TO.P,R7,1*%
%TO.N,Net-(R7-Pad1)*%
%TA.AperFunction,SMDPad,CuDef*%
G36*
G01*
X141220000Y-107685000D02*
X141220000Y-107315000D01*
G75*
G02*
X141355000Y-107180000I135000J0D01*
G01*
X141625000Y-107180000D01*
G75*
G02*
X141760000Y-107315000I0J-135000D01*
G01*
X141760000Y-107685000D01*
G75*
G02*
X141625000Y-107820000I-135000J0D01*
G01*
X141355000Y-107820000D01*
G75*
G02*
X141220000Y-107685000I0J135000D01*
G01*
G37*
%TD.AperFunction*%
%TO.P,R7,2*%
%TO.N,BOOT0*%
%TA.AperFunction,SMDPad,CuDef*%
G36*
G01*
X142240000Y-107685000D02*
X142240000Y-107315000D01*
G75*
G02*
X142375000Y-107180000I135000J0D01*
G01*
X142645000Y-107180000D01*
G75*
G02*
X142780000Y-107315000I0J-135000D01*
G01*
X142780000Y-107685000D01*
G75*
G02*
X142645000Y-107820000I-135000J0D01*
G01*
X142375000Y-107820000D01*
G75*
G02*
X142240000Y-107685000I0J135000D01*
G01*
G37*
%TD.AperFunction*%
%TD*%
%TO.P,R8,1*%
%TO.N,I2C1_SCL*%
%TA.AperFunction,SMDPad,CuDef*%
G36*
G01*
X153270000Y-107260000D02*
X153270000Y-106890000D01*
G75*
G02*
X153405000Y-106755000I135000J0D01*
G01*
X153675000Y-106755000D01*
G75*
G02*
X153810000Y-106890000I0J-135000D01*
G01*
X153810000Y-107260000D01*
G75*
G02*
X153675000Y-107395000I-135000J0D01*
G01*
X153405000Y-107395000D01*
G75*
G02*
X153270000Y-107260000I0J135000D01*
G01*
G37*
%TD.AperFunction*%
%TO.P,R8,2*%
%TO.N,+3V3*%
%TA.AperFunction,SMDPad,CuDef*%
G36*
G01*
X154290000Y-107260000D02*
X154290000Y-106890000D01*
G75*
G02*
X154425000Y-106755000I135000J0D01*
G01*
X154695000Y-106755000D01*
G75*
G02*
X154830000Y-106890000I0J-135000D01*
G01*
X154830000Y-107260000D01*
G75*
G02*
X154695000Y-107395000I-135000J0D01*
G01*
X154425000Y-107395000D01*
G75*
G02*
X154290000Y-107260000I0J135000D01*
G01*
G37*
%TD.AperFunction*%
%TD*%
%TO.P,R9,1*%
%TO.N,GND*%
%TA.AperFunction,SMDPad,CuDef*%
G36*
G01*
X145964080Y-121988380D02*
X146514080Y-121988380D01*
G75*
G02*
X146714080Y-122188380I0J-200000D01*
G01*
X146714080Y-122588380D01*
G75*
G02*
X146514080Y-122788380I-200000J0D01*
G01*
X145964080Y-122788380D01*
G75*
G02*
X145764080Y-122588380I0J200000D01*
G01*
X145764080Y-122188380D01*
G75*
G02*
X145964080Y-121988380I200000J0D01*
G01*
G37*
%TD.AperFunction*%
%TO.P,R9,2*%
%TO.N,Net-(D3-Pad1)*%
%TA.AperFunction,SMDPad,CuDef*%
G36*
G01*
X145964080Y-123638380D02*
X146514080Y-123638380D01*
G75*
G02*
X146714080Y-123838380I0J-200000D01*
G01*
X146714080Y-124238380D01*
G75*
G02*
X146514080Y-124438380I-200000J0D01*
G01*
X145964080Y-124438380D01*
G75*
G02*
X145764080Y-124238380I0J200000D01*
G01*
X145764080Y-123838380D01*
G75*
G02*
X145964080Y-123638380I200000J0D01*
G01*
G37*
%TD.AperFunction*%
%TD*%
%TO.P,R10,2*%
%TO.N,HSE_OUT*%
%TA.AperFunction,SMDPad,CuDef*%
G36*
G01*
X146237780Y-115483740D02*
X146237780Y-115113740D01*
G75*
G02*
X146372780Y-114978740I135000J0D01*
G01*
X146642780Y-114978740D01*
G75*
G02*
X146777780Y-115113740I0J-135000D01*
G01*
X146777780Y-115483740D01*
G75*
G02*
X146642780Y-115618740I-135000J0D01*
G01*
X146372780Y-115618740D01*
G75*
G02*
X146237780Y-115483740I0J135000D01*
G01*
G37*
%TD.AperFunction*%
%TO.P,R10,1*%
%TO.N,Net-(C15-Pad1)*%
%TA.AperFunction,SMDPad,CuDef*%
G36*
G01*
X145217780Y-115483740D02*
X145217780Y-115113740D01*
G75*
G02*
X145352780Y-114978740I135000J0D01*
G01*
X145622780Y-114978740D01*
G75*
G02*
X145757780Y-115113740I0J-135000D01*
G01*
X145757780Y-115483740D01*
G75*
G02*
X145622780Y-115618740I-135000J0D01*
G01*
X145352780Y-115618740D01*
G75*
G02*
X145217780Y-115483740I0J135000D01*
G01*
G37*
%TD.AperFunction*%
%TD*%
%TO.P,R11,1*%
%TO.N,GND*%
%TA.AperFunction,SMDPad,CuDef*%
G36*
G01*
X174150000Y-138700000D02*
X173600000Y-138700000D01*
G75*
G02*
X173400000Y-138500000I0J200000D01*
G01*
X173400000Y-138100000D01*
G75*
G02*
X173600000Y-137900000I200000J0D01*
G01*
X174150000Y-137900000D01*
G75*
G02*
X174350000Y-138100000I0J-200000D01*
G01*
X174350000Y-138500000D01*
G75*
G02*
X174150000Y-138700000I-200000J0D01*
G01*
G37*
%TD.AperFunction*%
%TO.P,R11,2*%
%TO.N,Net-(D4-Pad1)*%
%TA.AperFunction,SMDPad,CuDef*%
G36*
G01*
X174150000Y-137050000D02*
X173600000Y-137050000D01*
G75*
G02*
X173400000Y-136850000I0J200000D01*
G01*
X173400000Y-136450000D01*
G75*
G02*
X173600000Y-136250000I200000J0D01*
G01*
X174150000Y-136250000D01*
G75*
G02*
X174350000Y-136450000I0J-200000D01*
G01*
X174350000Y-136850000D01*
G75*
G02*
X174150000Y-137050000I-200000J0D01*
G01*
G37*
%TD.AperFunction*%
%TD*%
D24*
%TO.P,SW1,1*%
%TO.N,+3V3*%
X139430000Y-104750000D03*
%TO.P,SW1,2*%
%TO.N,Net-(R7-Pad1)*%
X139430000Y-107750000D03*
%TO.P,SW1,3*%
%TO.N,GND*%
X139430000Y-109250000D03*
D25*
%TO.P,SW1,*%
%TO.N,*%
X136570000Y-103350000D03*
X136570000Y-110650000D03*
X138780000Y-110650000D03*
X138780000Y-103350000D03*
%TD*%
%TO.P,U1,1*%
%TO.N,+3V3*%
%TA.AperFunction,SMDPad,CuDef*%
G36*
G01*
X147322720Y-112319700D02*
X147322720Y-112169700D01*
G75*
G02*
X147397720Y-112094700I75000J0D01*
G01*
X148797720Y-112094700D01*
G75*
G02*
X148872720Y-112169700I0J-75000D01*
G01*
X148872720Y-112319700D01*
G75*
G02*
X148797720Y-112394700I-75000J0D01*
G01*
X147397720Y-112394700D01*
G75*
G02*
X147322720Y-112319700I0J75000D01*
G01*
G37*
%TD.AperFunction*%
%TO.P,U1,2*%
%TO.N,Net-(U1-Pad2)*%
%TA.AperFunction,SMDPad,CuDef*%
G36*
G01*
X147322720Y-112819700D02*
X147322720Y-112669700D01*
G75*
G02*
X147397720Y-112594700I75000J0D01*
G01*
X148797720Y-112594700D01*
G75*
G02*
X148872720Y-112669700I0J-75000D01*
G01*
X148872720Y-112819700D01*
G75*
G02*
X148797720Y-112894700I-75000J0D01*
G01*
X147397720Y-112894700D01*
G75*
G02*
X147322720Y-112819700I0J75000D01*
G01*
G37*
%TD.AperFunction*%
%TO.P,U1,3*%
%TO.N,Net-(U1-Pad3)*%
%TA.AperFunction,SMDPad,CuDef*%
G36*
G01*
X147322720Y-113319700D02*
X147322720Y-113169700D01*
G75*
G02*
X147397720Y-113094700I75000J0D01*
G01*
X148797720Y-113094700D01*
G75*
G02*
X148872720Y-113169700I0J-75000D01*
G01*
X148872720Y-113319700D01*
G75*
G02*
X148797720Y-113394700I-75000J0D01*
G01*
X147397720Y-113394700D01*
G75*
G02*
X147322720Y-113319700I0J75000D01*
G01*
G37*
%TD.AperFunction*%
%TO.P,U1,4*%
%TO.N,Net-(U1-Pad4)*%
%TA.AperFunction,SMDPad,CuDef*%
G36*
G01*
X147322720Y-113819700D02*
X147322720Y-113669700D01*
G75*
G02*
X147397720Y-113594700I75000J0D01*
G01*
X148797720Y-113594700D01*
G75*
G02*
X148872720Y-113669700I0J-75000D01*
G01*
X148872720Y-113819700D01*
G75*
G02*
X148797720Y-113894700I-75000J0D01*
G01*
X147397720Y-113894700D01*
G75*
G02*
X147322720Y-113819700I0J75000D01*
G01*
G37*
%TD.AperFunction*%
%TO.P,U1,5*%
%TO.N,HSE_IN*%
%TA.AperFunction,SMDPad,CuDef*%
G36*
G01*
X147322720Y-114319700D02*
X147322720Y-114169700D01*
G75*
G02*
X147397720Y-114094700I75000J0D01*
G01*
X148797720Y-114094700D01*
G75*
G02*
X148872720Y-114169700I0J-75000D01*
G01*
X148872720Y-114319700D01*
G75*
G02*
X148797720Y-114394700I-75000J0D01*
G01*
X147397720Y-114394700D01*
G75*
G02*
X147322720Y-114319700I0J75000D01*
G01*
G37*
%TD.AperFunction*%
%TO.P,U1,6*%
%TO.N,HSE_OUT*%
%TA.AperFunction,SMDPad,CuDef*%
G36*
G01*
X147322720Y-114819700D02*
X147322720Y-114669700D01*
G75*
G02*
X147397720Y-114594700I75000J0D01*
G01*
X148797720Y-114594700D01*
G75*
G02*
X148872720Y-114669700I0J-75000D01*
G01*
X148872720Y-114819700D01*
G75*
G02*
X148797720Y-114894700I-75000J0D01*
G01*
X147397720Y-114894700D01*
G75*
G02*
X147322720Y-114819700I0J75000D01*
G01*
G37*
%TD.AperFunction*%
%TO.P,U1,7*%
%TO.N,NRST*%
%TA.AperFunction,SMDPad,CuDef*%
G36*
G01*
X147322720Y-115319700D02*
X147322720Y-115169700D01*
G75*
G02*
X147397720Y-115094700I75000J0D01*
G01*
X148797720Y-115094700D01*
G75*
G02*
X148872720Y-115169700I0J-75000D01*
G01*
X148872720Y-115319700D01*
G75*
G02*
X148797720Y-115394700I-75000J0D01*
G01*
X147397720Y-115394700D01*
G75*
G02*
X147322720Y-115319700I0J75000D01*
G01*
G37*
%TD.AperFunction*%
%TO.P,U1,8*%
%TO.N,Net-(U1-Pad8)*%
%TA.AperFunction,SMDPad,CuDef*%
G36*
G01*
X147322720Y-115819700D02*
X147322720Y-115669700D01*
G75*
G02*
X147397720Y-115594700I75000J0D01*
G01*
X148797720Y-115594700D01*
G75*
G02*
X148872720Y-115669700I0J-75000D01*
G01*
X148872720Y-115819700D01*
G75*
G02*
X148797720Y-115894700I-75000J0D01*
G01*
X147397720Y-115894700D01*
G75*
G02*
X147322720Y-115819700I0J75000D01*
G01*
G37*
%TD.AperFunction*%
%TO.P,U1,9*%
%TO.N,Net-(U1-Pad9)*%
%TA.AperFunction,SMDPad,CuDef*%
G36*
G01*
X147322720Y-116319700D02*
X147322720Y-116169700D01*
G75*
G02*
X147397720Y-116094700I75000J0D01*
G01*
X148797720Y-116094700D01*
G75*
G02*
X148872720Y-116169700I0J-75000D01*
G01*
X148872720Y-116319700D01*
G75*
G02*
X148797720Y-116394700I-75000J0D01*
G01*
X147397720Y-116394700D01*
G75*
G02*
X147322720Y-116319700I0J75000D01*
G01*
G37*
%TD.AperFunction*%
%TO.P,U1,10*%
%TO.N,Net-(U1-Pad10)*%
%TA.AperFunction,SMDPad,CuDef*%
G36*
G01*
X147322720Y-116819700D02*
X147322720Y-116669700D01*
G75*
G02*
X147397720Y-116594700I75000J0D01*
G01*
X148797720Y-116594700D01*
G75*
G02*
X148872720Y-116669700I0J-75000D01*
G01*
X148872720Y-116819700D01*
G75*
G02*
X148797720Y-116894700I-75000J0D01*
G01*
X147397720Y-116894700D01*
G75*
G02*
X147322720Y-116819700I0J75000D01*
G01*
G37*
%TD.AperFunction*%
%TO.P,U1,11*%
%TO.N,Net-(U1-Pad11)*%
%TA.AperFunction,SMDPad,CuDef*%
G36*
G01*
X147322720Y-117319700D02*
X147322720Y-117169700D01*
G75*
G02*
X147397720Y-117094700I75000J0D01*
G01*
X148797720Y-117094700D01*
G75*
G02*
X148872720Y-117169700I0J-75000D01*
G01*
X148872720Y-117319700D01*
G75*
G02*
X148797720Y-117394700I-75000J0D01*
G01*
X147397720Y-117394700D01*
G75*
G02*
X147322720Y-117319700I0J75000D01*
G01*
G37*
%TD.AperFunction*%
%TO.P,U1,12*%
%TO.N,GND*%
%TA.AperFunction,SMDPad,CuDef*%
G36*
G01*
X147322720Y-117819700D02*
X147322720Y-117669700D01*
G75*
G02*
X147397720Y-117594700I75000J0D01*
G01*
X148797720Y-117594700D01*
G75*
G02*
X148872720Y-117669700I0J-75000D01*
G01*
X148872720Y-117819700D01*
G75*
G02*
X148797720Y-117894700I-75000J0D01*
G01*
X147397720Y-117894700D01*
G75*
G02*
X147322720Y-117819700I0J75000D01*
G01*
G37*
%TD.AperFunction*%
%TO.P,U1,13*%
%TO.N,+3.3VA*%
%TA.AperFunction,SMDPad,CuDef*%
G36*
G01*
X147322720Y-118319700D02*
X147322720Y-118169700D01*
G75*
G02*
X147397720Y-118094700I75000J0D01*
G01*
X148797720Y-118094700D01*
G75*
G02*
X148872720Y-118169700I0J-75000D01*
G01*
X148872720Y-118319700D01*
G75*
G02*
X148797720Y-118394700I-75000J0D01*
G01*
X147397720Y-118394700D01*
G75*
G02*
X147322720Y-118319700I0J75000D01*
G01*
G37*
%TD.AperFunction*%
%TO.P,U1,14*%
%TO.N,Net-(U1-Pad14)*%
%TA.AperFunction,SMDPad,CuDef*%
G36*
G01*
X147322720Y-118819700D02*
X147322720Y-118669700D01*
G75*
G02*
X147397720Y-118594700I75000J0D01*
G01*
X148797720Y-118594700D01*
G75*
G02*
X148872720Y-118669700I0J-75000D01*
G01*
X148872720Y-118819700D01*
G75*
G02*
X148797720Y-118894700I-75000J0D01*
G01*
X147397720Y-118894700D01*
G75*
G02*
X147322720Y-118819700I0J75000D01*
G01*
G37*
%TD.AperFunction*%
%TO.P,U1,15*%
%TO.N,Net-(U1-Pad15)*%
%TA.AperFunction,SMDPad,CuDef*%
G36*
G01*
X147322720Y-119319700D02*
X147322720Y-119169700D01*
G75*
G02*
X147397720Y-119094700I75000J0D01*
G01*
X148797720Y-119094700D01*
G75*
G02*
X148872720Y-119169700I0J-75000D01*
G01*
X148872720Y-119319700D01*
G75*
G02*
X148797720Y-119394700I-75000J0D01*
G01*
X147397720Y-119394700D01*
G75*
G02*
X147322720Y-119319700I0J75000D01*
G01*
G37*
%TD.AperFunction*%
%TO.P,U1,16*%
%TO.N,LED_STATUS*%
%TA.AperFunction,SMDPad,CuDef*%
G36*
G01*
X147322720Y-119819700D02*
X147322720Y-119669700D01*
G75*
G02*
X147397720Y-119594700I75000J0D01*
G01*
X148797720Y-119594700D01*
G75*
G02*
X148872720Y-119669700I0J-75000D01*
G01*
X148872720Y-119819700D01*
G75*
G02*
X148797720Y-119894700I-75000J0D01*
G01*
X147397720Y-119894700D01*
G75*
G02*
X147322720Y-119819700I0J75000D01*
G01*
G37*
%TD.AperFunction*%
%TO.P,U1,17*%
%TO.N,Net-(U1-Pad17)*%
%TA.AperFunction,SMDPad,CuDef*%
G36*
G01*
X149872720Y-122369700D02*
X149872720Y-120969700D01*
G75*
G02*
X149947720Y-120894700I75000J0D01*
G01*
X150097720Y-120894700D01*
G75*
G02*
X150172720Y-120969700I0J-75000D01*
G01*
X150172720Y-122369700D01*
G75*
G02*
X150097720Y-122444700I-75000J0D01*
G01*
X149947720Y-122444700D01*
G75*
G02*
X149872720Y-122369700I0J75000D01*
G01*
G37*
%TD.AperFunction*%
%TO.P,U1,18*%
%TO.N,GND*%
%TA.AperFunction,SMDPad,CuDef*%
G36*
G01*
X150372720Y-122369700D02*
X150372720Y-120969700D01*
G75*
G02*
X150447720Y-120894700I75000J0D01*
G01*
X150597720Y-120894700D01*
G75*
G02*
X150672720Y-120969700I0J-75000D01*
G01*
X150672720Y-122369700D01*
G75*
G02*
X150597720Y-122444700I-75000J0D01*
G01*
X150447720Y-122444700D01*
G75*
G02*
X150372720Y-122369700I0J75000D01*
G01*
G37*
%TD.AperFunction*%
%TO.P,U1,19*%
%TO.N,+3V3*%
%TA.AperFunction,SMDPad,CuDef*%
G36*
G01*
X150872720Y-122369700D02*
X150872720Y-120969700D01*
G75*
G02*
X150947720Y-120894700I75000J0D01*
G01*
X151097720Y-120894700D01*
G75*
G02*
X151172720Y-120969700I0J-75000D01*
G01*
X151172720Y-122369700D01*
G75*
G02*
X151097720Y-122444700I-75000J0D01*
G01*
X150947720Y-122444700D01*
G75*
G02*
X150872720Y-122369700I0J75000D01*
G01*
G37*
%TD.AperFunction*%
%TO.P,U1,20*%
%TO.N,Net-(U1-Pad20)*%
%TA.AperFunction,SMDPad,CuDef*%
G36*
G01*
X151372720Y-122369700D02*
X151372720Y-120969700D01*
G75*
G02*
X151447720Y-120894700I75000J0D01*
G01*
X151597720Y-120894700D01*
G75*
G02*
X151672720Y-120969700I0J-75000D01*
G01*
X151672720Y-122369700D01*
G75*
G02*
X151597720Y-122444700I-75000J0D01*
G01*
X151447720Y-122444700D01*
G75*
G02*
X151372720Y-122369700I0J75000D01*
G01*
G37*
%TD.AperFunction*%
%TO.P,U1,21*%
%TO.N,Net-(U1-Pad21)*%
%TA.AperFunction,SMDPad,CuDef*%
G36*
G01*
X151872720Y-122369700D02*
X151872720Y-120969700D01*
G75*
G02*
X151947720Y-120894700I75000J0D01*
G01*
X152097720Y-120894700D01*
G75*
G02*
X152172720Y-120969700I0J-75000D01*
G01*
X152172720Y-122369700D01*
G75*
G02*
X152097720Y-122444700I-75000J0D01*
G01*
X151947720Y-122444700D01*
G75*
G02*
X151872720Y-122369700I0J75000D01*
G01*
G37*
%TD.AperFunction*%
%TO.P,U1,22*%
%TO.N,Net-(U1-Pad22)*%
%TA.AperFunction,SMDPad,CuDef*%
G36*
G01*
X152372720Y-122369700D02*
X152372720Y-120969700D01*
G75*
G02*
X152447720Y-120894700I75000J0D01*
G01*
X152597720Y-120894700D01*
G75*
G02*
X152672720Y-120969700I0J-75000D01*
G01*
X152672720Y-122369700D01*
G75*
G02*
X152597720Y-122444700I-75000J0D01*
G01*
X152447720Y-122444700D01*
G75*
G02*
X152372720Y-122369700I0J75000D01*
G01*
G37*
%TD.AperFunction*%
%TO.P,U1,23*%
%TO.N,Net-(U1-Pad23)*%
%TA.AperFunction,SMDPad,CuDef*%
G36*
G01*
X152872720Y-122369700D02*
X152872720Y-120969700D01*
G75*
G02*
X152947720Y-120894700I75000J0D01*
G01*
X153097720Y-120894700D01*
G75*
G02*
X153172720Y-120969700I0J-75000D01*
G01*
X153172720Y-122369700D01*
G75*
G02*
X153097720Y-122444700I-75000J0D01*
G01*
X152947720Y-122444700D01*
G75*
G02*
X152872720Y-122369700I0J75000D01*
G01*
G37*
%TD.AperFunction*%
%TO.P,U1,24*%
%TO.N,Net-(U1-Pad24)*%
%TA.AperFunction,SMDPad,CuDef*%
G36*
G01*
X153372720Y-122369700D02*
X153372720Y-120969700D01*
G75*
G02*
X153447720Y-120894700I75000J0D01*
G01*
X153597720Y-120894700D01*
G75*
G02*
X153672720Y-120969700I0J-75000D01*
G01*
X153672720Y-122369700D01*
G75*
G02*
X153597720Y-122444700I-75000J0D01*
G01*
X153447720Y-122444700D01*
G75*
G02*
X153372720Y-122369700I0J75000D01*
G01*
G37*
%TD.AperFunction*%
%TO.P,U1,25*%
%TO.N,Net-(U1-Pad25)*%
%TA.AperFunction,SMDPad,CuDef*%
G36*
G01*
X153872720Y-122369700D02*
X153872720Y-120969700D01*
G75*
G02*
X153947720Y-120894700I75000J0D01*
G01*
X154097720Y-120894700D01*
G75*
G02*
X154172720Y-120969700I0J-75000D01*
G01*
X154172720Y-122369700D01*
G75*
G02*
X154097720Y-122444700I-75000J0D01*
G01*
X153947720Y-122444700D01*
G75*
G02*
X153872720Y-122369700I0J75000D01*
G01*
G37*
%TD.AperFunction*%
%TO.P,U1,26*%
%TO.N,Net-(U1-Pad26)*%
%TA.AperFunction,SMDPad,CuDef*%
G36*
G01*
X154372720Y-122369700D02*
X154372720Y-120969700D01*
G75*
G02*
X154447720Y-120894700I75000J0D01*
G01*
X154597720Y-120894700D01*
G75*
G02*
X154672720Y-120969700I0J-75000D01*
G01*
X154672720Y-122369700D01*
G75*
G02*
X154597720Y-122444700I-75000J0D01*
G01*
X154447720Y-122444700D01*
G75*
G02*
X154372720Y-122369700I0J75000D01*
G01*
G37*
%TD.AperFunction*%
%TO.P,U1,27*%
%TO.N,Net-(U1-Pad27)*%
%TA.AperFunction,SMDPad,CuDef*%
G36*
G01*
X154872720Y-122369700D02*
X154872720Y-120969700D01*
G75*
G02*
X154947720Y-120894700I75000J0D01*
G01*
X155097720Y-120894700D01*
G75*
G02*
X155172720Y-120969700I0J-75000D01*
G01*
X155172720Y-122369700D01*
G75*
G02*
X155097720Y-122444700I-75000J0D01*
G01*
X154947720Y-122444700D01*
G75*
G02*
X154872720Y-122369700I0J75000D01*
G01*
G37*
%TD.AperFunction*%
%TO.P,U1,28*%
%TO.N,Net-(U1-Pad28)*%
%TA.AperFunction,SMDPad,CuDef*%
G36*
G01*
X155372720Y-122369700D02*
X155372720Y-120969700D01*
G75*
G02*
X155447720Y-120894700I75000J0D01*
G01*
X155597720Y-120894700D01*
G75*
G02*
X155672720Y-120969700I0J-75000D01*
G01*
X155672720Y-122369700D01*
G75*
G02*
X155597720Y-122444700I-75000J0D01*
G01*
X155447720Y-122444700D01*
G75*
G02*
X155372720Y-122369700I0J75000D01*
G01*
G37*
%TD.AperFunction*%
%TO.P,U1,29*%
%TO.N,USART3_TX*%
%TA.AperFunction,SMDPad,CuDef*%
G36*
G01*
X155872720Y-122369700D02*
X155872720Y-120969700D01*
G75*
G02*
X155947720Y-120894700I75000J0D01*
G01*
X156097720Y-120894700D01*
G75*
G02*
X156172720Y-120969700I0J-75000D01*
G01*
X156172720Y-122369700D01*
G75*
G02*
X156097720Y-122444700I-75000J0D01*
G01*
X155947720Y-122444700D01*
G75*
G02*
X155872720Y-122369700I0J75000D01*
G01*
G37*
%TD.AperFunction*%
%TO.P,U1,30*%
%TO.N,USART3_RX*%
%TA.AperFunction,SMDPad,CuDef*%
G36*
G01*
X156372720Y-122369700D02*
X156372720Y-120969700D01*
G75*
G02*
X156447720Y-120894700I75000J0D01*
G01*
X156597720Y-120894700D01*
G75*
G02*
X156672720Y-120969700I0J-75000D01*
G01*
X156672720Y-122369700D01*
G75*
G02*
X156597720Y-122444700I-75000J0D01*
G01*
X156447720Y-122444700D01*
G75*
G02*
X156372720Y-122369700I0J75000D01*
G01*
G37*
%TD.AperFunction*%
%TO.P,U1,31*%
%TO.N,Net-(C2-Pad1)*%
%TA.AperFunction,SMDPad,CuDef*%
G36*
G01*
X156872720Y-122369700D02*
X156872720Y-120969700D01*
G75*
G02*
X156947720Y-120894700I75000J0D01*
G01*
X157097720Y-120894700D01*
G75*
G02*
X157172720Y-120969700I0J-75000D01*
G01*
X157172720Y-122369700D01*
G75*
G02*
X157097720Y-122444700I-75000J0D01*
G01*
X156947720Y-122444700D01*
G75*
G02*
X156872720Y-122369700I0J75000D01*
G01*
G37*
%TD.AperFunction*%
%TO.P,U1,32*%
%TO.N,+3V3*%
%TA.AperFunction,SMDPad,CuDef*%
G36*
G01*
X157372720Y-122369700D02*
X157372720Y-120969700D01*
G75*
G02*
X157447720Y-120894700I75000J0D01*
G01*
X157597720Y-120894700D01*
G75*
G02*
X157672720Y-120969700I0J-75000D01*
G01*
X157672720Y-122369700D01*
G75*
G02*
X157597720Y-122444700I-75000J0D01*
G01*
X157447720Y-122444700D01*
G75*
G02*
X157372720Y-122369700I0J75000D01*
G01*
G37*
%TD.AperFunction*%
%TO.P,U1,33*%
%TO.N,Net-(U1-Pad33)*%
%TA.AperFunction,SMDPad,CuDef*%
G36*
G01*
X158672720Y-119819700D02*
X158672720Y-119669700D01*
G75*
G02*
X158747720Y-119594700I75000J0D01*
G01*
X160147720Y-119594700D01*
G75*
G02*
X160222720Y-119669700I0J-75000D01*
G01*
X160222720Y-119819700D01*
G75*
G02*
X160147720Y-119894700I-75000J0D01*
G01*
X158747720Y-119894700D01*
G75*
G02*
X158672720Y-119819700I0J75000D01*
G01*
G37*
%TD.AperFunction*%
%TO.P,U1,34*%
%TO.N,Net-(U1-Pad34)*%
%TA.AperFunction,SMDPad,CuDef*%
G36*
G01*
X158672720Y-119319700D02*
X158672720Y-119169700D01*
G75*
G02*
X158747720Y-119094700I75000J0D01*
G01*
X160147720Y-119094700D01*
G75*
G02*
X160222720Y-119169700I0J-75000D01*
G01*
X160222720Y-119319700D01*
G75*
G02*
X160147720Y-119394700I-75000J0D01*
G01*
X158747720Y-119394700D01*
G75*
G02*
X158672720Y-119319700I0J75000D01*
G01*
G37*
%TD.AperFunction*%
%TO.P,U1,35*%
%TO.N,Net-(U1-Pad35)*%
%TA.AperFunction,SMDPad,CuDef*%
G36*
G01*
X158672720Y-118819700D02*
X158672720Y-118669700D01*
G75*
G02*
X158747720Y-118594700I75000J0D01*
G01*
X160147720Y-118594700D01*
G75*
G02*
X160222720Y-118669700I0J-75000D01*
G01*
X160222720Y-118819700D01*
G75*
G02*
X160147720Y-118894700I-75000J0D01*
G01*
X158747720Y-118894700D01*
G75*
G02*
X158672720Y-118819700I0J75000D01*
G01*
G37*
%TD.AperFunction*%
%TO.P,U1,36*%
%TO.N,Net-(U1-Pad36)*%
%TA.AperFunction,SMDPad,CuDef*%
G36*
G01*
X158672720Y-118319700D02*
X158672720Y-118169700D01*
G75*
G02*
X158747720Y-118094700I75000J0D01*
G01*
X160147720Y-118094700D01*
G75*
G02*
X160222720Y-118169700I0J-75000D01*
G01*
X160222720Y-118319700D01*
G75*
G02*
X160147720Y-118394700I-75000J0D01*
G01*
X158747720Y-118394700D01*
G75*
G02*
X158672720Y-118319700I0J75000D01*
G01*
G37*
%TD.AperFunction*%
%TO.P,U1,37*%
%TO.N,Net-(U1-Pad37)*%
%TA.AperFunction,SMDPad,CuDef*%
G36*
G01*
X158672720Y-117819700D02*
X158672720Y-117669700D01*
G75*
G02*
X158747720Y-117594700I75000J0D01*
G01*
X160147720Y-117594700D01*
G75*
G02*
X160222720Y-117669700I0J-75000D01*
G01*
X160222720Y-117819700D01*
G75*
G02*
X160147720Y-117894700I-75000J0D01*
G01*
X158747720Y-117894700D01*
G75*
G02*
X158672720Y-117819700I0J75000D01*
G01*
G37*
%TD.AperFunction*%
%TO.P,U1,38*%
%TO.N,Net-(U1-Pad38)*%
%TA.AperFunction,SMDPad,CuDef*%
G36*
G01*
X158672720Y-117319700D02*
X158672720Y-117169700D01*
G75*
G02*
X158747720Y-117094700I75000J0D01*
G01*
X160147720Y-117094700D01*
G75*
G02*
X160222720Y-117169700I0J-75000D01*
G01*
X160222720Y-117319700D01*
G75*
G02*
X160147720Y-117394700I-75000J0D01*
G01*
X158747720Y-117394700D01*
G75*
G02*
X158672720Y-117319700I0J75000D01*
G01*
G37*
%TD.AperFunction*%
%TO.P,U1,39*%
%TO.N,Net-(U1-Pad39)*%
%TA.AperFunction,SMDPad,CuDef*%
G36*
G01*
X158672720Y-116819700D02*
X158672720Y-116669700D01*
G75*
G02*
X158747720Y-116594700I75000J0D01*
G01*
X160147720Y-116594700D01*
G75*
G02*
X160222720Y-116669700I0J-75000D01*
G01*
X160222720Y-116819700D01*
G75*
G02*
X160147720Y-116894700I-75000J0D01*
G01*
X158747720Y-116894700D01*
G75*
G02*
X158672720Y-116819700I0J75000D01*
G01*
G37*
%TD.AperFunction*%
%TO.P,U1,40*%
%TO.N,Net-(U1-Pad40)*%
%TA.AperFunction,SMDPad,CuDef*%
G36*
G01*
X158672720Y-116319700D02*
X158672720Y-116169700D01*
G75*
G02*
X158747720Y-116094700I75000J0D01*
G01*
X160147720Y-116094700D01*
G75*
G02*
X160222720Y-116169700I0J-75000D01*
G01*
X160222720Y-116319700D01*
G75*
G02*
X160147720Y-116394700I-75000J0D01*
G01*
X158747720Y-116394700D01*
G75*
G02*
X158672720Y-116319700I0J75000D01*
G01*
G37*
%TD.AperFunction*%
%TO.P,U1,41*%
%TO.N,Net-(U1-Pad41)*%
%TA.AperFunction,SMDPad,CuDef*%
G36*
G01*
X158672720Y-115819700D02*
X158672720Y-115669700D01*
G75*
G02*
X158747720Y-115594700I75000J0D01*
G01*
X160147720Y-115594700D01*
G75*
G02*
X160222720Y-115669700I0J-75000D01*
G01*
X160222720Y-115819700D01*
G75*
G02*
X160147720Y-115894700I-75000J0D01*
G01*
X158747720Y-115894700D01*
G75*
G02*
X158672720Y-115819700I0J75000D01*
G01*
G37*
%TD.AperFunction*%
%TO.P,U1,42*%
%TO.N,Net-(U1-Pad42)*%
%TA.AperFunction,SMDPad,CuDef*%
G36*
G01*
X158672720Y-115319700D02*
X158672720Y-115169700D01*
G75*
G02*
X158747720Y-115094700I75000J0D01*
G01*
X160147720Y-115094700D01*
G75*
G02*
X160222720Y-115169700I0J-75000D01*
G01*
X160222720Y-115319700D01*
G75*
G02*
X160147720Y-115394700I-75000J0D01*
G01*
X158747720Y-115394700D01*
G75*
G02*
X158672720Y-115319700I0J75000D01*
G01*
G37*
%TD.AperFunction*%
%TO.P,U1,43*%
%TO.N,Net-(U1-Pad43)*%
%TA.AperFunction,SMDPad,CuDef*%
G36*
G01*
X158672720Y-114819700D02*
X158672720Y-114669700D01*
G75*
G02*
X158747720Y-114594700I75000J0D01*
G01*
X160147720Y-114594700D01*
G75*
G02*
X160222720Y-114669700I0J-75000D01*
G01*
X160222720Y-114819700D01*
G75*
G02*
X160147720Y-114894700I-75000J0D01*
G01*
X158747720Y-114894700D01*
G75*
G02*
X158672720Y-114819700I0J75000D01*
G01*
G37*
%TD.AperFunction*%
%TO.P,U1,44*%
%TO.N,USB_D-*%
%TA.AperFunction,SMDPad,CuDef*%
G36*
G01*
X158672720Y-114319700D02*
X158672720Y-114169700D01*
G75*
G02*
X158747720Y-114094700I75000J0D01*
G01*
X160147720Y-114094700D01*
G75*
G02*
X160222720Y-114169700I0J-75000D01*
G01*
X160222720Y-114319700D01*
G75*
G02*
X160147720Y-114394700I-75000J0D01*
G01*
X158747720Y-114394700D01*
G75*
G02*
X158672720Y-114319700I0J75000D01*
G01*
G37*
%TD.AperFunction*%
%TO.P,U1,45*%
%TO.N,USB_D+*%
%TA.AperFunction,SMDPad,CuDef*%
G36*
G01*
X158672720Y-113819700D02*
X158672720Y-113669700D01*
G75*
G02*
X158747720Y-113594700I75000J0D01*
G01*
X160147720Y-113594700D01*
G75*
G02*
X160222720Y-113669700I0J-75000D01*
G01*
X160222720Y-113819700D01*
G75*
G02*
X160147720Y-113894700I-75000J0D01*
G01*
X158747720Y-113894700D01*
G75*
G02*
X158672720Y-113819700I0J75000D01*
G01*
G37*
%TD.AperFunction*%
%TO.P,U1,46*%
%TO.N,SWDIO*%
%TA.AperFunction,SMDPad,CuDef*%
G36*
G01*
X158672720Y-113319700D02*
X158672720Y-113169700D01*
G75*
G02*
X158747720Y-113094700I75000J0D01*
G01*
X160147720Y-113094700D01*
G75*
G02*
X160222720Y-113169700I0J-75000D01*
G01*
X160222720Y-113319700D01*
G75*
G02*
X160147720Y-113394700I-75000J0D01*
G01*
X158747720Y-113394700D01*
G75*
G02*
X158672720Y-113319700I0J75000D01*
G01*
G37*
%TD.AperFunction*%
%TO.P,U1,47*%
%TO.N,Net-(C4-Pad1)*%
%TA.AperFunction,SMDPad,CuDef*%
G36*
G01*
X158672720Y-112819700D02*
X158672720Y-112669700D01*
G75*
G02*
X158747720Y-112594700I75000J0D01*
G01*
X160147720Y-112594700D01*
G75*
G02*
X160222720Y-112669700I0J-75000D01*
G01*
X160222720Y-112819700D01*
G75*
G02*
X160147720Y-112894700I-75000J0D01*
G01*
X158747720Y-112894700D01*
G75*
G02*
X158672720Y-112819700I0J75000D01*
G01*
G37*
%TD.AperFunction*%
%TO.P,U1,48*%
%TO.N,+3V3*%
%TA.AperFunction,SMDPad,CuDef*%
G36*
G01*
X158672720Y-112319700D02*
X158672720Y-112169700D01*
G75*
G02*
X158747720Y-112094700I75000J0D01*
G01*
X160147720Y-112094700D01*
G75*
G02*
X160222720Y-112169700I0J-75000D01*
G01*
X160222720Y-112319700D01*
G75*
G02*
X160147720Y-112394700I-75000J0D01*
G01*
X158747720Y-112394700D01*
G75*
G02*
X158672720Y-112319700I0J75000D01*
G01*
G37*
%TD.AperFunction*%
%TO.P,U1,49*%
%TO.N,SWCLK*%
%TA.AperFunction,SMDPad,CuDef*%
G36*
G01*
X157372720Y-111019700D02*
X157372720Y-109619700D01*
G75*
G02*
X157447720Y-109544700I75000J0D01*
G01*
X157597720Y-109544700D01*
G75*
G02*
X157672720Y-109619700I0J-75000D01*
G01*
X157672720Y-111019700D01*
G75*
G02*
X157597720Y-111094700I-75000J0D01*
G01*
X157447720Y-111094700D01*
G75*
G02*
X157372720Y-111019700I0J75000D01*
G01*
G37*
%TD.AperFunction*%
%TO.P,U1,50*%
%TO.N,Net-(U1-Pad50)*%
%TA.AperFunction,SMDPad,CuDef*%
G36*
G01*
X156872720Y-111019700D02*
X156872720Y-109619700D01*
G75*
G02*
X156947720Y-109544700I75000J0D01*
G01*
X157097720Y-109544700D01*
G75*
G02*
X157172720Y-109619700I0J-75000D01*
G01*
X157172720Y-111019700D01*
G75*
G02*
X157097720Y-111094700I-75000J0D01*
G01*
X156947720Y-111094700D01*
G75*
G02*
X156872720Y-111019700I0J75000D01*
G01*
G37*
%TD.AperFunction*%
%TO.P,U1,51*%
%TO.N,Net-(U1-Pad51)*%
%TA.AperFunction,SMDPad,CuDef*%
G36*
G01*
X156372720Y-111019700D02*
X156372720Y-109619700D01*
G75*
G02*
X156447720Y-109544700I75000J0D01*
G01*
X156597720Y-109544700D01*
G75*
G02*
X156672720Y-109619700I0J-75000D01*
G01*
X156672720Y-111019700D01*
G75*
G02*
X156597720Y-111094700I-75000J0D01*
G01*
X156447720Y-111094700D01*
G75*
G02*
X156372720Y-111019700I0J75000D01*
G01*
G37*
%TD.AperFunction*%
%TO.P,U1,52*%
%TO.N,Net-(U1-Pad52)*%
%TA.AperFunction,SMDPad,CuDef*%
G36*
G01*
X155872720Y-111019700D02*
X155872720Y-109619700D01*
G75*
G02*
X155947720Y-109544700I75000J0D01*
G01*
X156097720Y-109544700D01*
G75*
G02*
X156172720Y-109619700I0J-75000D01*
G01*
X156172720Y-111019700D01*
G75*
G02*
X156097720Y-111094700I-75000J0D01*
G01*
X155947720Y-111094700D01*
G75*
G02*
X155872720Y-111019700I0J75000D01*
G01*
G37*
%TD.AperFunction*%
%TO.P,U1,53*%
%TO.N,Net-(U1-Pad53)*%
%TA.AperFunction,SMDPad,CuDef*%
G36*
G01*
X155372720Y-111019700D02*
X155372720Y-109619700D01*
G75*
G02*
X155447720Y-109544700I75000J0D01*
G01*
X155597720Y-109544700D01*
G75*
G02*
X155672720Y-109619700I0J-75000D01*
G01*
X155672720Y-111019700D01*
G75*
G02*
X155597720Y-111094700I-75000J0D01*
G01*
X155447720Y-111094700D01*
G75*
G02*
X155372720Y-111019700I0J75000D01*
G01*
G37*
%TD.AperFunction*%
%TO.P,U1,54*%
%TO.N,Net-(U1-Pad54)*%
%TA.AperFunction,SMDPad,CuDef*%
G36*
G01*
X154872720Y-111019700D02*
X154872720Y-109619700D01*
G75*
G02*
X154947720Y-109544700I75000J0D01*
G01*
X155097720Y-109544700D01*
G75*
G02*
X155172720Y-109619700I0J-75000D01*
G01*
X155172720Y-111019700D01*
G75*
G02*
X155097720Y-111094700I-75000J0D01*
G01*
X154947720Y-111094700D01*
G75*
G02*
X154872720Y-111019700I0J75000D01*
G01*
G37*
%TD.AperFunction*%
%TO.P,U1,55*%
%TO.N,SWO*%
%TA.AperFunction,SMDPad,CuDef*%
G36*
G01*
X154372720Y-111019700D02*
X154372720Y-109619700D01*
G75*
G02*
X154447720Y-109544700I75000J0D01*
G01*
X154597720Y-109544700D01*
G75*
G02*
X154672720Y-109619700I0J-75000D01*
G01*
X154672720Y-111019700D01*
G75*
G02*
X154597720Y-111094700I-75000J0D01*
G01*
X154447720Y-111094700D01*
G75*
G02*
X154372720Y-111019700I0J75000D01*
G01*
G37*
%TD.AperFunction*%
%TO.P,U1,56*%
%TO.N,Net-(U1-Pad56)*%
%TA.AperFunction,SMDPad,CuDef*%
G36*
G01*
X153872720Y-111019700D02*
X153872720Y-109619700D01*
G75*
G02*
X153947720Y-109544700I75000J0D01*
G01*
X154097720Y-109544700D01*
G75*
G02*
X154172720Y-109619700I0J-75000D01*
G01*
X154172720Y-111019700D01*
G75*
G02*
X154097720Y-111094700I-75000J0D01*
G01*
X153947720Y-111094700D01*
G75*
G02*
X153872720Y-111019700I0J75000D01*
G01*
G37*
%TD.AperFunction*%
%TO.P,U1,57*%
%TO.N,Net-(U1-Pad57)*%
%TA.AperFunction,SMDPad,CuDef*%
G36*
G01*
X153372720Y-111019700D02*
X153372720Y-109619700D01*
G75*
G02*
X153447720Y-109544700I75000J0D01*
G01*
X153597720Y-109544700D01*
G75*
G02*
X153672720Y-109619700I0J-75000D01*
G01*
X153672720Y-111019700D01*
G75*
G02*
X153597720Y-111094700I-75000J0D01*
G01*
X153447720Y-111094700D01*
G75*
G02*
X153372720Y-111019700I0J75000D01*
G01*
G37*
%TD.AperFunction*%
%TO.P,U1,58*%
%TO.N,I2C1_SCL*%
%TA.AperFunction,SMDPad,CuDef*%
G36*
G01*
X152872720Y-111019700D02*
X152872720Y-109619700D01*
G75*
G02*
X152947720Y-109544700I75000J0D01*
G01*
X153097720Y-109544700D01*
G75*
G02*
X153172720Y-109619700I0J-75000D01*
G01*
X153172720Y-111019700D01*
G75*
G02*
X153097720Y-111094700I-75000J0D01*
G01*
X152947720Y-111094700D01*
G75*
G02*
X152872720Y-111019700I0J75000D01*
G01*
G37*
%TD.AperFunction*%
%TO.P,U1,59*%
%TO.N,I2C1_SDA*%
%TA.AperFunction,SMDPad,CuDef*%
G36*
G01*
X152372720Y-111019700D02*
X152372720Y-109619700D01*
G75*
G02*
X152447720Y-109544700I75000J0D01*
G01*
X152597720Y-109544700D01*
G75*
G02*
X152672720Y-109619700I0J-75000D01*
G01*
X152672720Y-111019700D01*
G75*
G02*
X152597720Y-111094700I-75000J0D01*
G01*
X152447720Y-111094700D01*
G75*
G02*
X152372720Y-111019700I0J75000D01*
G01*
G37*
%TD.AperFunction*%
%TO.P,U1,60*%
%TO.N,BOOT0*%
%TA.AperFunction,SMDPad,CuDef*%
G36*
G01*
X151872720Y-111019700D02*
X151872720Y-109619700D01*
G75*
G02*
X151947720Y-109544700I75000J0D01*
G01*
X152097720Y-109544700D01*
G75*
G02*
X152172720Y-109619700I0J-75000D01*
G01*
X152172720Y-111019700D01*
G75*
G02*
X152097720Y-111094700I-75000J0D01*
G01*
X151947720Y-111094700D01*
G75*
G02*
X151872720Y-111019700I0J75000D01*
G01*
G37*
%TD.AperFunction*%
%TO.P,U1,61*%
%TO.N,Net-(U1-Pad61)*%
%TA.AperFunction,SMDPad,CuDef*%
G36*
G01*
X151372720Y-111019700D02*
X151372720Y-109619700D01*
G75*
G02*
X151447720Y-109544700I75000J0D01*
G01*
X151597720Y-109544700D01*
G75*
G02*
X151672720Y-109619700I0J-75000D01*
G01*
X151672720Y-111019700D01*
G75*
G02*
X151597720Y-111094700I-75000J0D01*
G01*
X151447720Y-111094700D01*
G75*
G02*
X151372720Y-111019700I0J75000D01*
G01*
G37*
%TD.AperFunction*%
%TO.P,U1,62*%
%TO.N,Net-(U1-Pad62)*%
%TA.AperFunction,SMDPad,CuDef*%
G36*
G01*
X150872720Y-111019700D02*
X150872720Y-109619700D01*
G75*
G02*
X150947720Y-109544700I75000J0D01*
G01*
X151097720Y-109544700D01*
G75*
G02*
X151172720Y-109619700I0J-75000D01*
G01*
X151172720Y-111019700D01*
G75*
G02*
X151097720Y-111094700I-75000J0D01*
G01*
X150947720Y-111094700D01*
G75*
G02*
X150872720Y-111019700I0J75000D01*
G01*
G37*
%TD.AperFunction*%
%TO.P,U1,63*%
%TO.N,GND*%
%TA.AperFunction,SMDPad,CuDef*%
G36*
G01*
X150372720Y-111019700D02*
X150372720Y-109619700D01*
G75*
G02*
X150447720Y-109544700I75000J0D01*
G01*
X150597720Y-109544700D01*
G75*
G02*
X150672720Y-109619700I0J-75000D01*
G01*
X150672720Y-111019700D01*
G75*
G02*
X150597720Y-111094700I-75000J0D01*
G01*
X150447720Y-111094700D01*
G75*
G02*
X150372720Y-111019700I0J75000D01*
G01*
G37*
%TD.AperFunction*%
%TO.P,U1,64*%
%TO.N,+3V3*%
%TA.AperFunction,SMDPad,CuDef*%
G36*
G01*
X149872720Y-111019700D02*
X149872720Y-109619700D01*
G75*
G02*
X149947720Y-109544700I75000J0D01*
G01*
X150097720Y-109544700D01*
G75*
G02*
X150172720Y-109619700I0J-75000D01*
G01*
X150172720Y-111019700D01*
G75*
G02*
X150097720Y-111094700I-75000J0D01*
G01*
X149947720Y-111094700D01*
G75*
G02*
X149872720Y-111019700I0J75000D01*
G01*
G37*
%TD.AperFunction*%
%TD*%
D26*
%TO.P,U2,5*%
%TO.N,BUCK_IN*%
X174553040Y-131795280D03*
%TO.P,U2,6*%
%TO.N,BUCK_SW*%
X173603040Y-131795280D03*
%TO.P,U2,4*%
%TO.N,BUCK_EN*%
X175503040Y-131795280D03*
%TO.P,U2,3*%
%TO.N,BUCK_FB*%
X175503040Y-133995280D03*
%TO.P,U2,2*%
%TO.N,GND*%
X174553040Y-133995280D03*
%TO.P,U2,1*%
%TO.N,BUCK_BST*%
X173603040Y-133995280D03*
%TD*%
D27*
%TO.P,U3,1*%
%TO.N,USB_CONN_D-*%
X181100000Y-108450000D03*
%TO.P,U3,2*%
%TO.N,GND*%
X181100000Y-107500000D03*
%TO.P,U3,3*%
%TO.N,USB_CONN_D+*%
X181100000Y-106550000D03*
%TO.P,U3,4*%
%TO.N,USB_D+*%
X178900000Y-106550000D03*
%TO.P,U3,6*%
%TO.N,USB_D-*%
X178900000Y-108450000D03*
%TO.P,U3,5*%
%TO.N,+5V*%
X178900000Y-107500000D03*
%TD*%
D28*
%TO.P,Y1,1*%
%TO.N,HSE_IN*%
X142242020Y-115814180D03*
%TO.P,Y1,2*%
%TO.N,GND*%
X142242020Y-118014180D03*
%TO.P,Y1,3*%
%TO.N,Net-(C15-Pad1)*%
X143942020Y-118014180D03*
%TO.P,Y1,4*%
%TO.N,GND*%
X143942020Y-115814180D03*
%TD*%
D29*
%TO.N,+3V3*%
X167450000Y-92000000D03*
X165650000Y-131525000D03*
X177300000Y-138250000D03*
X175500000Y-139175000D03*
X155000000Y-97625000D03*
X151925000Y-123325000D03*
X144775000Y-120500000D03*
X140600000Y-104750000D03*
X147675000Y-108975000D03*
X154575000Y-106325000D03*
X151000000Y-106350000D03*
X145700000Y-112250000D03*
X159550000Y-121825000D03*
X160400000Y-111250000D03*
X165675000Y-129975000D03*
X166100000Y-135025000D03*
X166075000Y-137550000D03*
X145495000Y-121250000D03*
X168425000Y-130000000D03*
X168450000Y-131575000D03*
X168075000Y-135000000D03*
X168075000Y-137550000D03*
X178225000Y-137450000D03*
%TO.N,GND*%
X166200000Y-92000000D03*
X164900000Y-92000000D03*
X162375000Y-91975000D03*
X162525000Y-110425000D03*
X161625000Y-109525000D03*
X176550000Y-124200000D03*
X174425000Y-124250000D03*
X179100000Y-134750000D03*
X173875000Y-139125000D03*
X171025000Y-137575000D03*
X151250000Y-97600000D03*
X159675000Y-109575000D03*
X158825000Y-123475000D03*
X158400000Y-125100000D03*
X145325000Y-122400000D03*
X144825000Y-119375000D03*
X146450000Y-117150000D03*
X142225000Y-119150000D03*
X145700000Y-113300000D03*
X147200000Y-111250000D03*
X145250000Y-109900000D03*
X140625000Y-109250000D03*
X145515240Y-117500000D03*
X150250000Y-124050000D03*
X149000000Y-108450000D03*
X184925000Y-105200000D03*
X170050000Y-133725000D03*
X166850000Y-125425000D03*
X165975000Y-126400000D03*
X180075000Y-128600000D03*
X170025000Y-138900000D03*
X172950000Y-138450000D03*
X180050000Y-133975000D03*
X174425000Y-126275000D03*
X167775000Y-126450000D03*
X174550000Y-133050000D03*
X183950000Y-105200000D03*
X183950000Y-104200000D03*
X184925000Y-104200000D03*
X141225000Y-118025000D03*
X180025000Y-105375000D03*
%TO.N,NRST*%
X149708934Y-115234875D03*
X155650000Y-106250000D03*
%TD*%
D30*
%TO.N,+3V3*%
X149817560Y-110114540D02*
X150022720Y-110319700D01*
X149002600Y-110114540D02*
X149817560Y-110114540D01*
X159660440Y-112031980D02*
X159447720Y-112244700D01*
X159660440Y-111229600D02*
X159660440Y-111229600D01*
X146445720Y-112244700D02*
X148097720Y-112244700D01*
X146437200Y-112253220D02*
X146437200Y-112253220D01*
D31*
X148771520Y-109883460D02*
X149002600Y-110114540D01*
X147677020Y-109883460D02*
X148771520Y-109883460D01*
D30*
X157673020Y-121820000D02*
X157522720Y-121669700D01*
X158800000Y-121820000D02*
X158800000Y-121820000D01*
X151022720Y-123142720D02*
X151205000Y-123325000D01*
X151022720Y-121669700D02*
X151022720Y-123142720D01*
D31*
X140600000Y-104750000D02*
X139430000Y-104750000D01*
D30*
X146437200Y-112253220D02*
X146445720Y-112244700D01*
X158800000Y-121820000D02*
X157673020Y-121820000D01*
X159660440Y-111229600D02*
X159660440Y-112031980D01*
D32*
X167041100Y-135016100D02*
X167041100Y-135016100D01*
X167041100Y-130800000D02*
X167041100Y-130800000D01*
X167041100Y-135016100D02*
X167075000Y-135050000D01*
X167041100Y-133908900D02*
X167041100Y-135016100D01*
X167075000Y-136550000D02*
X167075000Y-135050000D01*
X167075000Y-137550000D02*
X167075000Y-137550000D01*
X167041100Y-132216100D02*
X167041100Y-132466100D01*
X167041100Y-132466100D02*
X167041100Y-133908900D01*
X167041100Y-130800000D02*
X167041100Y-130800000D01*
X167000000Y-130758900D02*
X167000000Y-130758900D01*
X167075000Y-137550000D02*
X167075000Y-136550000D01*
X167075000Y-137550000D02*
X167075000Y-137550000D01*
X175500000Y-138287500D02*
X175500000Y-139175000D01*
X177300000Y-137400000D02*
X177300000Y-137400000D01*
D30*
X145495000Y-120500660D02*
X145495000Y-120500660D01*
D32*
X167000000Y-130758900D02*
X167041100Y-130800000D01*
X167041100Y-130800000D02*
X167041100Y-132466100D01*
X165675000Y-131500000D02*
X165650000Y-131525000D01*
X165675000Y-129975000D02*
X165675000Y-131500000D01*
X168425000Y-131550000D02*
X168450000Y-131575000D01*
X168425000Y-130000000D02*
X168425000Y-131550000D01*
X165700000Y-131575000D02*
X165650000Y-131525000D01*
X168450000Y-131575000D02*
X165700000Y-131575000D01*
X168400000Y-129975000D02*
X168425000Y-130000000D01*
X165675000Y-129975000D02*
X168400000Y-129975000D01*
X167050000Y-135025000D02*
X167075000Y-135050000D01*
X166100000Y-135025000D02*
X167050000Y-135025000D01*
X167041100Y-134083900D02*
X167041100Y-133908900D01*
X167075000Y-136000000D02*
X167075000Y-136550000D01*
X166075000Y-137550000D02*
X167075000Y-137550000D01*
X167075000Y-135050000D02*
X167075000Y-135050000D01*
X167075000Y-137550000D02*
X167075000Y-137900000D01*
X168075000Y-137550000D02*
X166075000Y-137550000D01*
X166125000Y-135000000D02*
X166100000Y-135025000D01*
X168075000Y-135000000D02*
X166125000Y-135000000D01*
X177300000Y-137400000D02*
X177300000Y-138250000D01*
X177350000Y-137450000D02*
X177300000Y-137400000D01*
X178225000Y-137450000D02*
X177350000Y-137450000D01*
X177425000Y-138250000D02*
X178225000Y-137450000D01*
X177300000Y-138250000D02*
X177425000Y-138250000D01*
D31*
X145494340Y-120500000D02*
X145495000Y-120500660D01*
X144775000Y-120500000D02*
X145494340Y-120500000D01*
X145495000Y-121250000D02*
X145495000Y-120500660D01*
X145495000Y-121220000D02*
X144775000Y-120500000D01*
X145495000Y-121250000D02*
X145495000Y-121220000D01*
X146433980Y-112250000D02*
X146437200Y-112253220D01*
X145700000Y-112250000D02*
X146433980Y-112250000D01*
X151225000Y-123345000D02*
X151205000Y-123325000D01*
X158805000Y-121825000D02*
X158800000Y-121820000D01*
X159550000Y-121825000D02*
X158805000Y-121825000D01*
X147675000Y-109881440D02*
X147677020Y-109883460D01*
X147675000Y-108975000D02*
X147675000Y-109881440D01*
X151000000Y-107090000D02*
X150990000Y-107100000D01*
X151000000Y-106350000D02*
X151000000Y-107090000D01*
X154575000Y-107060000D02*
X154560000Y-107075000D01*
X154575000Y-106325000D02*
X154575000Y-107060000D01*
X155000000Y-96500000D02*
X155000000Y-97625000D01*
X151205000Y-123325000D02*
X151925000Y-123325000D01*
X159680840Y-111250000D02*
X159660440Y-111229600D01*
X160400000Y-111250000D02*
X159680840Y-111250000D01*
D33*
X167450000Y-93615000D02*
X167440000Y-93625000D01*
X167450000Y-92000000D02*
X167450000Y-93615000D01*
D30*
%TO.N,GND*%
X150233618Y-109154540D02*
X150522730Y-109443652D01*
X149002600Y-109154540D02*
X150233618Y-109154540D01*
X150522720Y-109443662D02*
X150522730Y-109443652D01*
X150522720Y-110319700D02*
X150522720Y-109443662D01*
X150522720Y-123047280D02*
X150245000Y-123325000D01*
X150522720Y-121669700D02*
X150522720Y-123047280D01*
D31*
X139430000Y-109250000D02*
X140625000Y-109250000D01*
X146110480Y-109900000D02*
X146110480Y-109900000D01*
D30*
X143942020Y-116214180D02*
X143942020Y-115814180D01*
X142242020Y-117914180D02*
X143942020Y-116214180D01*
X142242020Y-118014180D02*
X142242020Y-117914180D01*
X146447300Y-117147300D02*
X146450000Y-117150000D01*
X146447300Y-116406180D02*
X146447300Y-117147300D01*
X145515240Y-118242600D02*
X145515240Y-118242600D01*
X146450000Y-117150000D02*
X147042590Y-117742590D01*
X147319700Y-117744700D02*
X148097720Y-117744700D01*
X147317590Y-117742590D02*
X147319700Y-117744700D01*
X147042590Y-117742590D02*
X147317590Y-117742590D01*
X150245000Y-123325000D02*
X150245000Y-123325000D01*
D31*
X184925000Y-105200000D02*
X184989998Y-105200000D01*
D30*
X186050000Y-105200000D02*
X184925000Y-105200000D01*
D32*
X170050000Y-137575000D02*
X170025000Y-137550000D01*
X171025000Y-137575000D02*
X170050000Y-137575000D01*
X170050000Y-135025000D02*
X170025000Y-135050000D01*
X170050000Y-133725000D02*
X170050000Y-135025000D01*
X173875000Y-139125000D02*
X173875000Y-138300000D01*
X170025000Y-135050000D02*
X170025000Y-135050000D01*
D31*
X174550000Y-133998320D02*
X174553040Y-133995280D01*
D32*
X179100000Y-134750000D02*
X179100000Y-133925000D01*
X176550000Y-124247070D02*
X176526465Y-124223535D01*
X176550000Y-125025000D02*
X176550000Y-124247070D01*
X174425000Y-125250000D02*
X174400000Y-125275000D01*
X174425000Y-124250000D02*
X174425000Y-125250000D01*
X166800000Y-126400000D02*
X166850000Y-126450000D01*
X165975000Y-126400000D02*
X166800000Y-126400000D01*
X166850000Y-125425000D02*
X166850000Y-126450000D01*
X166850000Y-125525000D02*
X165975000Y-126400000D01*
X166850000Y-125425000D02*
X166850000Y-125525000D01*
X180075000Y-128600000D02*
X179250000Y-128600000D01*
D31*
X174550000Y-133992240D02*
X174553040Y-133995280D01*
X174550000Y-133050000D02*
X174550000Y-133992240D01*
D32*
X170025000Y-138900000D02*
X170025000Y-137550000D01*
X170025000Y-138575000D02*
X171025000Y-137575000D01*
X170025000Y-138900000D02*
X170025000Y-138575000D01*
X170025000Y-136575000D02*
X170025000Y-135050000D01*
X171025000Y-137575000D02*
X170025000Y-136575000D01*
X173725000Y-138450000D02*
X173875000Y-138300000D01*
X172950000Y-138450000D02*
X173725000Y-138450000D01*
X173200000Y-138450000D02*
X173875000Y-139125000D01*
X172950000Y-138450000D02*
X173200000Y-138450000D01*
X166025000Y-126450000D02*
X165975000Y-126400000D01*
X167775000Y-126450000D02*
X166025000Y-126450000D01*
X167775000Y-126350000D02*
X166850000Y-125425000D01*
X167775000Y-126450000D02*
X167775000Y-126350000D01*
X174425000Y-126275000D02*
X174425000Y-124250000D01*
X179150000Y-133975000D02*
X179100000Y-133925000D01*
X180050000Y-133975000D02*
X179150000Y-133975000D01*
X179875000Y-133975000D02*
X179100000Y-134750000D01*
X180050000Y-133975000D02*
X179875000Y-133975000D01*
X142231200Y-118025000D02*
X142242020Y-118014180D01*
X141225000Y-118025000D02*
X142231200Y-118025000D01*
X141225000Y-118150000D02*
X142225000Y-119150000D01*
X141225000Y-118025000D02*
X141225000Y-118150000D01*
X142225000Y-118031200D02*
X142242020Y-118014180D01*
X142225000Y-119150000D02*
X142225000Y-118031200D01*
D31*
X145515240Y-117500000D02*
X145515240Y-118242600D01*
X145512260Y-119375000D02*
X145515240Y-119377980D01*
X144825000Y-119375000D02*
X145512260Y-119375000D01*
X146419240Y-113300000D02*
X146434660Y-113284580D01*
X145700000Y-113300000D02*
X146419240Y-113300000D01*
X146227460Y-122400000D02*
X146239080Y-122388380D01*
X145325000Y-122400000D02*
X146227460Y-122400000D01*
X150250000Y-123330000D02*
X150245000Y-123325000D01*
X150250000Y-124050000D02*
X150250000Y-123330000D01*
X157500000Y-125100000D02*
X158400000Y-125100000D01*
X158800000Y-123450000D02*
X158825000Y-123475000D01*
X158800000Y-122780000D02*
X158800000Y-123450000D01*
X146418980Y-111275000D02*
X146437200Y-111293220D01*
X149000000Y-109151940D02*
X149002600Y-109154540D01*
X149000000Y-108450000D02*
X149000000Y-109151940D01*
X146110480Y-109900000D02*
X146127020Y-109883460D01*
X145250000Y-109900000D02*
X146110480Y-109900000D01*
X159675000Y-110255040D02*
X159660440Y-110269600D01*
X159675000Y-109575000D02*
X159675000Y-110255040D01*
X151250000Y-96500000D02*
X151250000Y-97600000D01*
D33*
X184925000Y-105200000D02*
X183950000Y-105200000D01*
X183950000Y-105200000D02*
X183950000Y-104200000D01*
X184925000Y-104200000D02*
X183950000Y-104200000D01*
X184925000Y-104200000D02*
X184925000Y-105200000D01*
X184925000Y-105175000D02*
X183950000Y-104200000D01*
X184925000Y-105200000D02*
X184925000Y-105175000D01*
X183950000Y-105175000D02*
X184925000Y-104200000D01*
X183950000Y-105200000D02*
X183950000Y-105175000D01*
D34*
X180025000Y-106990746D02*
X180025000Y-105375000D01*
X180534254Y-107500000D02*
X180025000Y-106990746D01*
X181100000Y-107500000D02*
X180534254Y-107500000D01*
D31*
X146480420Y-111250000D02*
X146437200Y-111293220D01*
X147200000Y-111250000D02*
X146480420Y-111250000D01*
X161625000Y-109525000D02*
X161625000Y-110425000D01*
X162525000Y-110425000D02*
X161625000Y-110425000D01*
X162525000Y-110425000D02*
X161625000Y-109525000D01*
D33*
X162375000Y-93610000D02*
X162360000Y-93625000D01*
X162375000Y-91975000D02*
X162375000Y-93610000D01*
X164900000Y-92000000D02*
X164900000Y-93625000D01*
X166200000Y-93595000D02*
X166170000Y-93625000D01*
X166200000Y-92000000D02*
X166200000Y-93595000D01*
D30*
%TO.N,Net-(C2-Pad1)*%
X157500000Y-123023038D02*
X157022720Y-122545758D01*
X157500000Y-123550000D02*
X157500000Y-123023038D01*
X157022720Y-121669700D02*
X157022720Y-122545758D01*
%TO.N,Net-(C4-Pad1)*%
X160855300Y-112744700D02*
X161625000Y-111975000D01*
X159447720Y-112744700D02*
X160855300Y-112744700D01*
D33*
%TO.N,BUCK_IN*%
X174553040Y-130478040D02*
X174553040Y-131795280D01*
X174125000Y-130050000D02*
X174553040Y-130478040D01*
D32*
X173312500Y-128225000D02*
X172100000Y-127012500D01*
X174400000Y-128225000D02*
X173312500Y-128225000D01*
X174400000Y-128225000D02*
X174400000Y-129775000D01*
X174125000Y-130050000D02*
X174400000Y-129775000D01*
X174428030Y-130353030D02*
X174428030Y-130439860D01*
X174125000Y-130050000D02*
X174428030Y-130353030D01*
D30*
%TO.N,+3.3VA*%
X147221662Y-118244700D02*
X147219562Y-118242600D01*
X148097720Y-118244700D02*
X147221662Y-118244700D01*
D31*
X146465000Y-119388220D02*
X146475240Y-119377980D01*
X146465000Y-120500660D02*
X146465000Y-119388220D01*
D30*
X146475240Y-118242600D02*
X147219562Y-118242600D01*
D31*
X146475240Y-119377980D02*
X146475240Y-118242600D01*
D33*
%TO.N,BUCK_BST*%
X173603040Y-134921960D02*
X173603040Y-133995280D01*
X172300000Y-136225000D02*
X173603040Y-134921960D01*
X171825000Y-136225000D02*
X172300000Y-136225000D01*
%TO.N,BUCK_SW*%
X172607760Y-130800000D02*
X173603040Y-131795280D01*
X171141100Y-130800000D02*
X172607760Y-130800000D01*
X171825000Y-133573320D02*
X173603040Y-131795280D01*
X171825000Y-134675000D02*
X171825000Y-133573320D01*
D32*
X170150000Y-129808900D02*
X171141100Y-130800000D01*
X170150000Y-126450000D02*
X170150000Y-129808900D01*
X173478030Y-131186930D02*
X173478030Y-131795280D01*
X173091100Y-130800000D02*
X173478030Y-131186930D01*
X171141100Y-130800000D02*
X173091100Y-130800000D01*
D30*
%TO.N,HSE_IN*%
X147221542Y-114244580D02*
X147221652Y-114244690D01*
X146434660Y-114244580D02*
X147221542Y-114244580D01*
X147221662Y-114244700D02*
X147221542Y-114244580D01*
X148097720Y-114244700D02*
X147221662Y-114244700D01*
X142242020Y-114814180D02*
X142242020Y-115814180D01*
X142811620Y-114244580D02*
X142242020Y-114814180D01*
X146434660Y-114244580D02*
X142811620Y-114244580D01*
%TO.N,Net-(C15-Pad1)*%
X143942020Y-117951460D02*
X145487300Y-116406180D01*
X143942020Y-118014180D02*
X143942020Y-117951460D01*
X145487780Y-116405700D02*
X145487300Y-116406180D01*
X145487780Y-115298740D02*
X145487780Y-116405700D01*
D31*
%TO.N,+5V*%
X178650000Y-114529998D02*
X185379997Y-107800001D01*
X178650000Y-121350000D02*
X178650000Y-114529998D01*
X179880001Y-113299997D02*
X178650000Y-114529998D01*
X179880001Y-107764999D02*
X179880001Y-113299997D01*
X179615002Y-107500000D02*
X179880001Y-107764999D01*
X178900000Y-107500000D02*
X179615002Y-107500000D01*
D32*
%TO.N,Net-(D1-Pad1)*%
X176400000Y-122400000D02*
X178650000Y-124650000D01*
X175800000Y-122400000D02*
X176400000Y-122400000D01*
X178650000Y-127300000D02*
X177350000Y-128600000D01*
X178650000Y-124650000D02*
X178650000Y-127300000D01*
D31*
%TO.N,Net-(D3-Pad1)*%
X148091340Y-124038380D02*
X148093280Y-124036440D01*
X146239080Y-124038380D02*
X148091340Y-124038380D01*
D30*
%TO.N,LED_STATUS*%
X148093280Y-119749140D02*
X148097720Y-119744700D01*
X148093280Y-122461440D02*
X148093280Y-119749140D01*
D32*
%TO.N,Net-(D4-Pad1)*%
X173937500Y-136712500D02*
X173875000Y-136650000D01*
X175500000Y-136712500D02*
X173937500Y-136712500D01*
%TO.N,Net-(F1-Pad1)*%
X172100000Y-123300000D02*
X173000000Y-122400000D01*
X172100000Y-124887500D02*
X172100000Y-123300000D01*
%TO.N,+12V*%
X180900000Y-130600000D02*
X185000000Y-126500000D01*
X178300000Y-130600000D02*
X180900000Y-130600000D01*
D30*
%TO.N,I2C1_SDA*%
X152010000Y-96990000D02*
X152500000Y-96500000D01*
X152010000Y-107100000D02*
X152010000Y-96990000D01*
X152522720Y-107612720D02*
X152010000Y-107100000D01*
X152522720Y-110319700D02*
X152522720Y-107612720D01*
%TO.N,I2C1_SCL*%
X153022720Y-110319700D02*
X153022720Y-109352280D01*
X153022720Y-109352280D02*
X153540000Y-108835000D01*
X153540000Y-96710000D02*
X153750000Y-96500000D01*
X153540000Y-102975000D02*
X153540000Y-96710000D01*
X153540000Y-102975000D02*
X153540000Y-107075000D01*
X153540000Y-107075000D02*
X153540000Y-108835000D01*
%TO.N,SWDIO*%
X167440000Y-107448190D02*
X167440000Y-97525000D01*
X161643490Y-113244700D02*
X167440000Y-107448190D01*
X159447720Y-113244700D02*
X161643490Y-113244700D01*
D35*
%TO.N,SWCLK*%
X157522720Y-110319700D02*
X157522720Y-108877280D01*
X166170000Y-100230000D02*
X166170000Y-99770000D01*
X157522720Y-108877280D02*
X166170000Y-100230000D01*
D30*
X166170000Y-99770000D02*
X166170000Y-97525000D01*
%TO.N,SWO*%
X164900000Y-98455002D02*
X164900000Y-97525000D01*
X154522720Y-110319700D02*
X154522720Y-109177280D01*
X164900000Y-98800000D02*
X164900000Y-97525000D01*
X154522720Y-109177280D02*
X164900000Y-98800000D01*
%TO.N,NRST*%
X149699109Y-115244700D02*
X149708934Y-115234875D01*
X148097720Y-115244700D02*
X149699109Y-115244700D01*
X155650000Y-106250000D02*
X162325000Y-99575000D01*
X162325000Y-97560000D02*
X162360000Y-97525000D01*
X162325000Y-99575000D02*
X162325000Y-97560000D01*
%TO.N,USART3_TX*%
X152750000Y-125867880D02*
X152750000Y-135500000D01*
X156022720Y-122595160D02*
X152750000Y-125867880D01*
X156022720Y-121669700D02*
X156022720Y-122595160D01*
%TO.N,USART3_RX*%
X156522720Y-124002280D02*
X156522720Y-121669700D01*
X154000000Y-126525000D02*
X156522720Y-124002280D01*
X154000000Y-135500000D02*
X154000000Y-126525000D01*
%TO.N,Net-(J5-Pad6)*%
X187505000Y-104180000D02*
X188700000Y-105375000D01*
X186470000Y-104180000D02*
X187505000Y-104180000D01*
X188700000Y-105375000D02*
X188700000Y-107625000D01*
X187505000Y-108820000D02*
X188700000Y-107625000D01*
X186470000Y-108820000D02*
X187505000Y-108820000D01*
X188700000Y-105375000D02*
X188700000Y-102925000D01*
X188700000Y-107625000D02*
X188700000Y-110075000D01*
%TO.N,USB_CONN_D-*%
X181635002Y-108450000D02*
X181100000Y-108450000D01*
X182935002Y-107150000D02*
X181635002Y-108450000D01*
X186050000Y-107150000D02*
X182935002Y-107150000D01*
%TO.N,USB_CONN_D+*%
X186000000Y-106550000D02*
X186050000Y-106500000D01*
X181100000Y-106550000D02*
X186000000Y-106550000D01*
D33*
%TO.N,BUCK_EN*%
X175503040Y-130321960D02*
X175775000Y-130050000D01*
X175503040Y-131795280D02*
X175503040Y-130321960D01*
D32*
X176000010Y-129824990D02*
X175775000Y-130050000D01*
X176000010Y-127224990D02*
X176000010Y-129824990D01*
X176550000Y-126675000D02*
X176000010Y-127224990D01*
X175775000Y-131648330D02*
X175628050Y-131795280D01*
X175775000Y-130050000D02*
X175775000Y-131648330D01*
D33*
%TO.N,BUCK_FB*%
X177279720Y-133995280D02*
X177350000Y-133925000D01*
X175503040Y-133995280D02*
X177279720Y-133995280D01*
D32*
X177350000Y-135700000D02*
X177300000Y-135750000D01*
X177350000Y-133925000D02*
X177350000Y-135700000D01*
X175648321Y-133925000D02*
X175578041Y-133995280D01*
X177350000Y-133925000D02*
X175648321Y-133925000D01*
%TO.N,Net-(R5-Pad1)*%
X177350000Y-132275000D02*
X179100000Y-132275000D01*
D30*
%TO.N,Net-(R7-Pad1)*%
X141240000Y-107750000D02*
X141490000Y-107500000D01*
X139430000Y-107750000D02*
X141240000Y-107750000D01*
%TO.N,BOOT0*%
X152022720Y-110319700D02*
X152022720Y-109247720D01*
X150275000Y-107500000D02*
X142510000Y-107500000D01*
X152022720Y-109247720D02*
X150275000Y-107500000D01*
%TO.N,HSE_OUT*%
X146507780Y-115298740D02*
X146507780Y-115242220D01*
X147005300Y-114744700D02*
X148097720Y-114744700D01*
X146507780Y-115242220D02*
X147005300Y-114744700D01*
D36*
%TO.N,USB_D-*%
X159447720Y-114244700D02*
X159465564Y-114226856D01*
X159465564Y-114226856D02*
X165251464Y-114226856D01*
X178104999Y-108450000D02*
X178900000Y-108450000D01*
X177387155Y-107732156D02*
X178104999Y-108450000D01*
X165251464Y-114226856D02*
X171746164Y-107732156D01*
X171746164Y-107732156D02*
X177387155Y-107732156D01*
%TO.N,USB_D+*%
X159465564Y-113762544D02*
X165059136Y-113762544D01*
X159447720Y-113744700D02*
X159465564Y-113762544D01*
X178104999Y-106550000D02*
X178900000Y-106550000D01*
X177387155Y-107267844D02*
X178104999Y-106550000D01*
X171553836Y-107267844D02*
X177387155Y-107267844D01*
X165059136Y-113762544D02*
X171553836Y-107267844D01*
%TD*%
M02*
