%TF.GenerationSoftware,KiCad,Pcbnew,5.1.10-88a1d61d58~90~ubuntu20.04.1*%
%TF.CreationDate,2021-12-12T00:04:41-03:00*%
%TF.ProjectId,kicadproj,6b696361-6470-4726-9f6a-2e6b69636164,rev?*%
%TF.SameCoordinates,Original*%
%TF.FileFunction,Copper,L4,Bot*%
%TF.FilePolarity,Positive*%
%FSLAX46Y46*%
G04 Gerber Fmt 4.6, Leading zero omitted, Abs format (unit mm)*
G04 Created by KiCad (PCBNEW 5.1.10-88a1d61d58~90~ubuntu20.04.1) date 2021-12-12 00:04:41*
%MOMM*%
%LPD*%
G01*
G04 APERTURE LIST*
%TA.AperFunction,ComponentPad*%
%ADD10C,8.600000*%
%TD*%
%TA.AperFunction,ComponentPad*%
%ADD11C,0.900000*%
%TD*%
%TA.AperFunction,ComponentPad*%
%ADD12R,2.400000X2.400000*%
%TD*%
%TA.AperFunction,ComponentPad*%
%ADD13C,2.400000*%
%TD*%
%TA.AperFunction,ComponentPad*%
%ADD14O,0.800000X1.300000*%
%TD*%
%TA.AperFunction,ComponentPad*%
%ADD15O,1.900000X1.050000*%
%TD*%
%TA.AperFunction,ViaPad*%
%ADD16C,0.800000*%
%TD*%
%TA.AperFunction,Conductor*%
%ADD17C,0.300000*%
%TD*%
G04 APERTURE END LIST*
D10*
%TO.P,H1,1*%
%TO.N,GND*%
X140500000Y-96000000D03*
D11*
X143725000Y-96000000D03*
X142780419Y-98280419D03*
X140500000Y-99225000D03*
X138219581Y-98280419D03*
X137275000Y-96000000D03*
X138219581Y-93719581D03*
X140500000Y-92775000D03*
X142780419Y-93719581D03*
%TD*%
%TO.P,H2,1*%
%TO.N,GND*%
X187780419Y-93719581D03*
X185500000Y-92775000D03*
X183219581Y-93719581D03*
X182275000Y-96000000D03*
X183219581Y-98280419D03*
X185500000Y-99225000D03*
X187780419Y-98280419D03*
X188725000Y-96000000D03*
D10*
X185500000Y-96000000D03*
%TD*%
%TO.P,H3,1*%
%TO.N,GND*%
X185500000Y-136000000D03*
D11*
X188725000Y-136000000D03*
X187780419Y-138280419D03*
X185500000Y-139225000D03*
X183219581Y-138280419D03*
X182275000Y-136000000D03*
X183219581Y-133719581D03*
X185500000Y-132775000D03*
X187780419Y-133719581D03*
%TD*%
%TO.P,H4,1*%
%TO.N,GND*%
X142780419Y-133719581D03*
X140500000Y-132775000D03*
X138219581Y-133719581D03*
X137275000Y-136000000D03*
X138219581Y-138280419D03*
X140500000Y-139225000D03*
X142780419Y-138280419D03*
X143725000Y-136000000D03*
D10*
X140500000Y-136000000D03*
%TD*%
D12*
%TO.P,J1,1*%
%TO.N,+12V*%
X185000000Y-126500000D03*
D13*
%TO.P,J1,2*%
%TO.N,GND*%
X185000000Y-123000000D03*
%TD*%
D14*
%TO.P,J2,4*%
%TO.N,GND*%
X151250000Y-96500000D03*
%TO.P,J2,3*%
%TO.N,I2C1_SDA*%
X152500000Y-96500000D03*
%TO.P,J2,2*%
%TO.N,I2C1_SCL*%
X153750000Y-96500000D03*
%TO.P,J2,1*%
%TO.N,+3V3*%
%TA.AperFunction,ComponentPad*%
G36*
G01*
X155400000Y-96050000D02*
X155400000Y-96950000D01*
G75*
G02*
X155200000Y-97150000I-200000J0D01*
G01*
X154800000Y-97150000D01*
G75*
G02*
X154600000Y-96950000I0J200000D01*
G01*
X154600000Y-96050000D01*
G75*
G02*
X154800000Y-95850000I200000J0D01*
G01*
X155200000Y-95850000D01*
G75*
G02*
X155400000Y-96050000I0J-200000D01*
G01*
G37*
%TD.AperFunction*%
%TD*%
%TO.P,J4,1*%
%TO.N,+3V3*%
%TA.AperFunction,ComponentPad*%
G36*
G01*
X151100000Y-135950000D02*
X151100000Y-135050000D01*
G75*
G02*
X151300000Y-134850000I200000J0D01*
G01*
X151700000Y-134850000D01*
G75*
G02*
X151900000Y-135050000I0J-200000D01*
G01*
X151900000Y-135950000D01*
G75*
G02*
X151700000Y-136150000I-200000J0D01*
G01*
X151300000Y-136150000D01*
G75*
G02*
X151100000Y-135950000I0J200000D01*
G01*
G37*
%TD.AperFunction*%
%TO.P,J4,2*%
%TO.N,USART3_TX*%
X152750000Y-135500000D03*
%TO.P,J4,3*%
%TO.N,USART3_RX*%
X154000000Y-135500000D03*
%TO.P,J4,4*%
%TO.N,GND*%
X155250000Y-135500000D03*
%TD*%
D15*
%TO.P,J5,6*%
%TO.N,Net-(J5-Pad6)*%
X188700000Y-102925000D03*
X188700000Y-110075000D03*
%TD*%
D16*
%TO.N,+3V3*%
X167450000Y-92000000D03*
X165650000Y-131525000D03*
X177300000Y-138250000D03*
X175500000Y-139175000D03*
X155000000Y-97625000D03*
X151925000Y-123325000D03*
X144775000Y-120500000D03*
X140600000Y-104750000D03*
X147675000Y-108975000D03*
X154575000Y-106325000D03*
X151000000Y-106350000D03*
X145700000Y-112250000D03*
X159550000Y-121825000D03*
X160400000Y-111250000D03*
X165675000Y-129975000D03*
X166100000Y-135025000D03*
X166075000Y-137550000D03*
X145495000Y-121250000D03*
X168425000Y-130000000D03*
X168450000Y-131575000D03*
X168075000Y-135000000D03*
X168075000Y-137550000D03*
X178225000Y-137450000D03*
%TO.N,GND*%
X166200000Y-92000000D03*
X164900000Y-92000000D03*
X162375000Y-91975000D03*
X162525000Y-110425000D03*
X161625000Y-109525000D03*
X176550000Y-124200000D03*
X174425000Y-124250000D03*
X179100000Y-134750000D03*
X173875000Y-139125000D03*
X171025000Y-137575000D03*
X151250000Y-97600000D03*
X159675000Y-109575000D03*
X158825000Y-123475000D03*
X158400000Y-125100000D03*
X145325000Y-122400000D03*
X144825000Y-119375000D03*
X146450000Y-117150000D03*
X142225000Y-119150000D03*
X145700000Y-113300000D03*
X147200000Y-111250000D03*
X145250000Y-109900000D03*
X140625000Y-109250000D03*
X145515240Y-117500000D03*
X150250000Y-124050000D03*
X149000000Y-108450000D03*
X184925000Y-105200000D03*
X170050000Y-133725000D03*
X166850000Y-125425000D03*
X165975000Y-126400000D03*
X180075000Y-128600000D03*
X170025000Y-138900000D03*
X172950000Y-138450000D03*
X180050000Y-133975000D03*
X174425000Y-126275000D03*
X167775000Y-126450000D03*
X174550000Y-133050000D03*
X183950000Y-105200000D03*
X183950000Y-104200000D03*
X184925000Y-104200000D03*
X141225000Y-118025000D03*
X180025000Y-105375000D03*
%TO.N,NRST*%
X149708934Y-115234875D03*
X155650000Y-106250000D03*
%TD*%
D17*
%TO.N,NRST*%
X155650000Y-109293809D02*
X155650000Y-106250000D01*
X149708934Y-115234875D02*
X155650000Y-109293809D01*
%TD*%
M02*
