%TF.GenerationSoftware,KiCad,Pcbnew,5.1.10-88a1d61d58~90~ubuntu20.04.1*%
%TF.CreationDate,2021-12-12T00:04:41-03:00*%
%TF.ProjectId,kicadproj,6b696361-6470-4726-9f6a-2e6b69636164,rev?*%
%TF.SameCoordinates,Original*%
%TF.FileFunction,Copper,L2,Inr*%
%TF.FilePolarity,Positive*%
%FSLAX46Y46*%
G04 Gerber Fmt 4.6, Leading zero omitted, Abs format (unit mm)*
G04 Created by KiCad (PCBNEW 5.1.10-88a1d61d58~90~ubuntu20.04.1) date 2021-12-12 00:04:41*
%MOMM*%
%LPD*%
G01*
G04 APERTURE LIST*
%TA.AperFunction,ComponentPad*%
%ADD10C,8.600000*%
%TD*%
%TA.AperFunction,ComponentPad*%
%ADD11C,0.900000*%
%TD*%
%TA.AperFunction,ComponentPad*%
%ADD12R,2.400000X2.400000*%
%TD*%
%TA.AperFunction,ComponentPad*%
%ADD13C,2.400000*%
%TD*%
%TA.AperFunction,ComponentPad*%
%ADD14O,0.800000X1.300000*%
%TD*%
%TA.AperFunction,ComponentPad*%
%ADD15O,1.900000X1.050000*%
%TD*%
%TA.AperFunction,ViaPad*%
%ADD16C,0.800000*%
%TD*%
%TA.AperFunction,Conductor*%
%ADD17C,0.254000*%
%TD*%
%TA.AperFunction,Conductor*%
%ADD18C,0.100000*%
%TD*%
G04 APERTURE END LIST*
D10*
%TO.N,GND*%
%TO.C,H1*%
X140500000Y-96000000D03*
D11*
X143725000Y-96000000D03*
X142780419Y-98280419D03*
X140500000Y-99225000D03*
X138219581Y-98280419D03*
X137275000Y-96000000D03*
X138219581Y-93719581D03*
X140500000Y-92775000D03*
X142780419Y-93719581D03*
%TD*%
%TO.N,GND*%
%TO.C,H2*%
X187780419Y-93719581D03*
X185500000Y-92775000D03*
X183219581Y-93719581D03*
X182275000Y-96000000D03*
X183219581Y-98280419D03*
X185500000Y-99225000D03*
X187780419Y-98280419D03*
X188725000Y-96000000D03*
D10*
X185500000Y-96000000D03*
%TD*%
%TO.N,GND*%
%TO.C,H3*%
X185500000Y-136000000D03*
D11*
X188725000Y-136000000D03*
X187780419Y-138280419D03*
X185500000Y-139225000D03*
X183219581Y-138280419D03*
X182275000Y-136000000D03*
X183219581Y-133719581D03*
X185500000Y-132775000D03*
X187780419Y-133719581D03*
%TD*%
%TO.N,GND*%
%TO.C,H4*%
X142780419Y-133719581D03*
X140500000Y-132775000D03*
X138219581Y-133719581D03*
X137275000Y-136000000D03*
X138219581Y-138280419D03*
X140500000Y-139225000D03*
X142780419Y-138280419D03*
X143725000Y-136000000D03*
D10*
X140500000Y-136000000D03*
%TD*%
D12*
%TO.N,+12V*%
%TO.C,J1*%
X185000000Y-126500000D03*
D13*
%TO.N,GND*%
X185000000Y-123000000D03*
%TD*%
D14*
%TO.N,GND*%
%TO.C,J2*%
X151250000Y-96500000D03*
%TO.N,I2C1_SDA*%
X152500000Y-96500000D03*
%TO.N,I2C1_SCL*%
X153750000Y-96500000D03*
%TO.N,+3V3*%
%TA.AperFunction,ComponentPad*%
G36*
G01*
X155400000Y-96050000D02*
X155400000Y-96950000D01*
G75*
G02*
X155200000Y-97150000I-200000J0D01*
G01*
X154800000Y-97150000D01*
G75*
G02*
X154600000Y-96950000I0J200000D01*
G01*
X154600000Y-96050000D01*
G75*
G02*
X154800000Y-95850000I200000J0D01*
G01*
X155200000Y-95850000D01*
G75*
G02*
X155400000Y-96050000I0J-200000D01*
G01*
G37*
%TD.AperFunction*%
%TD*%
%TO.N,+3V3*%
%TO.C,J4*%
%TA.AperFunction,ComponentPad*%
G36*
G01*
X151100000Y-135950000D02*
X151100000Y-135050000D01*
G75*
G02*
X151300000Y-134850000I200000J0D01*
G01*
X151700000Y-134850000D01*
G75*
G02*
X151900000Y-135050000I0J-200000D01*
G01*
X151900000Y-135950000D01*
G75*
G02*
X151700000Y-136150000I-200000J0D01*
G01*
X151300000Y-136150000D01*
G75*
G02*
X151100000Y-135950000I0J200000D01*
G01*
G37*
%TD.AperFunction*%
%TO.N,USART3_TX*%
X152750000Y-135500000D03*
%TO.N,USART3_RX*%
X154000000Y-135500000D03*
%TO.N,GND*%
X155250000Y-135500000D03*
%TD*%
D15*
%TO.N,Net-(J5-Pad6)*%
%TO.C,J5*%
X188700000Y-102925000D03*
X188700000Y-110075000D03*
%TD*%
D16*
%TO.N,+3V3*%
X167450000Y-92000000D03*
X165650000Y-131525000D03*
X177300000Y-138250000D03*
X175500000Y-139175000D03*
X155000000Y-97625000D03*
X151925000Y-123325000D03*
X144775000Y-120500000D03*
X140600000Y-104750000D03*
X147675000Y-108975000D03*
X154575000Y-106325000D03*
X151000000Y-106350000D03*
X145700000Y-112250000D03*
X159550000Y-121825000D03*
X160400000Y-111250000D03*
X165675000Y-129975000D03*
X166100000Y-135025000D03*
X166075000Y-137550000D03*
X145495000Y-121250000D03*
X168425000Y-130000000D03*
X168450000Y-131575000D03*
X168075000Y-135000000D03*
X168075000Y-137550000D03*
X178225000Y-137450000D03*
%TO.N,GND*%
X166200000Y-92000000D03*
X164900000Y-92000000D03*
X162375000Y-91975000D03*
X162525000Y-110425000D03*
X161625000Y-109525000D03*
X176550000Y-124200000D03*
X174425000Y-124250000D03*
X179100000Y-134750000D03*
X173875000Y-139125000D03*
X171025000Y-137575000D03*
X151250000Y-97600000D03*
X159675000Y-109575000D03*
X158825000Y-123475000D03*
X158400000Y-125100000D03*
X145325000Y-122400000D03*
X144825000Y-119375000D03*
X146450000Y-117150000D03*
X142225000Y-119150000D03*
X145700000Y-113300000D03*
X147200000Y-111250000D03*
X145250000Y-109900000D03*
X140625000Y-109250000D03*
X145515240Y-117500000D03*
X150250000Y-124050000D03*
X149000000Y-108450000D03*
X184925000Y-105200000D03*
X170050000Y-133725000D03*
X166850000Y-125425000D03*
X165975000Y-126400000D03*
X180075000Y-128600000D03*
X170025000Y-138900000D03*
X172950000Y-138450000D03*
X180050000Y-133975000D03*
X174425000Y-126275000D03*
X167775000Y-126450000D03*
X174550000Y-133050000D03*
X183950000Y-105200000D03*
X183950000Y-104200000D03*
X184925000Y-104200000D03*
X141225000Y-118025000D03*
X180025000Y-105375000D03*
%TO.N,NRST*%
X149708934Y-115234875D03*
X155650000Y-106250000D03*
%TD*%
D17*
%TO.N,GND*%
X166454774Y-91698102D02*
X166415000Y-91898061D01*
X166415000Y-92101939D01*
X166454774Y-92301898D01*
X166532795Y-92490256D01*
X166646063Y-92659774D01*
X166790226Y-92803937D01*
X166959744Y-92917205D01*
X167148102Y-92995226D01*
X167348061Y-93035000D01*
X167551939Y-93035000D01*
X167751898Y-92995226D01*
X167940256Y-92917205D01*
X168109774Y-92803937D01*
X168253937Y-92659774D01*
X168367205Y-92490256D01*
X168445226Y-92301898D01*
X168485000Y-92101939D01*
X168485000Y-91898061D01*
X168445226Y-91698102D01*
X168429444Y-91660000D01*
X183148907Y-91660000D01*
X182801560Y-91839606D01*
X182688946Y-91914851D01*
X182196787Y-92517182D01*
X185500000Y-95820395D01*
X185514143Y-95806253D01*
X185693748Y-95985858D01*
X185679605Y-96000000D01*
X188982818Y-99303213D01*
X189585149Y-98811054D01*
X189840000Y-98349534D01*
X189840000Y-102011160D01*
X189772579Y-101955829D01*
X189571060Y-101848115D01*
X189352400Y-101781785D01*
X189181979Y-101765000D01*
X188218021Y-101765000D01*
X188047600Y-101781785D01*
X187828940Y-101848115D01*
X187627421Y-101955829D01*
X187450788Y-102100788D01*
X187305829Y-102277421D01*
X187198115Y-102478940D01*
X187131785Y-102697600D01*
X187109388Y-102925000D01*
X187131785Y-103152400D01*
X187198115Y-103371060D01*
X187305829Y-103572579D01*
X187450788Y-103749212D01*
X187627421Y-103894171D01*
X187828940Y-104001885D01*
X188047600Y-104068215D01*
X188218021Y-104085000D01*
X189181979Y-104085000D01*
X189352400Y-104068215D01*
X189571060Y-104001885D01*
X189772579Y-103894171D01*
X189840000Y-103838840D01*
X189840000Y-109161160D01*
X189772579Y-109105829D01*
X189571060Y-108998115D01*
X189352400Y-108931785D01*
X189181979Y-108915000D01*
X188218021Y-108915000D01*
X188047600Y-108931785D01*
X187828940Y-108998115D01*
X187627421Y-109105829D01*
X187450788Y-109250788D01*
X187305829Y-109427421D01*
X187198115Y-109628940D01*
X187131785Y-109847600D01*
X187109388Y-110075000D01*
X187131785Y-110302400D01*
X187198115Y-110521060D01*
X187305829Y-110722579D01*
X187450788Y-110899212D01*
X187627421Y-111044171D01*
X187828940Y-111151885D01*
X188047600Y-111218215D01*
X188218021Y-111235000D01*
X189181979Y-111235000D01*
X189352400Y-111218215D01*
X189571060Y-111151885D01*
X189772579Y-111044171D01*
X189840000Y-110988840D01*
X189840001Y-133648909D01*
X189660394Y-133301560D01*
X189585149Y-133188946D01*
X188982818Y-132696787D01*
X185679605Y-136000000D01*
X185693748Y-136014143D01*
X185514143Y-136193748D01*
X185500000Y-136179605D01*
X182196787Y-139482818D01*
X182688946Y-140085149D01*
X183150466Y-140340000D01*
X142851093Y-140340000D01*
X143198440Y-140160394D01*
X143311054Y-140085149D01*
X143803213Y-139482818D01*
X140500000Y-136179605D01*
X140485858Y-136193748D01*
X140306253Y-136014143D01*
X140320395Y-136000000D01*
X140679605Y-136000000D01*
X143982818Y-139303213D01*
X144264490Y-139073061D01*
X174465000Y-139073061D01*
X174465000Y-139276939D01*
X174504774Y-139476898D01*
X174582795Y-139665256D01*
X174696063Y-139834774D01*
X174840226Y-139978937D01*
X175009744Y-140092205D01*
X175198102Y-140170226D01*
X175398061Y-140210000D01*
X175601939Y-140210000D01*
X175801898Y-140170226D01*
X175990256Y-140092205D01*
X176159774Y-139978937D01*
X176303937Y-139834774D01*
X176417205Y-139665256D01*
X176495226Y-139476898D01*
X176535000Y-139276939D01*
X176535000Y-139073061D01*
X176504124Y-138917835D01*
X176640226Y-139053937D01*
X176809744Y-139167205D01*
X176998102Y-139245226D01*
X177198061Y-139285000D01*
X177401939Y-139285000D01*
X177601898Y-139245226D01*
X177790256Y-139167205D01*
X177959774Y-139053937D01*
X178103937Y-138909774D01*
X178217205Y-138740256D01*
X178295226Y-138551898D01*
X178308533Y-138485000D01*
X178326939Y-138485000D01*
X178526898Y-138445226D01*
X178715256Y-138367205D01*
X178884774Y-138253937D01*
X179028937Y-138109774D01*
X179142205Y-137940256D01*
X179220226Y-137751898D01*
X179260000Y-137551939D01*
X179260000Y-137348061D01*
X179220226Y-137148102D01*
X179142205Y-136959744D01*
X179028937Y-136790226D01*
X178884774Y-136646063D01*
X178715256Y-136532795D01*
X178526898Y-136454774D01*
X178326939Y-136415000D01*
X178123061Y-136415000D01*
X177923102Y-136454774D01*
X177734744Y-136532795D01*
X177565226Y-136646063D01*
X177421063Y-136790226D01*
X177307795Y-136959744D01*
X177229774Y-137148102D01*
X177216467Y-137215000D01*
X177198061Y-137215000D01*
X176998102Y-137254774D01*
X176809744Y-137332795D01*
X176640226Y-137446063D01*
X176496063Y-137590226D01*
X176382795Y-137759744D01*
X176304774Y-137948102D01*
X176265000Y-138148061D01*
X176265000Y-138351939D01*
X176295876Y-138507165D01*
X176159774Y-138371063D01*
X175990256Y-138257795D01*
X175801898Y-138179774D01*
X175601939Y-138140000D01*
X175398061Y-138140000D01*
X175198102Y-138179774D01*
X175009744Y-138257795D01*
X174840226Y-138371063D01*
X174696063Y-138515226D01*
X174582795Y-138684744D01*
X174504774Y-138873102D01*
X174465000Y-139073061D01*
X144264490Y-139073061D01*
X144585149Y-138811054D01*
X145055063Y-137960067D01*
X145218046Y-137448061D01*
X165040000Y-137448061D01*
X165040000Y-137651939D01*
X165079774Y-137851898D01*
X165157795Y-138040256D01*
X165271063Y-138209774D01*
X165415226Y-138353937D01*
X165584744Y-138467205D01*
X165773102Y-138545226D01*
X165973061Y-138585000D01*
X166176939Y-138585000D01*
X166376898Y-138545226D01*
X166565256Y-138467205D01*
X166734774Y-138353937D01*
X166878937Y-138209774D01*
X166992205Y-138040256D01*
X167070226Y-137851898D01*
X167075000Y-137827897D01*
X167079774Y-137851898D01*
X167157795Y-138040256D01*
X167271063Y-138209774D01*
X167415226Y-138353937D01*
X167584744Y-138467205D01*
X167773102Y-138545226D01*
X167973061Y-138585000D01*
X168176939Y-138585000D01*
X168376898Y-138545226D01*
X168565256Y-138467205D01*
X168734774Y-138353937D01*
X168878937Y-138209774D01*
X168992205Y-138040256D01*
X169070226Y-137851898D01*
X169110000Y-137651939D01*
X169110000Y-137448061D01*
X169070226Y-137248102D01*
X168992205Y-137059744D01*
X168878937Y-136890226D01*
X168734774Y-136746063D01*
X168565256Y-136632795D01*
X168376898Y-136554774D01*
X168176939Y-136515000D01*
X167973061Y-136515000D01*
X167773102Y-136554774D01*
X167584744Y-136632795D01*
X167415226Y-136746063D01*
X167271063Y-136890226D01*
X167157795Y-137059744D01*
X167079774Y-137248102D01*
X167075000Y-137272103D01*
X167070226Y-137248102D01*
X166992205Y-137059744D01*
X166878937Y-136890226D01*
X166734774Y-136746063D01*
X166565256Y-136632795D01*
X166376898Y-136554774D01*
X166176939Y-136515000D01*
X165973061Y-136515000D01*
X165773102Y-136554774D01*
X165584744Y-136632795D01*
X165415226Y-136746063D01*
X165271063Y-136890226D01*
X165157795Y-137059744D01*
X165079774Y-137248102D01*
X165040000Y-137448061D01*
X145218046Y-137448061D01*
X145340694Y-137062770D01*
X145407926Y-137107693D01*
X145635402Y-137201917D01*
X145876890Y-137249952D01*
X146123110Y-137249952D01*
X146364598Y-137201917D01*
X146592074Y-137107693D01*
X146796798Y-136970901D01*
X146970901Y-136796798D01*
X147107693Y-136592074D01*
X147201917Y-136364598D01*
X147249952Y-136123110D01*
X147249952Y-135876890D01*
X147201917Y-135635402D01*
X147107693Y-135407926D01*
X146970901Y-135203202D01*
X146817699Y-135050000D01*
X150461928Y-135050000D01*
X150461928Y-135950000D01*
X150478031Y-136113500D01*
X150525722Y-136270716D01*
X150603169Y-136415608D01*
X150707394Y-136542606D01*
X150834392Y-136646831D01*
X150979284Y-136724278D01*
X151136500Y-136771969D01*
X151300000Y-136788072D01*
X151700000Y-136788072D01*
X151863500Y-136771969D01*
X152020716Y-136724278D01*
X152165608Y-136646831D01*
X152191894Y-136625259D01*
X152352008Y-136710841D01*
X152547106Y-136770024D01*
X152750000Y-136790007D01*
X152952895Y-136770024D01*
X153147993Y-136710841D01*
X153327797Y-136614734D01*
X153375001Y-136575995D01*
X153422204Y-136614734D01*
X153602008Y-136710841D01*
X153797106Y-136770024D01*
X154000000Y-136790007D01*
X154202895Y-136770024D01*
X154397993Y-136710841D01*
X154577797Y-136614734D01*
X154617938Y-136581791D01*
X154701840Y-136645255D01*
X154887028Y-136734994D01*
X154963877Y-136744666D01*
X155123000Y-136616998D01*
X155123000Y-135627000D01*
X155377000Y-135627000D01*
X155377000Y-136616998D01*
X155536123Y-136744666D01*
X155612972Y-136734994D01*
X155798160Y-136645255D01*
X155962283Y-136521112D01*
X156099033Y-136367336D01*
X156203155Y-136189836D01*
X156270648Y-135995433D01*
X156298918Y-135791599D01*
X156133762Y-135627000D01*
X155377000Y-135627000D01*
X155123000Y-135627000D01*
X155103000Y-135627000D01*
X155103000Y-135373000D01*
X155123000Y-135373000D01*
X155123000Y-134383002D01*
X155377000Y-134383002D01*
X155377000Y-135373000D01*
X156133762Y-135373000D01*
X156298918Y-135208401D01*
X156270648Y-135004567D01*
X156242351Y-134923061D01*
X165065000Y-134923061D01*
X165065000Y-135126939D01*
X165104774Y-135326898D01*
X165182795Y-135515256D01*
X165296063Y-135684774D01*
X165440226Y-135828937D01*
X165609744Y-135942205D01*
X165798102Y-136020226D01*
X165998061Y-136060000D01*
X166201939Y-136060000D01*
X166401898Y-136020226D01*
X166590256Y-135942205D01*
X166759774Y-135828937D01*
X166903937Y-135684774D01*
X167017205Y-135515256D01*
X167092678Y-135333050D01*
X167157795Y-135490256D01*
X167271063Y-135659774D01*
X167415226Y-135803937D01*
X167584744Y-135917205D01*
X167773102Y-135995226D01*
X167973061Y-136035000D01*
X168176939Y-136035000D01*
X168376898Y-135995226D01*
X168528859Y-135932281D01*
X180541586Y-135932281D01*
X180623649Y-136900921D01*
X180893107Y-137834938D01*
X181339606Y-138698440D01*
X181414851Y-138811054D01*
X182017182Y-139303213D01*
X185320395Y-136000000D01*
X182017182Y-132696787D01*
X181414851Y-133188946D01*
X180944937Y-134039933D01*
X180650071Y-134966243D01*
X180541586Y-135932281D01*
X168528859Y-135932281D01*
X168565256Y-135917205D01*
X168734774Y-135803937D01*
X168878937Y-135659774D01*
X168992205Y-135490256D01*
X169070226Y-135301898D01*
X169110000Y-135101939D01*
X169110000Y-134898061D01*
X169070226Y-134698102D01*
X168992205Y-134509744D01*
X168878937Y-134340226D01*
X168734774Y-134196063D01*
X168565256Y-134082795D01*
X168376898Y-134004774D01*
X168176939Y-133965000D01*
X167973061Y-133965000D01*
X167773102Y-134004774D01*
X167584744Y-134082795D01*
X167415226Y-134196063D01*
X167271063Y-134340226D01*
X167157795Y-134509744D01*
X167082322Y-134691950D01*
X167017205Y-134534744D01*
X166903937Y-134365226D01*
X166759774Y-134221063D01*
X166590256Y-134107795D01*
X166401898Y-134029774D01*
X166201939Y-133990000D01*
X165998061Y-133990000D01*
X165798102Y-134029774D01*
X165609744Y-134107795D01*
X165440226Y-134221063D01*
X165296063Y-134365226D01*
X165182795Y-134534744D01*
X165104774Y-134723102D01*
X165065000Y-134923061D01*
X156242351Y-134923061D01*
X156203155Y-134810164D01*
X156099033Y-134632664D01*
X155962283Y-134478888D01*
X155798160Y-134354745D01*
X155612972Y-134265006D01*
X155536123Y-134255334D01*
X155377000Y-134383002D01*
X155123000Y-134383002D01*
X154963877Y-134255334D01*
X154887028Y-134265006D01*
X154701840Y-134354745D01*
X154617938Y-134418209D01*
X154577797Y-134385266D01*
X154397992Y-134289159D01*
X154202894Y-134229976D01*
X154000000Y-134209993D01*
X153797105Y-134229976D01*
X153602007Y-134289159D01*
X153422203Y-134385266D01*
X153375000Y-134424004D01*
X153327797Y-134385266D01*
X153147992Y-134289159D01*
X152952894Y-134229976D01*
X152750000Y-134209993D01*
X152547105Y-134229976D01*
X152352007Y-134289159D01*
X152191894Y-134374741D01*
X152165608Y-134353169D01*
X152020716Y-134275722D01*
X151863500Y-134228031D01*
X151700000Y-134211928D01*
X151300000Y-134211928D01*
X151136500Y-134228031D01*
X150979284Y-134275722D01*
X150834392Y-134353169D01*
X150707394Y-134457394D01*
X150603169Y-134584392D01*
X150525722Y-134729284D01*
X150478031Y-134886500D01*
X150461928Y-135050000D01*
X146817699Y-135050000D01*
X146796798Y-135029099D01*
X146592074Y-134892307D01*
X146364598Y-134798083D01*
X146123110Y-134750048D01*
X145876890Y-134750048D01*
X145635402Y-134798083D01*
X145407926Y-134892307D01*
X145331442Y-134943412D01*
X145106893Y-134165062D01*
X144660394Y-133301560D01*
X144585149Y-133188946D01*
X143982818Y-132696787D01*
X140679605Y-136000000D01*
X140320395Y-136000000D01*
X137017182Y-132696787D01*
X136414851Y-133188946D01*
X136160000Y-133650466D01*
X136160000Y-132517182D01*
X137196787Y-132517182D01*
X140500000Y-135820395D01*
X143803213Y-132517182D01*
X143311054Y-131914851D01*
X142460067Y-131444937D01*
X142391345Y-131423061D01*
X164615000Y-131423061D01*
X164615000Y-131626939D01*
X164654774Y-131826898D01*
X164732795Y-132015256D01*
X164846063Y-132184774D01*
X164990226Y-132328937D01*
X165159744Y-132442205D01*
X165348102Y-132520226D01*
X165548061Y-132560000D01*
X165751939Y-132560000D01*
X165951898Y-132520226D01*
X166140256Y-132442205D01*
X166309774Y-132328937D01*
X166453937Y-132184774D01*
X166567205Y-132015256D01*
X166645226Y-131826898D01*
X166685000Y-131626939D01*
X166685000Y-131423061D01*
X166645226Y-131223102D01*
X166567205Y-131034744D01*
X166453937Y-130865226D01*
X166351211Y-130762500D01*
X166478937Y-130634774D01*
X166592205Y-130465256D01*
X166670226Y-130276898D01*
X166710000Y-130076939D01*
X166710000Y-129898061D01*
X167390000Y-129898061D01*
X167390000Y-130101939D01*
X167429774Y-130301898D01*
X167507795Y-130490256D01*
X167621063Y-130659774D01*
X167761289Y-130800000D01*
X167646063Y-130915226D01*
X167532795Y-131084744D01*
X167454774Y-131273102D01*
X167415000Y-131473061D01*
X167415000Y-131676939D01*
X167454774Y-131876898D01*
X167532795Y-132065256D01*
X167646063Y-132234774D01*
X167790226Y-132378937D01*
X167959744Y-132492205D01*
X168148102Y-132570226D01*
X168348061Y-132610000D01*
X168551939Y-132610000D01*
X168751898Y-132570226D01*
X168879956Y-132517182D01*
X182196787Y-132517182D01*
X185500000Y-135820395D01*
X188803213Y-132517182D01*
X188311054Y-131914851D01*
X187460067Y-131444937D01*
X186533757Y-131150071D01*
X185567719Y-131041586D01*
X184599079Y-131123649D01*
X183665062Y-131393107D01*
X182801560Y-131839606D01*
X182688946Y-131914851D01*
X182196787Y-132517182D01*
X168879956Y-132517182D01*
X168940256Y-132492205D01*
X169109774Y-132378937D01*
X169253937Y-132234774D01*
X169367205Y-132065256D01*
X169445226Y-131876898D01*
X169485000Y-131676939D01*
X169485000Y-131473061D01*
X169445226Y-131273102D01*
X169367205Y-131084744D01*
X169253937Y-130915226D01*
X169113711Y-130775000D01*
X169228937Y-130659774D01*
X169342205Y-130490256D01*
X169420226Y-130301898D01*
X169460000Y-130101939D01*
X169460000Y-129898061D01*
X169420226Y-129698102D01*
X169342205Y-129509744D01*
X169228937Y-129340226D01*
X169084774Y-129196063D01*
X168915256Y-129082795D01*
X168726898Y-129004774D01*
X168526939Y-128965000D01*
X168323061Y-128965000D01*
X168123102Y-129004774D01*
X167934744Y-129082795D01*
X167765226Y-129196063D01*
X167621063Y-129340226D01*
X167507795Y-129509744D01*
X167429774Y-129698102D01*
X167390000Y-129898061D01*
X166710000Y-129898061D01*
X166710000Y-129873061D01*
X166670226Y-129673102D01*
X166592205Y-129484744D01*
X166478937Y-129315226D01*
X166334774Y-129171063D01*
X166165256Y-129057795D01*
X165976898Y-128979774D01*
X165776939Y-128940000D01*
X165573061Y-128940000D01*
X165373102Y-128979774D01*
X165184744Y-129057795D01*
X165015226Y-129171063D01*
X164871063Y-129315226D01*
X164757795Y-129484744D01*
X164679774Y-129673102D01*
X164640000Y-129873061D01*
X164640000Y-130076939D01*
X164679774Y-130276898D01*
X164757795Y-130465256D01*
X164871063Y-130634774D01*
X164973789Y-130737500D01*
X164846063Y-130865226D01*
X164732795Y-131034744D01*
X164654774Y-131223102D01*
X164615000Y-131423061D01*
X142391345Y-131423061D01*
X141533757Y-131150071D01*
X140567719Y-131041586D01*
X139599079Y-131123649D01*
X138665062Y-131393107D01*
X137801560Y-131839606D01*
X137688946Y-131914851D01*
X137196787Y-132517182D01*
X136160000Y-132517182D01*
X136160000Y-125300000D01*
X183161928Y-125300000D01*
X183161928Y-127700000D01*
X183174188Y-127824482D01*
X183210498Y-127944180D01*
X183269463Y-128054494D01*
X183348815Y-128151185D01*
X183445506Y-128230537D01*
X183555820Y-128289502D01*
X183675518Y-128325812D01*
X183800000Y-128338072D01*
X186200000Y-128338072D01*
X186324482Y-128325812D01*
X186444180Y-128289502D01*
X186554494Y-128230537D01*
X186651185Y-128151185D01*
X186730537Y-128054494D01*
X186789502Y-127944180D01*
X186825812Y-127824482D01*
X186838072Y-127700000D01*
X186838072Y-125300000D01*
X186825812Y-125175518D01*
X186789502Y-125055820D01*
X186730537Y-124945506D01*
X186651185Y-124848815D01*
X186554494Y-124769463D01*
X186444180Y-124710498D01*
X186324482Y-124674188D01*
X186200000Y-124661928D01*
X185793097Y-124661928D01*
X185978486Y-124562836D01*
X186098374Y-124277980D01*
X185000000Y-123179605D01*
X183901626Y-124277980D01*
X184021514Y-124562836D01*
X184220912Y-124661928D01*
X183800000Y-124661928D01*
X183675518Y-124674188D01*
X183555820Y-124710498D01*
X183445506Y-124769463D01*
X183348815Y-124848815D01*
X183269463Y-124945506D01*
X183210498Y-125055820D01*
X183174188Y-125175518D01*
X183161928Y-125300000D01*
X136160000Y-125300000D01*
X136160000Y-123223061D01*
X150890000Y-123223061D01*
X150890000Y-123426939D01*
X150929774Y-123626898D01*
X151007795Y-123815256D01*
X151121063Y-123984774D01*
X151265226Y-124128937D01*
X151434744Y-124242205D01*
X151623102Y-124320226D01*
X151823061Y-124360000D01*
X152026939Y-124360000D01*
X152226898Y-124320226D01*
X152415256Y-124242205D01*
X152584774Y-124128937D01*
X152728937Y-123984774D01*
X152842205Y-123815256D01*
X152920226Y-123626898D01*
X152960000Y-123426939D01*
X152960000Y-123223061D01*
X152926509Y-123054684D01*
X183156933Y-123054684D01*
X183203015Y-123413198D01*
X183318154Y-123755833D01*
X183437164Y-123978486D01*
X183722020Y-124098374D01*
X184820395Y-123000000D01*
X185179605Y-123000000D01*
X186277980Y-124098374D01*
X186562836Y-123978486D01*
X186723699Y-123654790D01*
X186818322Y-123305931D01*
X186843067Y-122945316D01*
X186796985Y-122586802D01*
X186681846Y-122244167D01*
X186562836Y-122021514D01*
X186277980Y-121901626D01*
X185179605Y-123000000D01*
X184820395Y-123000000D01*
X183722020Y-121901626D01*
X183437164Y-122021514D01*
X183276301Y-122345210D01*
X183181678Y-122694069D01*
X183156933Y-123054684D01*
X152926509Y-123054684D01*
X152920226Y-123023102D01*
X152842205Y-122834744D01*
X152728937Y-122665226D01*
X152584774Y-122521063D01*
X152415256Y-122407795D01*
X152226898Y-122329774D01*
X152026939Y-122290000D01*
X151823061Y-122290000D01*
X151623102Y-122329774D01*
X151434744Y-122407795D01*
X151265226Y-122521063D01*
X151121063Y-122665226D01*
X151007795Y-122834744D01*
X150929774Y-123023102D01*
X150890000Y-123223061D01*
X136160000Y-123223061D01*
X136160000Y-120398061D01*
X143740000Y-120398061D01*
X143740000Y-120601939D01*
X143779774Y-120801898D01*
X143857795Y-120990256D01*
X143971063Y-121159774D01*
X144115226Y-121303937D01*
X144284744Y-121417205D01*
X144473102Y-121495226D01*
X144489136Y-121498415D01*
X144499774Y-121551898D01*
X144577795Y-121740256D01*
X144691063Y-121909774D01*
X144835226Y-122053937D01*
X145004744Y-122167205D01*
X145193102Y-122245226D01*
X145393061Y-122285000D01*
X145596939Y-122285000D01*
X145796898Y-122245226D01*
X145985256Y-122167205D01*
X146154774Y-122053937D01*
X146298937Y-121909774D01*
X146412205Y-121740256D01*
X146419327Y-121723061D01*
X158515000Y-121723061D01*
X158515000Y-121926939D01*
X158554774Y-122126898D01*
X158632795Y-122315256D01*
X158746063Y-122484774D01*
X158890226Y-122628937D01*
X159059744Y-122742205D01*
X159248102Y-122820226D01*
X159448061Y-122860000D01*
X159651939Y-122860000D01*
X159851898Y-122820226D01*
X160040256Y-122742205D01*
X160209774Y-122628937D01*
X160353937Y-122484774D01*
X160467205Y-122315256D01*
X160545226Y-122126898D01*
X160585000Y-121926939D01*
X160585000Y-121723061D01*
X160584793Y-121722020D01*
X183901626Y-121722020D01*
X185000000Y-122820395D01*
X186098374Y-121722020D01*
X185978486Y-121437164D01*
X185654790Y-121276301D01*
X185305931Y-121181678D01*
X184945316Y-121156933D01*
X184586802Y-121203015D01*
X184244167Y-121318154D01*
X184021514Y-121437164D01*
X183901626Y-121722020D01*
X160584793Y-121722020D01*
X160545226Y-121523102D01*
X160467205Y-121334744D01*
X160353937Y-121165226D01*
X160209774Y-121021063D01*
X160040256Y-120907795D01*
X159851898Y-120829774D01*
X159651939Y-120790000D01*
X159448061Y-120790000D01*
X159248102Y-120829774D01*
X159059744Y-120907795D01*
X158890226Y-121021063D01*
X158746063Y-121165226D01*
X158632795Y-121334744D01*
X158554774Y-121523102D01*
X158515000Y-121723061D01*
X146419327Y-121723061D01*
X146490226Y-121551898D01*
X146530000Y-121351939D01*
X146530000Y-121148061D01*
X146490226Y-120948102D01*
X146412205Y-120759744D01*
X146298937Y-120590226D01*
X146154774Y-120446063D01*
X145985256Y-120332795D01*
X145796898Y-120254774D01*
X145780864Y-120251585D01*
X145770226Y-120198102D01*
X145692205Y-120009744D01*
X145578937Y-119840226D01*
X145434774Y-119696063D01*
X145265256Y-119582795D01*
X145076898Y-119504774D01*
X144876939Y-119465000D01*
X144673061Y-119465000D01*
X144473102Y-119504774D01*
X144284744Y-119582795D01*
X144115226Y-119696063D01*
X143971063Y-119840226D01*
X143857795Y-120009744D01*
X143779774Y-120198102D01*
X143740000Y-120398061D01*
X136160000Y-120398061D01*
X136160000Y-115132936D01*
X148673934Y-115132936D01*
X148673934Y-115336814D01*
X148713708Y-115536773D01*
X148791729Y-115725131D01*
X148904997Y-115894649D01*
X149049160Y-116038812D01*
X149218678Y-116152080D01*
X149407036Y-116230101D01*
X149606995Y-116269875D01*
X149810873Y-116269875D01*
X150010832Y-116230101D01*
X150199190Y-116152080D01*
X150368708Y-116038812D01*
X150512871Y-115894649D01*
X150626139Y-115725131D01*
X150704160Y-115536773D01*
X150743934Y-115336814D01*
X150743934Y-115132936D01*
X150704160Y-114932977D01*
X150626139Y-114744619D01*
X150512871Y-114575101D01*
X150368708Y-114430938D01*
X150199190Y-114317670D01*
X150010832Y-114239649D01*
X149810873Y-114199875D01*
X149606995Y-114199875D01*
X149407036Y-114239649D01*
X149218678Y-114317670D01*
X149049160Y-114430938D01*
X148904997Y-114575101D01*
X148791729Y-114744619D01*
X148713708Y-114932977D01*
X148673934Y-115132936D01*
X136160000Y-115132936D01*
X136160000Y-112148061D01*
X144665000Y-112148061D01*
X144665000Y-112351939D01*
X144704774Y-112551898D01*
X144782795Y-112740256D01*
X144896063Y-112909774D01*
X145040226Y-113053937D01*
X145209744Y-113167205D01*
X145398102Y-113245226D01*
X145598061Y-113285000D01*
X145801939Y-113285000D01*
X146001898Y-113245226D01*
X146190256Y-113167205D01*
X146359774Y-113053937D01*
X146503937Y-112909774D01*
X146617205Y-112740256D01*
X146695226Y-112551898D01*
X146735000Y-112351939D01*
X146735000Y-112148061D01*
X146695226Y-111948102D01*
X146617205Y-111759744D01*
X146503937Y-111590226D01*
X146359774Y-111446063D01*
X146190256Y-111332795D01*
X146001898Y-111254774D01*
X145801939Y-111215000D01*
X145598061Y-111215000D01*
X145398102Y-111254774D01*
X145209744Y-111332795D01*
X145040226Y-111446063D01*
X144896063Y-111590226D01*
X144782795Y-111759744D01*
X144704774Y-111948102D01*
X144665000Y-112148061D01*
X136160000Y-112148061D01*
X136160000Y-111148061D01*
X159365000Y-111148061D01*
X159365000Y-111351939D01*
X159404774Y-111551898D01*
X159482795Y-111740256D01*
X159596063Y-111909774D01*
X159740226Y-112053937D01*
X159909744Y-112167205D01*
X160098102Y-112245226D01*
X160298061Y-112285000D01*
X160501939Y-112285000D01*
X160701898Y-112245226D01*
X160890256Y-112167205D01*
X161059774Y-112053937D01*
X161203937Y-111909774D01*
X161317205Y-111740256D01*
X161395226Y-111551898D01*
X161435000Y-111351939D01*
X161435000Y-111148061D01*
X161395226Y-110948102D01*
X161317205Y-110759744D01*
X161203937Y-110590226D01*
X161059774Y-110446063D01*
X160890256Y-110332795D01*
X160701898Y-110254774D01*
X160501939Y-110215000D01*
X160298061Y-110215000D01*
X160098102Y-110254774D01*
X159909744Y-110332795D01*
X159740226Y-110446063D01*
X159596063Y-110590226D01*
X159482795Y-110759744D01*
X159404774Y-110948102D01*
X159365000Y-111148061D01*
X136160000Y-111148061D01*
X136160000Y-108393137D01*
X136585000Y-108393137D01*
X136585000Y-108606863D01*
X136626696Y-108816483D01*
X136708485Y-109013940D01*
X136827225Y-109191647D01*
X136978353Y-109342775D01*
X137156060Y-109461515D01*
X137353517Y-109543304D01*
X137563137Y-109585000D01*
X137776863Y-109585000D01*
X137986483Y-109543304D01*
X138183940Y-109461515D01*
X138361647Y-109342775D01*
X138512775Y-109191647D01*
X138631515Y-109013940D01*
X138689868Y-108873061D01*
X146640000Y-108873061D01*
X146640000Y-109076939D01*
X146679774Y-109276898D01*
X146757795Y-109465256D01*
X146871063Y-109634774D01*
X147015226Y-109778937D01*
X147184744Y-109892205D01*
X147373102Y-109970226D01*
X147573061Y-110010000D01*
X147776939Y-110010000D01*
X147976898Y-109970226D01*
X148165256Y-109892205D01*
X148334774Y-109778937D01*
X148478937Y-109634774D01*
X148592205Y-109465256D01*
X148670226Y-109276898D01*
X148710000Y-109076939D01*
X148710000Y-108873061D01*
X148670226Y-108673102D01*
X148592205Y-108484744D01*
X148478937Y-108315226D01*
X148334774Y-108171063D01*
X148165256Y-108057795D01*
X147976898Y-107979774D01*
X147776939Y-107940000D01*
X147573061Y-107940000D01*
X147373102Y-107979774D01*
X147184744Y-108057795D01*
X147015226Y-108171063D01*
X146871063Y-108315226D01*
X146757795Y-108484744D01*
X146679774Y-108673102D01*
X146640000Y-108873061D01*
X138689868Y-108873061D01*
X138713304Y-108816483D01*
X138755000Y-108606863D01*
X138755000Y-108393137D01*
X138713304Y-108183517D01*
X138631515Y-107986060D01*
X138512775Y-107808353D01*
X138361647Y-107657225D01*
X138183940Y-107538485D01*
X137986483Y-107456696D01*
X137776863Y-107415000D01*
X137563137Y-107415000D01*
X137353517Y-107456696D01*
X137156060Y-107538485D01*
X136978353Y-107657225D01*
X136827225Y-107808353D01*
X136708485Y-107986060D01*
X136626696Y-108183517D01*
X136585000Y-108393137D01*
X136160000Y-108393137D01*
X136160000Y-105393137D01*
X136585000Y-105393137D01*
X136585000Y-105606863D01*
X136626696Y-105816483D01*
X136708485Y-106013940D01*
X136827225Y-106191647D01*
X136978353Y-106342775D01*
X137156060Y-106461515D01*
X137353517Y-106543304D01*
X137563137Y-106585000D01*
X137776863Y-106585000D01*
X137986483Y-106543304D01*
X138183940Y-106461515D01*
X138361647Y-106342775D01*
X138456361Y-106248061D01*
X149965000Y-106248061D01*
X149965000Y-106451939D01*
X150004774Y-106651898D01*
X150082795Y-106840256D01*
X150196063Y-107009774D01*
X150340226Y-107153937D01*
X150509744Y-107267205D01*
X150698102Y-107345226D01*
X150898061Y-107385000D01*
X151101939Y-107385000D01*
X151301898Y-107345226D01*
X151490256Y-107267205D01*
X151659774Y-107153937D01*
X151803937Y-107009774D01*
X151917205Y-106840256D01*
X151995226Y-106651898D01*
X152035000Y-106451939D01*
X152035000Y-106248061D01*
X152030028Y-106223061D01*
X153540000Y-106223061D01*
X153540000Y-106426939D01*
X153579774Y-106626898D01*
X153657795Y-106815256D01*
X153771063Y-106984774D01*
X153915226Y-107128937D01*
X154084744Y-107242205D01*
X154273102Y-107320226D01*
X154473061Y-107360000D01*
X154676939Y-107360000D01*
X154876898Y-107320226D01*
X155065256Y-107242205D01*
X155170706Y-107171746D01*
X155348102Y-107245226D01*
X155548061Y-107285000D01*
X155751939Y-107285000D01*
X155951898Y-107245226D01*
X156140256Y-107167205D01*
X156309774Y-107053937D01*
X156453937Y-106909774D01*
X156567205Y-106740256D01*
X156645226Y-106551898D01*
X156685000Y-106351939D01*
X156685000Y-106148061D01*
X156645226Y-105948102D01*
X156567205Y-105759744D01*
X156453937Y-105590226D01*
X156309774Y-105446063D01*
X156140256Y-105332795D01*
X155951898Y-105254774D01*
X155751939Y-105215000D01*
X155548061Y-105215000D01*
X155348102Y-105254774D01*
X155159744Y-105332795D01*
X155054294Y-105403254D01*
X154876898Y-105329774D01*
X154676939Y-105290000D01*
X154473061Y-105290000D01*
X154273102Y-105329774D01*
X154084744Y-105407795D01*
X153915226Y-105521063D01*
X153771063Y-105665226D01*
X153657795Y-105834744D01*
X153579774Y-106023102D01*
X153540000Y-106223061D01*
X152030028Y-106223061D01*
X151995226Y-106048102D01*
X151917205Y-105859744D01*
X151803937Y-105690226D01*
X151659774Y-105546063D01*
X151490256Y-105432795D01*
X151301898Y-105354774D01*
X151101939Y-105315000D01*
X150898061Y-105315000D01*
X150698102Y-105354774D01*
X150509744Y-105432795D01*
X150340226Y-105546063D01*
X150196063Y-105690226D01*
X150082795Y-105859744D01*
X150004774Y-106048102D01*
X149965000Y-106248061D01*
X138456361Y-106248061D01*
X138512775Y-106191647D01*
X138631515Y-106013940D01*
X138713304Y-105816483D01*
X138755000Y-105606863D01*
X138755000Y-105393137D01*
X138713304Y-105183517D01*
X138631515Y-104986060D01*
X138512775Y-104808353D01*
X138361647Y-104657225D01*
X138347933Y-104648061D01*
X139565000Y-104648061D01*
X139565000Y-104851939D01*
X139604774Y-105051898D01*
X139682795Y-105240256D01*
X139796063Y-105409774D01*
X139940226Y-105553937D01*
X140109744Y-105667205D01*
X140298102Y-105745226D01*
X140498061Y-105785000D01*
X140701939Y-105785000D01*
X140901898Y-105745226D01*
X141090256Y-105667205D01*
X141259774Y-105553937D01*
X141403937Y-105409774D01*
X141517205Y-105240256D01*
X141595226Y-105051898D01*
X141635000Y-104851939D01*
X141635000Y-104648061D01*
X141595226Y-104448102D01*
X141517205Y-104259744D01*
X141403937Y-104090226D01*
X141259774Y-103946063D01*
X141090256Y-103832795D01*
X140901898Y-103754774D01*
X140701939Y-103715000D01*
X140498061Y-103715000D01*
X140298102Y-103754774D01*
X140109744Y-103832795D01*
X139940226Y-103946063D01*
X139796063Y-104090226D01*
X139682795Y-104259744D01*
X139604774Y-104448102D01*
X139565000Y-104648061D01*
X138347933Y-104648061D01*
X138183940Y-104538485D01*
X137986483Y-104456696D01*
X137776863Y-104415000D01*
X137563137Y-104415000D01*
X137353517Y-104456696D01*
X137156060Y-104538485D01*
X136978353Y-104657225D01*
X136827225Y-104808353D01*
X136708485Y-104986060D01*
X136626696Y-105183517D01*
X136585000Y-105393137D01*
X136160000Y-105393137D01*
X136160000Y-99482818D01*
X137196787Y-99482818D01*
X137688946Y-100085149D01*
X138539933Y-100555063D01*
X139466243Y-100849929D01*
X140432281Y-100958414D01*
X141400921Y-100876351D01*
X142334938Y-100606893D01*
X143198440Y-100160394D01*
X143311054Y-100085149D01*
X143803213Y-99482818D01*
X182196787Y-99482818D01*
X182688946Y-100085149D01*
X183539933Y-100555063D01*
X184466243Y-100849929D01*
X185432281Y-100958414D01*
X186400921Y-100876351D01*
X187334938Y-100606893D01*
X188198440Y-100160394D01*
X188311054Y-100085149D01*
X188803213Y-99482818D01*
X185500000Y-96179605D01*
X182196787Y-99482818D01*
X143803213Y-99482818D01*
X140500000Y-96179605D01*
X137196787Y-99482818D01*
X136160000Y-99482818D01*
X136160000Y-98351093D01*
X136339606Y-98698440D01*
X136414851Y-98811054D01*
X137017182Y-99303213D01*
X140320395Y-96000000D01*
X140679605Y-96000000D01*
X143982818Y-99303213D01*
X144585149Y-98811054D01*
X145055063Y-97960067D01*
X145340694Y-97062770D01*
X145407926Y-97107693D01*
X145635402Y-97201917D01*
X145876890Y-97249952D01*
X146123110Y-97249952D01*
X146364598Y-97201917D01*
X146592074Y-97107693D01*
X146796798Y-96970901D01*
X146970901Y-96796798D01*
X146974374Y-96791599D01*
X150201082Y-96791599D01*
X150229352Y-96995433D01*
X150296845Y-97189836D01*
X150400967Y-97367336D01*
X150537717Y-97521112D01*
X150701840Y-97645255D01*
X150887028Y-97734994D01*
X150963877Y-97744666D01*
X151123000Y-97616998D01*
X151123000Y-96627000D01*
X150366238Y-96627000D01*
X150201082Y-96791599D01*
X146974374Y-96791599D01*
X147107693Y-96592074D01*
X147201917Y-96364598D01*
X147232986Y-96208401D01*
X150201082Y-96208401D01*
X150366238Y-96373000D01*
X151123000Y-96373000D01*
X151123000Y-95383002D01*
X151377000Y-95383002D01*
X151377000Y-96373000D01*
X151397000Y-96373000D01*
X151397000Y-96627000D01*
X151377000Y-96627000D01*
X151377000Y-97616998D01*
X151536123Y-97744666D01*
X151612972Y-97734994D01*
X151798160Y-97645255D01*
X151882062Y-97581791D01*
X151922203Y-97614734D01*
X152102007Y-97710841D01*
X152297105Y-97770024D01*
X152500000Y-97790007D01*
X152702894Y-97770024D01*
X152897992Y-97710841D01*
X153077797Y-97614734D01*
X153125000Y-97575996D01*
X153172203Y-97614734D01*
X153352007Y-97710841D01*
X153547105Y-97770024D01*
X153750000Y-97790007D01*
X153952894Y-97770024D01*
X153972393Y-97764109D01*
X154004774Y-97926898D01*
X154082795Y-98115256D01*
X154196063Y-98284774D01*
X154340226Y-98428937D01*
X154509744Y-98542205D01*
X154698102Y-98620226D01*
X154898061Y-98660000D01*
X155101939Y-98660000D01*
X155301898Y-98620226D01*
X155490256Y-98542205D01*
X155659774Y-98428937D01*
X155803937Y-98284774D01*
X155917205Y-98115256D01*
X155995226Y-97926898D01*
X156035000Y-97726939D01*
X156035000Y-97523061D01*
X155995226Y-97323102D01*
X155973855Y-97271508D01*
X155974278Y-97270716D01*
X156021969Y-97113500D01*
X156038072Y-96950000D01*
X156038072Y-96050000D01*
X156021969Y-95886500D01*
X156019054Y-95876890D01*
X178750048Y-95876890D01*
X178750048Y-96123110D01*
X178798083Y-96364598D01*
X178892307Y-96592074D01*
X179029099Y-96796798D01*
X179203202Y-96970901D01*
X179407926Y-97107693D01*
X179635402Y-97201917D01*
X179876890Y-97249952D01*
X180123110Y-97249952D01*
X180364598Y-97201917D01*
X180592074Y-97107693D01*
X180668558Y-97056588D01*
X180893107Y-97834938D01*
X181339606Y-98698440D01*
X181414851Y-98811054D01*
X182017182Y-99303213D01*
X185320395Y-96000000D01*
X182017182Y-92696787D01*
X181414851Y-93188946D01*
X180944937Y-94039933D01*
X180659306Y-94937230D01*
X180592074Y-94892307D01*
X180364598Y-94798083D01*
X180123110Y-94750048D01*
X179876890Y-94750048D01*
X179635402Y-94798083D01*
X179407926Y-94892307D01*
X179203202Y-95029099D01*
X179029099Y-95203202D01*
X178892307Y-95407926D01*
X178798083Y-95635402D01*
X178750048Y-95876890D01*
X156019054Y-95876890D01*
X155974278Y-95729284D01*
X155896831Y-95584392D01*
X155792606Y-95457394D01*
X155665608Y-95353169D01*
X155520716Y-95275722D01*
X155363500Y-95228031D01*
X155200000Y-95211928D01*
X154800000Y-95211928D01*
X154636500Y-95228031D01*
X154479284Y-95275722D01*
X154334392Y-95353169D01*
X154308106Y-95374741D01*
X154147993Y-95289159D01*
X153952895Y-95229976D01*
X153750000Y-95209993D01*
X153547106Y-95229976D01*
X153352008Y-95289159D01*
X153172204Y-95385266D01*
X153125001Y-95424005D01*
X153077797Y-95385266D01*
X152897993Y-95289159D01*
X152702895Y-95229976D01*
X152500000Y-95209993D01*
X152297106Y-95229976D01*
X152102008Y-95289159D01*
X151922204Y-95385266D01*
X151882063Y-95418209D01*
X151798160Y-95354745D01*
X151612972Y-95265006D01*
X151536123Y-95255334D01*
X151377000Y-95383002D01*
X151123000Y-95383002D01*
X150963877Y-95255334D01*
X150887028Y-95265006D01*
X150701840Y-95354745D01*
X150537717Y-95478888D01*
X150400967Y-95632664D01*
X150296845Y-95810164D01*
X150229352Y-96004567D01*
X150201082Y-96208401D01*
X147232986Y-96208401D01*
X147249952Y-96123110D01*
X147249952Y-95876890D01*
X147201917Y-95635402D01*
X147107693Y-95407926D01*
X146970901Y-95203202D01*
X146796798Y-95029099D01*
X146592074Y-94892307D01*
X146364598Y-94798083D01*
X146123110Y-94750048D01*
X145876890Y-94750048D01*
X145635402Y-94798083D01*
X145407926Y-94892307D01*
X145331442Y-94943412D01*
X145106893Y-94165062D01*
X144660394Y-93301560D01*
X144585149Y-93188946D01*
X143982818Y-92696787D01*
X140679605Y-96000000D01*
X140320395Y-96000000D01*
X140306253Y-95985858D01*
X140485858Y-95806253D01*
X140500000Y-95820395D01*
X143803213Y-92517182D01*
X143311054Y-91914851D01*
X142849534Y-91660000D01*
X166470556Y-91660000D01*
X166454774Y-91698102D01*
%TA.AperFunction,Conductor*%
D18*
G36*
X166454774Y-91698102D02*
G01*
X166415000Y-91898061D01*
X166415000Y-92101939D01*
X166454774Y-92301898D01*
X166532795Y-92490256D01*
X166646063Y-92659774D01*
X166790226Y-92803937D01*
X166959744Y-92917205D01*
X167148102Y-92995226D01*
X167348061Y-93035000D01*
X167551939Y-93035000D01*
X167751898Y-92995226D01*
X167940256Y-92917205D01*
X168109774Y-92803937D01*
X168253937Y-92659774D01*
X168367205Y-92490256D01*
X168445226Y-92301898D01*
X168485000Y-92101939D01*
X168485000Y-91898061D01*
X168445226Y-91698102D01*
X168429444Y-91660000D01*
X183148907Y-91660000D01*
X182801560Y-91839606D01*
X182688946Y-91914851D01*
X182196787Y-92517182D01*
X185500000Y-95820395D01*
X185514143Y-95806253D01*
X185693748Y-95985858D01*
X185679605Y-96000000D01*
X188982818Y-99303213D01*
X189585149Y-98811054D01*
X189840000Y-98349534D01*
X189840000Y-102011160D01*
X189772579Y-101955829D01*
X189571060Y-101848115D01*
X189352400Y-101781785D01*
X189181979Y-101765000D01*
X188218021Y-101765000D01*
X188047600Y-101781785D01*
X187828940Y-101848115D01*
X187627421Y-101955829D01*
X187450788Y-102100788D01*
X187305829Y-102277421D01*
X187198115Y-102478940D01*
X187131785Y-102697600D01*
X187109388Y-102925000D01*
X187131785Y-103152400D01*
X187198115Y-103371060D01*
X187305829Y-103572579D01*
X187450788Y-103749212D01*
X187627421Y-103894171D01*
X187828940Y-104001885D01*
X188047600Y-104068215D01*
X188218021Y-104085000D01*
X189181979Y-104085000D01*
X189352400Y-104068215D01*
X189571060Y-104001885D01*
X189772579Y-103894171D01*
X189840000Y-103838840D01*
X189840000Y-109161160D01*
X189772579Y-109105829D01*
X189571060Y-108998115D01*
X189352400Y-108931785D01*
X189181979Y-108915000D01*
X188218021Y-108915000D01*
X188047600Y-108931785D01*
X187828940Y-108998115D01*
X187627421Y-109105829D01*
X187450788Y-109250788D01*
X187305829Y-109427421D01*
X187198115Y-109628940D01*
X187131785Y-109847600D01*
X187109388Y-110075000D01*
X187131785Y-110302400D01*
X187198115Y-110521060D01*
X187305829Y-110722579D01*
X187450788Y-110899212D01*
X187627421Y-111044171D01*
X187828940Y-111151885D01*
X188047600Y-111218215D01*
X188218021Y-111235000D01*
X189181979Y-111235000D01*
X189352400Y-111218215D01*
X189571060Y-111151885D01*
X189772579Y-111044171D01*
X189840000Y-110988840D01*
X189840001Y-133648909D01*
X189660394Y-133301560D01*
X189585149Y-133188946D01*
X188982818Y-132696787D01*
X185679605Y-136000000D01*
X185693748Y-136014143D01*
X185514143Y-136193748D01*
X185500000Y-136179605D01*
X182196787Y-139482818D01*
X182688946Y-140085149D01*
X183150466Y-140340000D01*
X142851093Y-140340000D01*
X143198440Y-140160394D01*
X143311054Y-140085149D01*
X143803213Y-139482818D01*
X140500000Y-136179605D01*
X140485858Y-136193748D01*
X140306253Y-136014143D01*
X140320395Y-136000000D01*
X140679605Y-136000000D01*
X143982818Y-139303213D01*
X144264490Y-139073061D01*
X174465000Y-139073061D01*
X174465000Y-139276939D01*
X174504774Y-139476898D01*
X174582795Y-139665256D01*
X174696063Y-139834774D01*
X174840226Y-139978937D01*
X175009744Y-140092205D01*
X175198102Y-140170226D01*
X175398061Y-140210000D01*
X175601939Y-140210000D01*
X175801898Y-140170226D01*
X175990256Y-140092205D01*
X176159774Y-139978937D01*
X176303937Y-139834774D01*
X176417205Y-139665256D01*
X176495226Y-139476898D01*
X176535000Y-139276939D01*
X176535000Y-139073061D01*
X176504124Y-138917835D01*
X176640226Y-139053937D01*
X176809744Y-139167205D01*
X176998102Y-139245226D01*
X177198061Y-139285000D01*
X177401939Y-139285000D01*
X177601898Y-139245226D01*
X177790256Y-139167205D01*
X177959774Y-139053937D01*
X178103937Y-138909774D01*
X178217205Y-138740256D01*
X178295226Y-138551898D01*
X178308533Y-138485000D01*
X178326939Y-138485000D01*
X178526898Y-138445226D01*
X178715256Y-138367205D01*
X178884774Y-138253937D01*
X179028937Y-138109774D01*
X179142205Y-137940256D01*
X179220226Y-137751898D01*
X179260000Y-137551939D01*
X179260000Y-137348061D01*
X179220226Y-137148102D01*
X179142205Y-136959744D01*
X179028937Y-136790226D01*
X178884774Y-136646063D01*
X178715256Y-136532795D01*
X178526898Y-136454774D01*
X178326939Y-136415000D01*
X178123061Y-136415000D01*
X177923102Y-136454774D01*
X177734744Y-136532795D01*
X177565226Y-136646063D01*
X177421063Y-136790226D01*
X177307795Y-136959744D01*
X177229774Y-137148102D01*
X177216467Y-137215000D01*
X177198061Y-137215000D01*
X176998102Y-137254774D01*
X176809744Y-137332795D01*
X176640226Y-137446063D01*
X176496063Y-137590226D01*
X176382795Y-137759744D01*
X176304774Y-137948102D01*
X176265000Y-138148061D01*
X176265000Y-138351939D01*
X176295876Y-138507165D01*
X176159774Y-138371063D01*
X175990256Y-138257795D01*
X175801898Y-138179774D01*
X175601939Y-138140000D01*
X175398061Y-138140000D01*
X175198102Y-138179774D01*
X175009744Y-138257795D01*
X174840226Y-138371063D01*
X174696063Y-138515226D01*
X174582795Y-138684744D01*
X174504774Y-138873102D01*
X174465000Y-139073061D01*
X144264490Y-139073061D01*
X144585149Y-138811054D01*
X145055063Y-137960067D01*
X145218046Y-137448061D01*
X165040000Y-137448061D01*
X165040000Y-137651939D01*
X165079774Y-137851898D01*
X165157795Y-138040256D01*
X165271063Y-138209774D01*
X165415226Y-138353937D01*
X165584744Y-138467205D01*
X165773102Y-138545226D01*
X165973061Y-138585000D01*
X166176939Y-138585000D01*
X166376898Y-138545226D01*
X166565256Y-138467205D01*
X166734774Y-138353937D01*
X166878937Y-138209774D01*
X166992205Y-138040256D01*
X167070226Y-137851898D01*
X167075000Y-137827897D01*
X167079774Y-137851898D01*
X167157795Y-138040256D01*
X167271063Y-138209774D01*
X167415226Y-138353937D01*
X167584744Y-138467205D01*
X167773102Y-138545226D01*
X167973061Y-138585000D01*
X168176939Y-138585000D01*
X168376898Y-138545226D01*
X168565256Y-138467205D01*
X168734774Y-138353937D01*
X168878937Y-138209774D01*
X168992205Y-138040256D01*
X169070226Y-137851898D01*
X169110000Y-137651939D01*
X169110000Y-137448061D01*
X169070226Y-137248102D01*
X168992205Y-137059744D01*
X168878937Y-136890226D01*
X168734774Y-136746063D01*
X168565256Y-136632795D01*
X168376898Y-136554774D01*
X168176939Y-136515000D01*
X167973061Y-136515000D01*
X167773102Y-136554774D01*
X167584744Y-136632795D01*
X167415226Y-136746063D01*
X167271063Y-136890226D01*
X167157795Y-137059744D01*
X167079774Y-137248102D01*
X167075000Y-137272103D01*
X167070226Y-137248102D01*
X166992205Y-137059744D01*
X166878937Y-136890226D01*
X166734774Y-136746063D01*
X166565256Y-136632795D01*
X166376898Y-136554774D01*
X166176939Y-136515000D01*
X165973061Y-136515000D01*
X165773102Y-136554774D01*
X165584744Y-136632795D01*
X165415226Y-136746063D01*
X165271063Y-136890226D01*
X165157795Y-137059744D01*
X165079774Y-137248102D01*
X165040000Y-137448061D01*
X145218046Y-137448061D01*
X145340694Y-137062770D01*
X145407926Y-137107693D01*
X145635402Y-137201917D01*
X145876890Y-137249952D01*
X146123110Y-137249952D01*
X146364598Y-137201917D01*
X146592074Y-137107693D01*
X146796798Y-136970901D01*
X146970901Y-136796798D01*
X147107693Y-136592074D01*
X147201917Y-136364598D01*
X147249952Y-136123110D01*
X147249952Y-135876890D01*
X147201917Y-135635402D01*
X147107693Y-135407926D01*
X146970901Y-135203202D01*
X146817699Y-135050000D01*
X150461928Y-135050000D01*
X150461928Y-135950000D01*
X150478031Y-136113500D01*
X150525722Y-136270716D01*
X150603169Y-136415608D01*
X150707394Y-136542606D01*
X150834392Y-136646831D01*
X150979284Y-136724278D01*
X151136500Y-136771969D01*
X151300000Y-136788072D01*
X151700000Y-136788072D01*
X151863500Y-136771969D01*
X152020716Y-136724278D01*
X152165608Y-136646831D01*
X152191894Y-136625259D01*
X152352008Y-136710841D01*
X152547106Y-136770024D01*
X152750000Y-136790007D01*
X152952895Y-136770024D01*
X153147993Y-136710841D01*
X153327797Y-136614734D01*
X153375001Y-136575995D01*
X153422204Y-136614734D01*
X153602008Y-136710841D01*
X153797106Y-136770024D01*
X154000000Y-136790007D01*
X154202895Y-136770024D01*
X154397993Y-136710841D01*
X154577797Y-136614734D01*
X154617938Y-136581791D01*
X154701840Y-136645255D01*
X154887028Y-136734994D01*
X154963877Y-136744666D01*
X155123000Y-136616998D01*
X155123000Y-135627000D01*
X155377000Y-135627000D01*
X155377000Y-136616998D01*
X155536123Y-136744666D01*
X155612972Y-136734994D01*
X155798160Y-136645255D01*
X155962283Y-136521112D01*
X156099033Y-136367336D01*
X156203155Y-136189836D01*
X156270648Y-135995433D01*
X156298918Y-135791599D01*
X156133762Y-135627000D01*
X155377000Y-135627000D01*
X155123000Y-135627000D01*
X155103000Y-135627000D01*
X155103000Y-135373000D01*
X155123000Y-135373000D01*
X155123000Y-134383002D01*
X155377000Y-134383002D01*
X155377000Y-135373000D01*
X156133762Y-135373000D01*
X156298918Y-135208401D01*
X156270648Y-135004567D01*
X156242351Y-134923061D01*
X165065000Y-134923061D01*
X165065000Y-135126939D01*
X165104774Y-135326898D01*
X165182795Y-135515256D01*
X165296063Y-135684774D01*
X165440226Y-135828937D01*
X165609744Y-135942205D01*
X165798102Y-136020226D01*
X165998061Y-136060000D01*
X166201939Y-136060000D01*
X166401898Y-136020226D01*
X166590256Y-135942205D01*
X166759774Y-135828937D01*
X166903937Y-135684774D01*
X167017205Y-135515256D01*
X167092678Y-135333050D01*
X167157795Y-135490256D01*
X167271063Y-135659774D01*
X167415226Y-135803937D01*
X167584744Y-135917205D01*
X167773102Y-135995226D01*
X167973061Y-136035000D01*
X168176939Y-136035000D01*
X168376898Y-135995226D01*
X168528859Y-135932281D01*
X180541586Y-135932281D01*
X180623649Y-136900921D01*
X180893107Y-137834938D01*
X181339606Y-138698440D01*
X181414851Y-138811054D01*
X182017182Y-139303213D01*
X185320395Y-136000000D01*
X182017182Y-132696787D01*
X181414851Y-133188946D01*
X180944937Y-134039933D01*
X180650071Y-134966243D01*
X180541586Y-135932281D01*
X168528859Y-135932281D01*
X168565256Y-135917205D01*
X168734774Y-135803937D01*
X168878937Y-135659774D01*
X168992205Y-135490256D01*
X169070226Y-135301898D01*
X169110000Y-135101939D01*
X169110000Y-134898061D01*
X169070226Y-134698102D01*
X168992205Y-134509744D01*
X168878937Y-134340226D01*
X168734774Y-134196063D01*
X168565256Y-134082795D01*
X168376898Y-134004774D01*
X168176939Y-133965000D01*
X167973061Y-133965000D01*
X167773102Y-134004774D01*
X167584744Y-134082795D01*
X167415226Y-134196063D01*
X167271063Y-134340226D01*
X167157795Y-134509744D01*
X167082322Y-134691950D01*
X167017205Y-134534744D01*
X166903937Y-134365226D01*
X166759774Y-134221063D01*
X166590256Y-134107795D01*
X166401898Y-134029774D01*
X166201939Y-133990000D01*
X165998061Y-133990000D01*
X165798102Y-134029774D01*
X165609744Y-134107795D01*
X165440226Y-134221063D01*
X165296063Y-134365226D01*
X165182795Y-134534744D01*
X165104774Y-134723102D01*
X165065000Y-134923061D01*
X156242351Y-134923061D01*
X156203155Y-134810164D01*
X156099033Y-134632664D01*
X155962283Y-134478888D01*
X155798160Y-134354745D01*
X155612972Y-134265006D01*
X155536123Y-134255334D01*
X155377000Y-134383002D01*
X155123000Y-134383002D01*
X154963877Y-134255334D01*
X154887028Y-134265006D01*
X154701840Y-134354745D01*
X154617938Y-134418209D01*
X154577797Y-134385266D01*
X154397992Y-134289159D01*
X154202894Y-134229976D01*
X154000000Y-134209993D01*
X153797105Y-134229976D01*
X153602007Y-134289159D01*
X153422203Y-134385266D01*
X153375000Y-134424004D01*
X153327797Y-134385266D01*
X153147992Y-134289159D01*
X152952894Y-134229976D01*
X152750000Y-134209993D01*
X152547105Y-134229976D01*
X152352007Y-134289159D01*
X152191894Y-134374741D01*
X152165608Y-134353169D01*
X152020716Y-134275722D01*
X151863500Y-134228031D01*
X151700000Y-134211928D01*
X151300000Y-134211928D01*
X151136500Y-134228031D01*
X150979284Y-134275722D01*
X150834392Y-134353169D01*
X150707394Y-134457394D01*
X150603169Y-134584392D01*
X150525722Y-134729284D01*
X150478031Y-134886500D01*
X150461928Y-135050000D01*
X146817699Y-135050000D01*
X146796798Y-135029099D01*
X146592074Y-134892307D01*
X146364598Y-134798083D01*
X146123110Y-134750048D01*
X145876890Y-134750048D01*
X145635402Y-134798083D01*
X145407926Y-134892307D01*
X145331442Y-134943412D01*
X145106893Y-134165062D01*
X144660394Y-133301560D01*
X144585149Y-133188946D01*
X143982818Y-132696787D01*
X140679605Y-136000000D01*
X140320395Y-136000000D01*
X137017182Y-132696787D01*
X136414851Y-133188946D01*
X136160000Y-133650466D01*
X136160000Y-132517182D01*
X137196787Y-132517182D01*
X140500000Y-135820395D01*
X143803213Y-132517182D01*
X143311054Y-131914851D01*
X142460067Y-131444937D01*
X142391345Y-131423061D01*
X164615000Y-131423061D01*
X164615000Y-131626939D01*
X164654774Y-131826898D01*
X164732795Y-132015256D01*
X164846063Y-132184774D01*
X164990226Y-132328937D01*
X165159744Y-132442205D01*
X165348102Y-132520226D01*
X165548061Y-132560000D01*
X165751939Y-132560000D01*
X165951898Y-132520226D01*
X166140256Y-132442205D01*
X166309774Y-132328937D01*
X166453937Y-132184774D01*
X166567205Y-132015256D01*
X166645226Y-131826898D01*
X166685000Y-131626939D01*
X166685000Y-131423061D01*
X166645226Y-131223102D01*
X166567205Y-131034744D01*
X166453937Y-130865226D01*
X166351211Y-130762500D01*
X166478937Y-130634774D01*
X166592205Y-130465256D01*
X166670226Y-130276898D01*
X166710000Y-130076939D01*
X166710000Y-129898061D01*
X167390000Y-129898061D01*
X167390000Y-130101939D01*
X167429774Y-130301898D01*
X167507795Y-130490256D01*
X167621063Y-130659774D01*
X167761289Y-130800000D01*
X167646063Y-130915226D01*
X167532795Y-131084744D01*
X167454774Y-131273102D01*
X167415000Y-131473061D01*
X167415000Y-131676939D01*
X167454774Y-131876898D01*
X167532795Y-132065256D01*
X167646063Y-132234774D01*
X167790226Y-132378937D01*
X167959744Y-132492205D01*
X168148102Y-132570226D01*
X168348061Y-132610000D01*
X168551939Y-132610000D01*
X168751898Y-132570226D01*
X168879956Y-132517182D01*
X182196787Y-132517182D01*
X185500000Y-135820395D01*
X188803213Y-132517182D01*
X188311054Y-131914851D01*
X187460067Y-131444937D01*
X186533757Y-131150071D01*
X185567719Y-131041586D01*
X184599079Y-131123649D01*
X183665062Y-131393107D01*
X182801560Y-131839606D01*
X182688946Y-131914851D01*
X182196787Y-132517182D01*
X168879956Y-132517182D01*
X168940256Y-132492205D01*
X169109774Y-132378937D01*
X169253937Y-132234774D01*
X169367205Y-132065256D01*
X169445226Y-131876898D01*
X169485000Y-131676939D01*
X169485000Y-131473061D01*
X169445226Y-131273102D01*
X169367205Y-131084744D01*
X169253937Y-130915226D01*
X169113711Y-130775000D01*
X169228937Y-130659774D01*
X169342205Y-130490256D01*
X169420226Y-130301898D01*
X169460000Y-130101939D01*
X169460000Y-129898061D01*
X169420226Y-129698102D01*
X169342205Y-129509744D01*
X169228937Y-129340226D01*
X169084774Y-129196063D01*
X168915256Y-129082795D01*
X168726898Y-129004774D01*
X168526939Y-128965000D01*
X168323061Y-128965000D01*
X168123102Y-129004774D01*
X167934744Y-129082795D01*
X167765226Y-129196063D01*
X167621063Y-129340226D01*
X167507795Y-129509744D01*
X167429774Y-129698102D01*
X167390000Y-129898061D01*
X166710000Y-129898061D01*
X166710000Y-129873061D01*
X166670226Y-129673102D01*
X166592205Y-129484744D01*
X166478937Y-129315226D01*
X166334774Y-129171063D01*
X166165256Y-129057795D01*
X165976898Y-128979774D01*
X165776939Y-128940000D01*
X165573061Y-128940000D01*
X165373102Y-128979774D01*
X165184744Y-129057795D01*
X165015226Y-129171063D01*
X164871063Y-129315226D01*
X164757795Y-129484744D01*
X164679774Y-129673102D01*
X164640000Y-129873061D01*
X164640000Y-130076939D01*
X164679774Y-130276898D01*
X164757795Y-130465256D01*
X164871063Y-130634774D01*
X164973789Y-130737500D01*
X164846063Y-130865226D01*
X164732795Y-131034744D01*
X164654774Y-131223102D01*
X164615000Y-131423061D01*
X142391345Y-131423061D01*
X141533757Y-131150071D01*
X140567719Y-131041586D01*
X139599079Y-131123649D01*
X138665062Y-131393107D01*
X137801560Y-131839606D01*
X137688946Y-131914851D01*
X137196787Y-132517182D01*
X136160000Y-132517182D01*
X136160000Y-125300000D01*
X183161928Y-125300000D01*
X183161928Y-127700000D01*
X183174188Y-127824482D01*
X183210498Y-127944180D01*
X183269463Y-128054494D01*
X183348815Y-128151185D01*
X183445506Y-128230537D01*
X183555820Y-128289502D01*
X183675518Y-128325812D01*
X183800000Y-128338072D01*
X186200000Y-128338072D01*
X186324482Y-128325812D01*
X186444180Y-128289502D01*
X186554494Y-128230537D01*
X186651185Y-128151185D01*
X186730537Y-128054494D01*
X186789502Y-127944180D01*
X186825812Y-127824482D01*
X186838072Y-127700000D01*
X186838072Y-125300000D01*
X186825812Y-125175518D01*
X186789502Y-125055820D01*
X186730537Y-124945506D01*
X186651185Y-124848815D01*
X186554494Y-124769463D01*
X186444180Y-124710498D01*
X186324482Y-124674188D01*
X186200000Y-124661928D01*
X185793097Y-124661928D01*
X185978486Y-124562836D01*
X186098374Y-124277980D01*
X185000000Y-123179605D01*
X183901626Y-124277980D01*
X184021514Y-124562836D01*
X184220912Y-124661928D01*
X183800000Y-124661928D01*
X183675518Y-124674188D01*
X183555820Y-124710498D01*
X183445506Y-124769463D01*
X183348815Y-124848815D01*
X183269463Y-124945506D01*
X183210498Y-125055820D01*
X183174188Y-125175518D01*
X183161928Y-125300000D01*
X136160000Y-125300000D01*
X136160000Y-123223061D01*
X150890000Y-123223061D01*
X150890000Y-123426939D01*
X150929774Y-123626898D01*
X151007795Y-123815256D01*
X151121063Y-123984774D01*
X151265226Y-124128937D01*
X151434744Y-124242205D01*
X151623102Y-124320226D01*
X151823061Y-124360000D01*
X152026939Y-124360000D01*
X152226898Y-124320226D01*
X152415256Y-124242205D01*
X152584774Y-124128937D01*
X152728937Y-123984774D01*
X152842205Y-123815256D01*
X152920226Y-123626898D01*
X152960000Y-123426939D01*
X152960000Y-123223061D01*
X152926509Y-123054684D01*
X183156933Y-123054684D01*
X183203015Y-123413198D01*
X183318154Y-123755833D01*
X183437164Y-123978486D01*
X183722020Y-124098374D01*
X184820395Y-123000000D01*
X185179605Y-123000000D01*
X186277980Y-124098374D01*
X186562836Y-123978486D01*
X186723699Y-123654790D01*
X186818322Y-123305931D01*
X186843067Y-122945316D01*
X186796985Y-122586802D01*
X186681846Y-122244167D01*
X186562836Y-122021514D01*
X186277980Y-121901626D01*
X185179605Y-123000000D01*
X184820395Y-123000000D01*
X183722020Y-121901626D01*
X183437164Y-122021514D01*
X183276301Y-122345210D01*
X183181678Y-122694069D01*
X183156933Y-123054684D01*
X152926509Y-123054684D01*
X152920226Y-123023102D01*
X152842205Y-122834744D01*
X152728937Y-122665226D01*
X152584774Y-122521063D01*
X152415256Y-122407795D01*
X152226898Y-122329774D01*
X152026939Y-122290000D01*
X151823061Y-122290000D01*
X151623102Y-122329774D01*
X151434744Y-122407795D01*
X151265226Y-122521063D01*
X151121063Y-122665226D01*
X151007795Y-122834744D01*
X150929774Y-123023102D01*
X150890000Y-123223061D01*
X136160000Y-123223061D01*
X136160000Y-120398061D01*
X143740000Y-120398061D01*
X143740000Y-120601939D01*
X143779774Y-120801898D01*
X143857795Y-120990256D01*
X143971063Y-121159774D01*
X144115226Y-121303937D01*
X144284744Y-121417205D01*
X144473102Y-121495226D01*
X144489136Y-121498415D01*
X144499774Y-121551898D01*
X144577795Y-121740256D01*
X144691063Y-121909774D01*
X144835226Y-122053937D01*
X145004744Y-122167205D01*
X145193102Y-122245226D01*
X145393061Y-122285000D01*
X145596939Y-122285000D01*
X145796898Y-122245226D01*
X145985256Y-122167205D01*
X146154774Y-122053937D01*
X146298937Y-121909774D01*
X146412205Y-121740256D01*
X146419327Y-121723061D01*
X158515000Y-121723061D01*
X158515000Y-121926939D01*
X158554774Y-122126898D01*
X158632795Y-122315256D01*
X158746063Y-122484774D01*
X158890226Y-122628937D01*
X159059744Y-122742205D01*
X159248102Y-122820226D01*
X159448061Y-122860000D01*
X159651939Y-122860000D01*
X159851898Y-122820226D01*
X160040256Y-122742205D01*
X160209774Y-122628937D01*
X160353937Y-122484774D01*
X160467205Y-122315256D01*
X160545226Y-122126898D01*
X160585000Y-121926939D01*
X160585000Y-121723061D01*
X160584793Y-121722020D01*
X183901626Y-121722020D01*
X185000000Y-122820395D01*
X186098374Y-121722020D01*
X185978486Y-121437164D01*
X185654790Y-121276301D01*
X185305931Y-121181678D01*
X184945316Y-121156933D01*
X184586802Y-121203015D01*
X184244167Y-121318154D01*
X184021514Y-121437164D01*
X183901626Y-121722020D01*
X160584793Y-121722020D01*
X160545226Y-121523102D01*
X160467205Y-121334744D01*
X160353937Y-121165226D01*
X160209774Y-121021063D01*
X160040256Y-120907795D01*
X159851898Y-120829774D01*
X159651939Y-120790000D01*
X159448061Y-120790000D01*
X159248102Y-120829774D01*
X159059744Y-120907795D01*
X158890226Y-121021063D01*
X158746063Y-121165226D01*
X158632795Y-121334744D01*
X158554774Y-121523102D01*
X158515000Y-121723061D01*
X146419327Y-121723061D01*
X146490226Y-121551898D01*
X146530000Y-121351939D01*
X146530000Y-121148061D01*
X146490226Y-120948102D01*
X146412205Y-120759744D01*
X146298937Y-120590226D01*
X146154774Y-120446063D01*
X145985256Y-120332795D01*
X145796898Y-120254774D01*
X145780864Y-120251585D01*
X145770226Y-120198102D01*
X145692205Y-120009744D01*
X145578937Y-119840226D01*
X145434774Y-119696063D01*
X145265256Y-119582795D01*
X145076898Y-119504774D01*
X144876939Y-119465000D01*
X144673061Y-119465000D01*
X144473102Y-119504774D01*
X144284744Y-119582795D01*
X144115226Y-119696063D01*
X143971063Y-119840226D01*
X143857795Y-120009744D01*
X143779774Y-120198102D01*
X143740000Y-120398061D01*
X136160000Y-120398061D01*
X136160000Y-115132936D01*
X148673934Y-115132936D01*
X148673934Y-115336814D01*
X148713708Y-115536773D01*
X148791729Y-115725131D01*
X148904997Y-115894649D01*
X149049160Y-116038812D01*
X149218678Y-116152080D01*
X149407036Y-116230101D01*
X149606995Y-116269875D01*
X149810873Y-116269875D01*
X150010832Y-116230101D01*
X150199190Y-116152080D01*
X150368708Y-116038812D01*
X150512871Y-115894649D01*
X150626139Y-115725131D01*
X150704160Y-115536773D01*
X150743934Y-115336814D01*
X150743934Y-115132936D01*
X150704160Y-114932977D01*
X150626139Y-114744619D01*
X150512871Y-114575101D01*
X150368708Y-114430938D01*
X150199190Y-114317670D01*
X150010832Y-114239649D01*
X149810873Y-114199875D01*
X149606995Y-114199875D01*
X149407036Y-114239649D01*
X149218678Y-114317670D01*
X149049160Y-114430938D01*
X148904997Y-114575101D01*
X148791729Y-114744619D01*
X148713708Y-114932977D01*
X148673934Y-115132936D01*
X136160000Y-115132936D01*
X136160000Y-112148061D01*
X144665000Y-112148061D01*
X144665000Y-112351939D01*
X144704774Y-112551898D01*
X144782795Y-112740256D01*
X144896063Y-112909774D01*
X145040226Y-113053937D01*
X145209744Y-113167205D01*
X145398102Y-113245226D01*
X145598061Y-113285000D01*
X145801939Y-113285000D01*
X146001898Y-113245226D01*
X146190256Y-113167205D01*
X146359774Y-113053937D01*
X146503937Y-112909774D01*
X146617205Y-112740256D01*
X146695226Y-112551898D01*
X146735000Y-112351939D01*
X146735000Y-112148061D01*
X146695226Y-111948102D01*
X146617205Y-111759744D01*
X146503937Y-111590226D01*
X146359774Y-111446063D01*
X146190256Y-111332795D01*
X146001898Y-111254774D01*
X145801939Y-111215000D01*
X145598061Y-111215000D01*
X145398102Y-111254774D01*
X145209744Y-111332795D01*
X145040226Y-111446063D01*
X144896063Y-111590226D01*
X144782795Y-111759744D01*
X144704774Y-111948102D01*
X144665000Y-112148061D01*
X136160000Y-112148061D01*
X136160000Y-111148061D01*
X159365000Y-111148061D01*
X159365000Y-111351939D01*
X159404774Y-111551898D01*
X159482795Y-111740256D01*
X159596063Y-111909774D01*
X159740226Y-112053937D01*
X159909744Y-112167205D01*
X160098102Y-112245226D01*
X160298061Y-112285000D01*
X160501939Y-112285000D01*
X160701898Y-112245226D01*
X160890256Y-112167205D01*
X161059774Y-112053937D01*
X161203937Y-111909774D01*
X161317205Y-111740256D01*
X161395226Y-111551898D01*
X161435000Y-111351939D01*
X161435000Y-111148061D01*
X161395226Y-110948102D01*
X161317205Y-110759744D01*
X161203937Y-110590226D01*
X161059774Y-110446063D01*
X160890256Y-110332795D01*
X160701898Y-110254774D01*
X160501939Y-110215000D01*
X160298061Y-110215000D01*
X160098102Y-110254774D01*
X159909744Y-110332795D01*
X159740226Y-110446063D01*
X159596063Y-110590226D01*
X159482795Y-110759744D01*
X159404774Y-110948102D01*
X159365000Y-111148061D01*
X136160000Y-111148061D01*
X136160000Y-108393137D01*
X136585000Y-108393137D01*
X136585000Y-108606863D01*
X136626696Y-108816483D01*
X136708485Y-109013940D01*
X136827225Y-109191647D01*
X136978353Y-109342775D01*
X137156060Y-109461515D01*
X137353517Y-109543304D01*
X137563137Y-109585000D01*
X137776863Y-109585000D01*
X137986483Y-109543304D01*
X138183940Y-109461515D01*
X138361647Y-109342775D01*
X138512775Y-109191647D01*
X138631515Y-109013940D01*
X138689868Y-108873061D01*
X146640000Y-108873061D01*
X146640000Y-109076939D01*
X146679774Y-109276898D01*
X146757795Y-109465256D01*
X146871063Y-109634774D01*
X147015226Y-109778937D01*
X147184744Y-109892205D01*
X147373102Y-109970226D01*
X147573061Y-110010000D01*
X147776939Y-110010000D01*
X147976898Y-109970226D01*
X148165256Y-109892205D01*
X148334774Y-109778937D01*
X148478937Y-109634774D01*
X148592205Y-109465256D01*
X148670226Y-109276898D01*
X148710000Y-109076939D01*
X148710000Y-108873061D01*
X148670226Y-108673102D01*
X148592205Y-108484744D01*
X148478937Y-108315226D01*
X148334774Y-108171063D01*
X148165256Y-108057795D01*
X147976898Y-107979774D01*
X147776939Y-107940000D01*
X147573061Y-107940000D01*
X147373102Y-107979774D01*
X147184744Y-108057795D01*
X147015226Y-108171063D01*
X146871063Y-108315226D01*
X146757795Y-108484744D01*
X146679774Y-108673102D01*
X146640000Y-108873061D01*
X138689868Y-108873061D01*
X138713304Y-108816483D01*
X138755000Y-108606863D01*
X138755000Y-108393137D01*
X138713304Y-108183517D01*
X138631515Y-107986060D01*
X138512775Y-107808353D01*
X138361647Y-107657225D01*
X138183940Y-107538485D01*
X137986483Y-107456696D01*
X137776863Y-107415000D01*
X137563137Y-107415000D01*
X137353517Y-107456696D01*
X137156060Y-107538485D01*
X136978353Y-107657225D01*
X136827225Y-107808353D01*
X136708485Y-107986060D01*
X136626696Y-108183517D01*
X136585000Y-108393137D01*
X136160000Y-108393137D01*
X136160000Y-105393137D01*
X136585000Y-105393137D01*
X136585000Y-105606863D01*
X136626696Y-105816483D01*
X136708485Y-106013940D01*
X136827225Y-106191647D01*
X136978353Y-106342775D01*
X137156060Y-106461515D01*
X137353517Y-106543304D01*
X137563137Y-106585000D01*
X137776863Y-106585000D01*
X137986483Y-106543304D01*
X138183940Y-106461515D01*
X138361647Y-106342775D01*
X138456361Y-106248061D01*
X149965000Y-106248061D01*
X149965000Y-106451939D01*
X150004774Y-106651898D01*
X150082795Y-106840256D01*
X150196063Y-107009774D01*
X150340226Y-107153937D01*
X150509744Y-107267205D01*
X150698102Y-107345226D01*
X150898061Y-107385000D01*
X151101939Y-107385000D01*
X151301898Y-107345226D01*
X151490256Y-107267205D01*
X151659774Y-107153937D01*
X151803937Y-107009774D01*
X151917205Y-106840256D01*
X151995226Y-106651898D01*
X152035000Y-106451939D01*
X152035000Y-106248061D01*
X152030028Y-106223061D01*
X153540000Y-106223061D01*
X153540000Y-106426939D01*
X153579774Y-106626898D01*
X153657795Y-106815256D01*
X153771063Y-106984774D01*
X153915226Y-107128937D01*
X154084744Y-107242205D01*
X154273102Y-107320226D01*
X154473061Y-107360000D01*
X154676939Y-107360000D01*
X154876898Y-107320226D01*
X155065256Y-107242205D01*
X155170706Y-107171746D01*
X155348102Y-107245226D01*
X155548061Y-107285000D01*
X155751939Y-107285000D01*
X155951898Y-107245226D01*
X156140256Y-107167205D01*
X156309774Y-107053937D01*
X156453937Y-106909774D01*
X156567205Y-106740256D01*
X156645226Y-106551898D01*
X156685000Y-106351939D01*
X156685000Y-106148061D01*
X156645226Y-105948102D01*
X156567205Y-105759744D01*
X156453937Y-105590226D01*
X156309774Y-105446063D01*
X156140256Y-105332795D01*
X155951898Y-105254774D01*
X155751939Y-105215000D01*
X155548061Y-105215000D01*
X155348102Y-105254774D01*
X155159744Y-105332795D01*
X155054294Y-105403254D01*
X154876898Y-105329774D01*
X154676939Y-105290000D01*
X154473061Y-105290000D01*
X154273102Y-105329774D01*
X154084744Y-105407795D01*
X153915226Y-105521063D01*
X153771063Y-105665226D01*
X153657795Y-105834744D01*
X153579774Y-106023102D01*
X153540000Y-106223061D01*
X152030028Y-106223061D01*
X151995226Y-106048102D01*
X151917205Y-105859744D01*
X151803937Y-105690226D01*
X151659774Y-105546063D01*
X151490256Y-105432795D01*
X151301898Y-105354774D01*
X151101939Y-105315000D01*
X150898061Y-105315000D01*
X150698102Y-105354774D01*
X150509744Y-105432795D01*
X150340226Y-105546063D01*
X150196063Y-105690226D01*
X150082795Y-105859744D01*
X150004774Y-106048102D01*
X149965000Y-106248061D01*
X138456361Y-106248061D01*
X138512775Y-106191647D01*
X138631515Y-106013940D01*
X138713304Y-105816483D01*
X138755000Y-105606863D01*
X138755000Y-105393137D01*
X138713304Y-105183517D01*
X138631515Y-104986060D01*
X138512775Y-104808353D01*
X138361647Y-104657225D01*
X138347933Y-104648061D01*
X139565000Y-104648061D01*
X139565000Y-104851939D01*
X139604774Y-105051898D01*
X139682795Y-105240256D01*
X139796063Y-105409774D01*
X139940226Y-105553937D01*
X140109744Y-105667205D01*
X140298102Y-105745226D01*
X140498061Y-105785000D01*
X140701939Y-105785000D01*
X140901898Y-105745226D01*
X141090256Y-105667205D01*
X141259774Y-105553937D01*
X141403937Y-105409774D01*
X141517205Y-105240256D01*
X141595226Y-105051898D01*
X141635000Y-104851939D01*
X141635000Y-104648061D01*
X141595226Y-104448102D01*
X141517205Y-104259744D01*
X141403937Y-104090226D01*
X141259774Y-103946063D01*
X141090256Y-103832795D01*
X140901898Y-103754774D01*
X140701939Y-103715000D01*
X140498061Y-103715000D01*
X140298102Y-103754774D01*
X140109744Y-103832795D01*
X139940226Y-103946063D01*
X139796063Y-104090226D01*
X139682795Y-104259744D01*
X139604774Y-104448102D01*
X139565000Y-104648061D01*
X138347933Y-104648061D01*
X138183940Y-104538485D01*
X137986483Y-104456696D01*
X137776863Y-104415000D01*
X137563137Y-104415000D01*
X137353517Y-104456696D01*
X137156060Y-104538485D01*
X136978353Y-104657225D01*
X136827225Y-104808353D01*
X136708485Y-104986060D01*
X136626696Y-105183517D01*
X136585000Y-105393137D01*
X136160000Y-105393137D01*
X136160000Y-99482818D01*
X137196787Y-99482818D01*
X137688946Y-100085149D01*
X138539933Y-100555063D01*
X139466243Y-100849929D01*
X140432281Y-100958414D01*
X141400921Y-100876351D01*
X142334938Y-100606893D01*
X143198440Y-100160394D01*
X143311054Y-100085149D01*
X143803213Y-99482818D01*
X182196787Y-99482818D01*
X182688946Y-100085149D01*
X183539933Y-100555063D01*
X184466243Y-100849929D01*
X185432281Y-100958414D01*
X186400921Y-100876351D01*
X187334938Y-100606893D01*
X188198440Y-100160394D01*
X188311054Y-100085149D01*
X188803213Y-99482818D01*
X185500000Y-96179605D01*
X182196787Y-99482818D01*
X143803213Y-99482818D01*
X140500000Y-96179605D01*
X137196787Y-99482818D01*
X136160000Y-99482818D01*
X136160000Y-98351093D01*
X136339606Y-98698440D01*
X136414851Y-98811054D01*
X137017182Y-99303213D01*
X140320395Y-96000000D01*
X140679605Y-96000000D01*
X143982818Y-99303213D01*
X144585149Y-98811054D01*
X145055063Y-97960067D01*
X145340694Y-97062770D01*
X145407926Y-97107693D01*
X145635402Y-97201917D01*
X145876890Y-97249952D01*
X146123110Y-97249952D01*
X146364598Y-97201917D01*
X146592074Y-97107693D01*
X146796798Y-96970901D01*
X146970901Y-96796798D01*
X146974374Y-96791599D01*
X150201082Y-96791599D01*
X150229352Y-96995433D01*
X150296845Y-97189836D01*
X150400967Y-97367336D01*
X150537717Y-97521112D01*
X150701840Y-97645255D01*
X150887028Y-97734994D01*
X150963877Y-97744666D01*
X151123000Y-97616998D01*
X151123000Y-96627000D01*
X150366238Y-96627000D01*
X150201082Y-96791599D01*
X146974374Y-96791599D01*
X147107693Y-96592074D01*
X147201917Y-96364598D01*
X147232986Y-96208401D01*
X150201082Y-96208401D01*
X150366238Y-96373000D01*
X151123000Y-96373000D01*
X151123000Y-95383002D01*
X151377000Y-95383002D01*
X151377000Y-96373000D01*
X151397000Y-96373000D01*
X151397000Y-96627000D01*
X151377000Y-96627000D01*
X151377000Y-97616998D01*
X151536123Y-97744666D01*
X151612972Y-97734994D01*
X151798160Y-97645255D01*
X151882062Y-97581791D01*
X151922203Y-97614734D01*
X152102007Y-97710841D01*
X152297105Y-97770024D01*
X152500000Y-97790007D01*
X152702894Y-97770024D01*
X152897992Y-97710841D01*
X153077797Y-97614734D01*
X153125000Y-97575996D01*
X153172203Y-97614734D01*
X153352007Y-97710841D01*
X153547105Y-97770024D01*
X153750000Y-97790007D01*
X153952894Y-97770024D01*
X153972393Y-97764109D01*
X154004774Y-97926898D01*
X154082795Y-98115256D01*
X154196063Y-98284774D01*
X154340226Y-98428937D01*
X154509744Y-98542205D01*
X154698102Y-98620226D01*
X154898061Y-98660000D01*
X155101939Y-98660000D01*
X155301898Y-98620226D01*
X155490256Y-98542205D01*
X155659774Y-98428937D01*
X155803937Y-98284774D01*
X155917205Y-98115256D01*
X155995226Y-97926898D01*
X156035000Y-97726939D01*
X156035000Y-97523061D01*
X155995226Y-97323102D01*
X155973855Y-97271508D01*
X155974278Y-97270716D01*
X156021969Y-97113500D01*
X156038072Y-96950000D01*
X156038072Y-96050000D01*
X156021969Y-95886500D01*
X156019054Y-95876890D01*
X178750048Y-95876890D01*
X178750048Y-96123110D01*
X178798083Y-96364598D01*
X178892307Y-96592074D01*
X179029099Y-96796798D01*
X179203202Y-96970901D01*
X179407926Y-97107693D01*
X179635402Y-97201917D01*
X179876890Y-97249952D01*
X180123110Y-97249952D01*
X180364598Y-97201917D01*
X180592074Y-97107693D01*
X180668558Y-97056588D01*
X180893107Y-97834938D01*
X181339606Y-98698440D01*
X181414851Y-98811054D01*
X182017182Y-99303213D01*
X185320395Y-96000000D01*
X182017182Y-92696787D01*
X181414851Y-93188946D01*
X180944937Y-94039933D01*
X180659306Y-94937230D01*
X180592074Y-94892307D01*
X180364598Y-94798083D01*
X180123110Y-94750048D01*
X179876890Y-94750048D01*
X179635402Y-94798083D01*
X179407926Y-94892307D01*
X179203202Y-95029099D01*
X179029099Y-95203202D01*
X178892307Y-95407926D01*
X178798083Y-95635402D01*
X178750048Y-95876890D01*
X156019054Y-95876890D01*
X155974278Y-95729284D01*
X155896831Y-95584392D01*
X155792606Y-95457394D01*
X155665608Y-95353169D01*
X155520716Y-95275722D01*
X155363500Y-95228031D01*
X155200000Y-95211928D01*
X154800000Y-95211928D01*
X154636500Y-95228031D01*
X154479284Y-95275722D01*
X154334392Y-95353169D01*
X154308106Y-95374741D01*
X154147993Y-95289159D01*
X153952895Y-95229976D01*
X153750000Y-95209993D01*
X153547106Y-95229976D01*
X153352008Y-95289159D01*
X153172204Y-95385266D01*
X153125001Y-95424005D01*
X153077797Y-95385266D01*
X152897993Y-95289159D01*
X152702895Y-95229976D01*
X152500000Y-95209993D01*
X152297106Y-95229976D01*
X152102008Y-95289159D01*
X151922204Y-95385266D01*
X151882063Y-95418209D01*
X151798160Y-95354745D01*
X151612972Y-95265006D01*
X151536123Y-95255334D01*
X151377000Y-95383002D01*
X151123000Y-95383002D01*
X150963877Y-95255334D01*
X150887028Y-95265006D01*
X150701840Y-95354745D01*
X150537717Y-95478888D01*
X150400967Y-95632664D01*
X150296845Y-95810164D01*
X150229352Y-96004567D01*
X150201082Y-96208401D01*
X147232986Y-96208401D01*
X147249952Y-96123110D01*
X147249952Y-95876890D01*
X147201917Y-95635402D01*
X147107693Y-95407926D01*
X146970901Y-95203202D01*
X146796798Y-95029099D01*
X146592074Y-94892307D01*
X146364598Y-94798083D01*
X146123110Y-94750048D01*
X145876890Y-94750048D01*
X145635402Y-94798083D01*
X145407926Y-94892307D01*
X145331442Y-94943412D01*
X145106893Y-94165062D01*
X144660394Y-93301560D01*
X144585149Y-93188946D01*
X143982818Y-92696787D01*
X140679605Y-96000000D01*
X140320395Y-96000000D01*
X140306253Y-95985858D01*
X140485858Y-95806253D01*
X140500000Y-95820395D01*
X143803213Y-92517182D01*
X143311054Y-91914851D01*
X142849534Y-91660000D01*
X166470556Y-91660000D01*
X166454774Y-91698102D01*
G37*
%TD.AperFunction*%
%TD*%
M02*
